<svg width="73" height="72" viewBox="0 0 73 72" fill="none" xmlns="http://www.w3.org/2000/svg">
  <g clip-path="url(#clip0_2_2809)">
    <path d="M33.3554 23.6953C32.8867 22.716 32.062 21.9524 31.0496 21.5604C30.0372 21.1684 28.9133 21.1775 27.9073 21.5858C26.9014 21.9942 26.0891 22.771 25.6364 23.7578C25.1836 24.7445 25.1245 25.8669 25.471 26.8958C24.5177 28.7439 19.8669 37.2133 13.1766 40.4181L3.66482 44.9744C2.57156 45.4995 1.7313 46.437 1.3284 47.581C0.92551 48.7249 0.992901 49.982 1.51579 51.0764L4.63499 57.5873C5.15905 58.6813 6.09615 59.5224 7.24022 59.9256C8.3843 60.3288 9.64168 60.2612 10.7359 59.7375L11.3233 59.4562L18.3516 67.0846C18.7636 67.535 19.263 67.8968 19.8195 68.1479C20.3759 68.3989 20.9777 68.534 21.588 68.5448C21.6216 68.5457 21.655 68.5459 21.6883 68.5459C22.2819 68.5476 22.87 68.4317 23.4185 68.2048C23.967 67.9779 24.4652 67.6446 24.8841 67.2241C25.6927 66.4146 26.1662 65.33 26.21 64.1867C26.2539 63.0434 25.8649 61.9257 25.1207 61.0567C24.2488 60.0467 22.6117 57.9473 21.0285 54.8322C27.9283 51.9535 36.5872 53.6395 38.4857 54.0654C39.0446 54.945 39.9065 55.5893 40.9083 55.8764C41.9102 56.1635 42.9826 56.0735 43.9225 55.6233C44.9415 55.1338 45.7246 54.2601 46.1001 53.1938C46.4756 52.1276 46.4128 50.9559 45.9254 49.9359L33.3554 23.6953ZM13.1446 42.3052L18.758 54.0232L11.9348 57.2916L6.32151 45.5736L13.1446 42.3052ZM7.80088 58.3343C7.44294 58.2092 7.11334 58.0144 6.83115 57.7612C6.54896 57.5079 6.31977 57.2013 6.15684 56.8589L3.03763 50.3472C2.70783 49.6567 2.66538 48.8636 2.9196 48.1418C3.17382 47.42 3.70394 46.8285 4.39368 46.4971L4.79952 46.3026L10.4124 58.0206L10.0066 58.2151C9.6651 58.3798 9.29433 58.4751 8.91575 58.4956C8.53717 58.5161 8.15814 58.4612 7.80088 58.3343ZM23.6933 66.028C23.422 66.2983 23.0989 66.5111 22.7434 66.6535C22.3879 66.7959 22.0073 66.8651 21.6244 66.8569C21.2415 66.8487 20.8642 66.7633 20.5152 66.6058C20.1661 66.4483 19.8524 66.2219 19.5929 65.9403L12.9156 58.6928L19.4968 55.5405C20.7526 58.0186 22.2785 60.346 23.8444 62.159C24.3109 62.7045 24.5545 63.4059 24.5265 64.1231C24.4985 64.8403 24.2009 65.5206 23.6933 66.028ZM20.2882 53.3109L14.6573 41.5571C20.5214 38.3816 24.6783 31.8279 26.3565 28.8209L37.5284 52.1426C34.1679 51.5209 26.6479 50.6136 20.2882 53.3109ZM43.1934 54.1002C42.5774 54.3953 41.8695 54.4337 41.2253 54.2069C40.5811 53.9801 40.0533 53.5067 39.7581 52.8909L27.188 26.6502C26.8929 26.0342 26.8546 25.3261 27.0816 24.6818C27.3085 24.0375 27.7821 23.5098 28.3982 23.2147C29.0142 22.9196 29.7223 22.8813 30.3666 23.1083C31.0108 23.3352 31.5386 23.8088 31.8337 24.4248L44.4037 50.6655C44.698 51.2816 44.7358 51.9894 44.5089 52.6334C44.282 53.2775 43.8089 53.8052 43.1934 54.1008V54.1002Z" fill="#3C434A" />
    <path d="M62.6324 15.8746C59.4847 14.7658 56.05 14.7827 52.9134 15.9225C49.7768 17.0623 47.1324 19.2543 45.4309 22.1252C43.7293 24.9961 43.0759 28.3682 43.5818 31.6668C44.0878 34.9655 45.7218 37.9867 48.2056 40.2156C50.6894 42.4446 53.8692 43.7433 57.2032 43.8906C60.5372 44.0379 63.8191 43.0246 66.4898 41.0234C69.1604 39.0222 71.0545 36.1569 71.8494 32.9157C72.6443 29.6744 72.2907 26.2579 70.849 23.2481C70.0349 21.5369 68.8896 20.0041 67.4792 18.7384C66.0688 17.4728 64.4214 16.4994 62.6324 15.8746ZM63.3433 40.967C61.0714 42.0554 58.5277 42.4456 56.0341 42.0884C53.5404 41.7311 51.2086 40.6425 49.3337 38.96C47.4587 37.2776 46.1248 35.0769 45.5005 32.6364C44.8763 30.1958 44.9897 27.6249 45.8265 25.2489C46.6634 22.8728 48.186 20.7982 50.2019 19.2875C52.2178 17.7767 54.6363 16.8977 57.1518 16.7615C59.6672 16.6253 62.1666 17.2381 64.3338 18.5224C66.501 19.8067 68.2387 21.7047 69.3271 23.9766C70.0613 25.4831 70.4889 27.1204 70.5851 28.7935C70.6813 30.4666 70.4441 32.1422 69.8874 33.7229C69.3307 35.3036 68.4655 36.7579 67.3421 38.0015C66.2187 39.2451 64.8595 40.2531 63.3433 40.967Z" fill="#3C434A" />
    <path d="M57.67 29.1244C57.1931 29.3528 56.6593 29.4347 56.1359 29.3597C55.6125 29.2847 55.1231 29.0562 54.7296 28.7031C54.3361 28.3499 54.0562 27.888 53.9252 27.3758C53.7942 26.8636 53.818 26.324 53.9937 25.8253C54.1693 25.3266 54.4889 24.8912 54.912 24.5741C55.3352 24.2571 55.8428 24.0726 56.3707 24.0441C56.8987 24.0155 57.4233 24.1442 57.8781 24.4138C58.3329 24.6833 58.6976 25.0817 58.926 25.5586C59.0228 25.7602 59.1957 25.9152 59.4067 25.9894C59.6177 26.0636 59.8495 26.051 60.0512 25.9543C60.2529 25.8577 60.408 25.6849 60.4824 25.474C60.5568 25.263 60.5444 25.0312 60.4479 24.8294C59.9998 23.8972 59.2354 23.1544 58.2908 22.733C57.3462 22.3117 56.2827 22.2394 55.2898 22.5288L54.7226 21.345C54.6258 21.1434 54.4529 20.9885 54.2419 20.9143C54.0309 20.84 53.7991 20.8526 53.5974 20.9493C53.3957 21.0459 53.2406 21.2187 53.1662 21.4296C53.0919 21.6406 53.1043 21.8724 53.2008 22.0742L53.7914 23.3072C52.9552 23.9759 52.3943 24.9289 52.2155 25.9846C52.0367 27.0403 52.2526 28.1248 52.8218 29.0317C53.3911 29.9385 54.2741 30.6042 55.3026 30.9019C56.3311 31.1997 57.4331 31.1087 58.3988 30.6463C58.8757 30.4178 59.4096 30.3359 59.933 30.4109C60.4564 30.4859 60.9458 30.7144 61.3394 31.0675C61.7329 31.4207 62.0129 31.8826 62.1439 32.3949C62.2749 32.9071 62.2511 33.4468 62.0754 33.9455C61.8998 34.4442 61.5801 34.8796 61.157 35.1967C60.7339 35.5138 60.2262 35.6983 59.6982 35.7268C59.1702 35.7554 58.6456 35.6267 58.1908 35.3571C57.7359 35.0875 57.3712 34.6891 57.1428 34.2122C57.0449 34.0124 56.8721 33.8592 56.6619 33.7862C56.4517 33.7132 56.2211 33.7261 56.0204 33.8223C55.8197 33.9184 55.6652 34.0899 55.5903 34.2995C55.5155 34.5091 55.5265 34.7397 55.6209 34.9412C56.0472 35.8294 56.7613 36.5472 57.6472 36.9781C58.5332 37.4089 59.5388 37.5274 60.5006 37.3143L60.9914 38.339C61.0881 38.5408 61.261 38.696 61.4721 38.7703C61.6832 38.8447 61.9151 38.8321 62.117 38.7354C62.3188 38.6387 62.4739 38.4658 62.5483 38.2547C62.6226 38.0437 62.6101 37.8117 62.5134 37.6099L62.0462 36.6348C62.945 36.0084 63.5751 35.0668 63.8112 33.9971C64.0473 32.9274 63.8721 31.808 63.3206 30.8615C62.769 29.915 61.8814 29.2109 60.8342 28.889C59.7871 28.5671 58.6572 28.6512 57.6693 29.1244H57.67Z" fill="#3C434A" />
  </g>
  <defs>
    <clipPath id="clip0_2_2809">
      <rect width="72" height="72" fill="white" transform="translate(0.666992)" />
    </clipPath>
  </defs>
</svg>