<svg width="18" height="21" viewBox="0 0 18 21" fill="none" xmlns="http://www.w3.org/2000/svg">
  <path d="M8.63902 0C3.89268 0 0 3.7561 0 8.33171C0 11.9854 5.22439 18.0293 7.47805 20.4878C7.78537 20.8293 8.19512 21 8.63902 21C9.08293 21 9.49268 20.8293 9.8 20.4878C12.0537 18.0634 17.278 11.9854 17.278 8.33171C17.278 3.72195 13.3854 0 8.63902 0ZM8.9122 19.6683C8.74146 19.839 8.50244 19.839 8.36585 19.6683C6.69268 17.8585 1.19512 11.6439 1.19512 8.33171C1.19512 4.37073 4.54146 1.19512 8.63902 1.19512C12.7366 1.19512 16.0829 4.40488 16.0829 8.33171C16.0829 11.6439 10.5854 17.8244 8.9122 19.6683Z" fill="white" />
  <path d="M8.63898 4.91699C6.62434 4.91699 4.95117 6.55602 4.95117 8.6048C4.95117 10.6194 6.5902 12.2926 8.63898 12.2926C10.6878 12.2926 12.3268 10.6536 12.3268 8.6048C12.3268 6.55602 10.6536 4.91699 8.63898 4.91699ZM8.63898 11.0633C7.27312 11.0633 6.14629 9.93651 6.14629 8.57065C6.14629 7.2048 7.27312 6.07797 8.63898 6.07797C10.0048 6.07797 11.1317 7.2048 11.1317 8.57065C11.1317 9.93651 10.0048 11.0633 8.63898 11.0633Z" fill="white" />
</svg>