<svg width="8" height="6" viewBox="0 0 8 6" fill="none" xmlns="http://www.w3.org/2000/svg">
  <path d="M3.34025 5.70121C3.30642 5.66825 3.16175 5.5438 3.04275 5.42787C2.29433 4.74821 1.06933 2.9752 0.695417 2.04721C0.635333 1.90628 0.508167 1.54997 0.5 1.3596C0.5 1.17718 0.542 1.00329 0.627167 0.837352C0.746167 0.6305 0.933417 0.464564 1.1545 0.37364C1.30792 0.315108 1.767 0.224184 1.77517 0.224184C2.27742 0.13326 3.0935 0.083252 3.99533 0.083252C4.85458 0.083252 5.63742 0.13326 6.14725 0.207704C6.15542 0.216228 6.72592 0.307152 6.92133 0.4066C7.27833 0.589016 7.5 0.945324 7.5 1.32664V1.3596C7.49125 1.60793 7.26958 2.13018 7.26142 2.13018C6.88692 3.00816 5.722 4.74026 4.94792 5.43639C4.94792 5.43639 4.749 5.63245 4.62475 5.71769C4.44625 5.85067 4.22517 5.91659 4.00408 5.91659C3.75733 5.91659 3.5275 5.84214 3.34025 5.70121Z" fill="#787D82" />
</svg>