<svg width="73" height="72" viewBox="0 0 73 72" fill="none" xmlns="http://www.w3.org/2000/svg">
  <path d="M61.3268 1.65034V1.65027C60.8299 1.64266 60.3444 1.79839 59.9447 2.09335C57.116 4.39451 53.5173 7.85757 51.0749 10.5519L51.0744 10.5525C50.7555 10.9035 50.5913 11.4792 50.6944 12.1012C51.0265 14.0694 51.3173 16.0431 51.596 17.9425L51.6435 18.2656L51.4125 18.4965L35.2889 34.6174L61.3268 1.65034ZM61.3268 1.65034H61.3367M61.3268 1.65034H61.3367M61.3367 1.65034C62.2631 1.65034 62.8988 2.09736 63.0164 2.63487L63.0163 2.63487L63.0174 2.63956C63.2964 3.8721 63.5585 5.19727 63.8148 6.57938L63.8153 6.58201C63.9219 7.14428 64.1954 7.66142 64.6001 8.06609C65.0047 8.47077 65.5219 8.74423 66.0841 8.85088L66.0873 8.85145C67.4671 9.10617 68.7924 9.36968 70.0267 9.64881L70.0323 9.65001C70.4612 9.74309 70.8257 10.1497 70.9625 10.8198C71.0974 11.4811 70.9603 12.2175 70.5754 12.7108M61.3367 1.65034L70.5754 12.7108M54.3957 21.0208L54.7178 21.0671C56.6199 21.3408 58.5944 21.6356 60.5624 21.9677M54.3957 21.0208L62.548 22.0687M54.3957 21.0208L54.1656 21.2509M54.3957 21.0208L54.1656 21.2509M60.5624 21.9677C60.5626 21.9677 60.5628 21.9678 60.563 21.9678L60.4549 22.6087L60.5613 21.9675C60.5617 21.9676 60.5621 21.9676 60.5624 21.9677ZM60.5624 21.9677C60.6842 21.9878 60.8073 21.9981 60.9307 21.9984L60.9435 21.9984L60.9435 21.9985C61.3733 22.008 61.7914 21.8592 62.1186 21.5807M62.1186 21.5807C62.1164 21.5827 62.1141 21.5847 62.1119 21.5867L62.548 22.0687M62.1186 21.5807C64.8133 19.1413 68.273 15.5387 70.5754 12.7108M62.1186 21.5807C62.1206 21.579 62.1225 21.5773 62.1245 21.5756L62.548 22.0687M62.548 22.0687L70.5754 12.7108M54.1656 21.2509L38.0433 37.3718C38.0431 37.3719 38.043 37.3721 38.0429 37.3722C37.6774 37.736 37.1826 37.9399 36.6669 37.9394C36.1511 37.9389 35.6565 37.7337 35.2917 37.3689C34.927 37.0042 34.7218 36.5096 34.7213 35.9938C34.7208 35.4784 34.9245 34.9838 35.2879 34.6184L54.1656 21.2509ZM60.224 8.21509L59.902 7.26696L59.1671 7.94713C57.7077 9.29785 56.2109 10.7656 54.9086 12.1452L54.6886 12.3782L54.7395 12.6946C54.9684 14.1173 55.1771 15.5244 55.3589 16.7551L55.4295 17.2329L55.9073 17.3032C57.1429 17.485 58.546 17.6936 59.9688 17.9226L60.286 17.9736L60.5192 17.7526C61.8907 16.4527 63.3636 14.9564 64.7163 13.495L65.3967 12.7599L64.4481 12.4379C63.4674 12.1051 62.5763 11.5511 61.8439 10.8189C61.1114 10.0866 60.5572 9.19575 60.224 8.21509Z" fill="#3C434A" stroke="white" stroke-width="1.3" />
  <path d="M71.017 35.9995V36.0004C71.017 54.972 55.6386 70.3503 36.667 70.3503C17.6967 70.3503 2.31699 54.968 2.31699 36.0004C2.31699 17.0328 17.6967 1.65038 36.667 1.65038L36.6676 1.65038C41.2278 1.64573 45.7397 2.55201 49.9395 4.31247C48.9915 5.26546 48.0863 6.21431 47.2763 7.10692L47.2748 7.10857C47.1986 7.1931 47.1247 7.27963 47.0532 7.36806C42.5724 5.74671 37.7715 5.198 33.0362 5.76908C28.1381 6.3598 23.4566 8.13097 19.3941 10.9304C15.3316 13.7298 12.0096 17.4738 9.71351 21.8405C7.41742 26.2073 6.21593 31.0663 6.2123 35.9999C6.20911 40.4698 7.18966 44.8857 9.08437 48.9342C10.9791 52.9827 13.7415 56.5646 17.1757 59.4259C20.6099 62.2871 24.6317 64.3575 28.9557 65.4902C33.2798 66.6229 37.8001 66.7902 42.196 65.9801C46.5919 65.17 50.7557 63.4024 54.3919 60.8027C58.0282 58.2031 61.0477 54.8351 63.2364 50.9376C65.4251 47.0402 66.7293 42.7088 67.0564 38.2509C67.3715 33.9561 66.7724 29.6451 65.3007 25.602C65.3866 25.5321 65.4707 25.4601 65.5531 25.386L65.5554 25.3839C66.4513 24.5694 67.3999 23.6642 68.3535 22.7163C70.1163 26.9194 71.0231 31.4354 71.017 35.9995Z" fill="#3C434A" stroke="white" stroke-width="1.3" />
  <path d="M36.6671 18.8689C38.7285 18.8658 40.7722 19.2353 42.7 19.9582L45.6651 16.9942C41.404 14.9782 36.5794 14.4497 31.9686 15.5095C27.0684 16.6359 22.7344 19.4817 19.7531 23.5304C16.7718 27.5791 15.3407 32.5624 15.7195 37.576C16.0984 42.5897 18.262 47.3014 21.8178 50.8562C25.3736 54.4109 30.086 56.5731 35.0998 56.9504C40.1135 57.3278 45.0964 55.8952 49.1442 52.9126C53.192 49.9301 56.0365 45.5953 57.1614 40.6948C58.2199 36.0835 57.6899 31.2588 55.6724 26.9983L52.7088 29.9618C53.9508 33.2557 54.1495 36.856 53.272 40.2723C52.3586 43.8288 50.3271 46.9979 47.4769 49.3128C44.6267 51.6277 41.1084 52.9661 37.4402 53.1309C33.7721 53.2956 30.148 52.278 27.1017 50.2279C24.0554 48.1778 21.7481 45.2036 20.5195 41.7434C19.2909 38.2832 19.206 34.5199 20.2773 31.0077C21.3486 27.4956 23.5195 24.4204 26.4703 22.2351C29.4209 20.0497 32.9954 18.8697 36.6671 18.8689ZM36.6671 18.8689C36.6672 18.8689 36.6673 18.8689 36.6674 18.8689L36.6675 19.5189L36.6665 18.8689C36.6667 18.8689 36.6669 18.8689 36.6671 18.8689Z" fill="#3C434A" stroke="white" stroke-width="1.3" />
</svg>