<svg width="256" height="457" viewBox="0 0 256 457" fill="none" xmlns="http://www.w3.org/2000/svg">
  <path opacity="0.2" d="M4.37957 2C4.37957 34.0831 -3.17013 46.5423 8.62568 76.8008C11.205 83.4172 20.5557 106.908 24.0666 113.045C30.477 124.25 34.6868 134.7 42.9816 144.661C53.4042 160.213 62.0636 168.519 71.5472 177.992C81.7299 188.163 95.0629 197.448 107.662 204.639C120.125 211.753 132.59 218.456 146.349 222.889C151.677 224.606 157.326 225.741 162.905 226.231C169.835 226.84 177.119 227.567 183.879 226.231C192.763 224.476 205.555 214.698 209.357 205.839C219.08 183.176 195.061 157.048 171.827 160.213C161.409 161.632 151.795 170.142 145.534 177.992C137.499 188.067 134.618 200.748 134.168 213.336C133.594 229.404 135.257 244.702 140.473 260.033C147.24 279.919 154.842 292.305 165.736 310.071C190.943 351.178 235.375 384.505 277.682 404.536C322.247 425.636 370.475 439.137 418.923 449.477C438.625 453.682 459.214 455.953 479.271 454.618C497.392 453.411 516.422 452.881 534 448.491" stroke="#6B6B6B" stroke-width="3" stroke-linecap="round" />
</svg>