<svg width="18" height="20" viewBox="0 0 18 20" fill="none" xmlns="http://www.w3.org/2000/svg">
  <path d="M16.8473 11.1759C16.7843 10.4518 16.1862 9.94812 15.4621 9.94812H2.05104C1.32697 9.94812 0.760308 10.4833 0.665863 11.1759L0.00475417 17.787C-0.0267272 18.1648 0.0991985 18.574 0.35105 18.8574C0.602901 19.1407 0.980677 19.2981 1.38994 19.2981H16.1547C16.5325 19.2981 16.9103 19.1407 17.1936 18.8574C17.4454 18.574 17.5714 18.1962 17.5399 17.787L16.8473 11.1759ZM16.3436 18.1333C16.3121 18.1648 16.2492 18.2277 16.1232 18.2277H1.38994C1.29549 18.2277 1.20105 18.1648 1.16957 18.1333C1.13808 18.1018 1.07512 18.0388 1.1066 17.9129L1.76771 11.2703C1.76771 11.1129 1.89364 11.0185 2.05104 11.0185H15.4936C15.651 11.0185 15.7454 11.1129 15.7769 11.2703L16.438 17.9129C16.4066 18.0074 16.3751 18.1018 16.3436 18.1333Z" fill="white" />
  <path d="M8.75741 12.4038C7.52963 12.4038 6.55371 13.3797 6.55371 14.6075C6.55371 15.8353 7.52963 16.8112 8.75741 16.8112C9.98518 16.8112 10.9611 15.8353 10.9611 14.6075C10.9611 13.3797 9.98518 12.4038 8.75741 12.4038ZM8.75741 15.7094C8.15926 15.7094 7.65556 15.2057 7.65556 14.6075C7.65556 14.0094 8.15926 13.5057 8.75741 13.5057C9.35555 13.5057 9.85926 14.0094 9.85926 14.6075C9.85926 15.2057 9.35555 15.7094 8.75741 15.7094Z" fill="white" />
  <path d="M0.759997 5.72961C0.82296 7.11479 2.05073 7.68146 2.68036 7.68146H4.88406C4.91554 7.68146 4.91554 7.68146 4.91554 7.68146C5.85998 7.6185 6.80442 6.98887 6.80442 5.72961V4.97406C7.84331 4.97406 10.2359 4.97406 11.2748 4.97406V5.72961C11.2748 6.98887 12.2192 7.6185 13.1637 7.68146H13.1951H15.3674C15.997 7.68146 17.2248 7.11479 17.2877 5.72961C17.2877 5.63517 17.2877 5.28887 17.2877 4.97406C17.2877 4.72221 17.2877 4.50184 17.2877 4.47036C17.2877 4.43888 17.2877 4.40739 17.2877 4.40739C17.1933 3.52592 16.8785 2.80184 16.3433 2.23518L16.3118 2.2037C15.5248 1.47962 14.5803 1.07037 13.8563 0.818516C11.747 0 9.10257 0 8.97664 0C7.11924 0.0314814 5.92294 0.188888 4.12851 0.818516C3.43592 1.03889 2.49147 1.44814 1.70444 2.17222L1.67296 2.2037C1.13777 2.77036 0.82296 3.49443 0.728516 4.37591C0.728516 4.40739 0.728516 4.43888 0.728516 4.43888C0.728516 4.50184 0.728516 4.69073 0.728516 4.94258C0.759997 5.22591 0.759997 5.60369 0.759997 5.72961ZM2.45999 2.95925C3.08962 2.39259 3.87665 2.04629 4.53776 1.79444C6.1748 1.19629 7.24516 1.07037 9.0396 1.03889C9.16553 1.03889 11.6211 1.07037 13.51 1.79444C14.1711 2.04629 14.9581 2.3611 15.5877 2.95925C15.934 3.33703 16.1544 3.84073 16.2174 4.43888C16.2174 4.53332 16.2174 4.69073 16.2174 4.94258C16.2174 5.25739 16.2174 5.60369 16.2174 5.69813C16.1859 6.4222 15.4933 6.57961 15.3988 6.57961H13.2266C12.9118 6.54813 12.4081 6.4222 12.4081 5.72961V4.43888C12.4081 4.18702 12.2507 3.99814 12.0303 3.90369C11.8414 3.84073 6.3322 3.84073 6.14332 3.90369C5.92295 3.96665 5.76554 4.18702 5.76554 4.43888V5.72961C5.76554 6.4222 5.26184 6.54813 4.94702 6.57961H2.77481C2.68036 6.57961 1.98777 6.4222 1.95629 5.69813C1.95629 5.60369 1.95629 5.25739 1.95629 4.94258C1.95629 4.69073 1.95629 4.5648 1.95629 4.47036C1.89333 3.84073 2.1137 3.33703 2.45999 2.95925Z" fill="white" />
</svg>