<svg width="647" height="166" viewBox="0 0 647 166" fill="none" xmlns="http://www.w3.org/2000/svg">
<path opacity="0.1" d="M-111.998 73.4395C-93.1887 88.0886 -76.4799 103.699 -53.4443 114.363C-36.9916 121.979 -19.178 126.454 -0.127157 126.9C35.3922 127.73 71.9424 123.512 104.96 112.896C138.699 102.048 174.125 92.6361 204.394 76.1835C232.537 60.8866 258.833 42.5748 288 28.5897C336.87 5.15725 396.476 2.00146 452.057 2.00146C481.462 2.00146 510.969 2.18531 540.364 2.85304C558.81 3.27207 577.673 5.4315 596.002 3.61" stroke="#6B6B6B" stroke-width="3" stroke-linecap="round"/>
<path opacity="0.2" d="M-120 106.152C-99.6763 121.973 -81.6224 138.831 -56.7322 150.349C-38.9549 158.574 -19.7071 163.408 0.877448 163.889C39.2564 164.786 78.7492 160.23 114.425 148.765C150.88 137.049 189.159 126.884 221.865 109.115C252.273 92.5945 280.686 72.8178 312.201 57.7138C365.005 32.4068 429.41 28.9985 489.467 28.9985C521.239 28.9985 553.121 29.1971 584.883 29.9182C604.814 30.3708 625.196 32.703 645 30.7358" stroke="#6B6B6B" stroke-width="3" stroke-linecap="round"/>
</svg>
