<svg width="18" height="16" viewBox="0 0 18 16" fill="none" xmlns="http://www.w3.org/2000/svg">
<path fill-rule="evenodd" clip-rule="evenodd" d="M4.58056 0.72612C5.96304 0.444307 7.45109 0.29134 8.99993 0.29134C10.5488 0.29134 12.0368 0.444307 13.4193 0.72612L13.5254 0.747719C15.1042 1.06908 16.1562 1.28321 17.0628 2.44877C17.9596 3.60183 17.9591 4.939 17.9583 7.01V8.98935C17.9591 11.0603 17.9596 12.3975 17.0628 13.5506C16.1562 14.7161 15.1042 14.9303 13.5254 15.2516L13.4193 15.2732C12.0368 15.555 10.5488 15.708 8.99993 15.708C7.45109 15.708 5.96304 15.555 4.58056 15.2732L4.47449 15.2516C2.89563 14.9303 1.84363 14.7161 0.937085 13.5506C0.0402705 12.3975 0.0407721 11.0603 0.0415489 8.98934L0.0415489 7.01C0.0407721 4.939 0.0402705 3.60183 0.937085 2.44877C1.84363 1.28321 2.89563 1.06908 4.47448 0.747722L4.47449 0.747719L4.58056 0.72612ZM10.0108 5.70942L10.0108 5.70944C10.0953 5.75663 10.1802 5.80349 10.2652 5.85041C10.6847 6.082 11.1066 6.31493 11.4957 6.5947C11.8453 6.84613 12.1771 7.15771 12.2869 7.6121C12.3486 7.86718 12.3486 8.13216 12.2869 8.38725C12.1771 8.84164 11.8453 9.15322 11.4957 9.40465C11.1066 9.68444 10.6846 9.91739 10.2651 10.149C10.1801 10.1959 10.0953 10.2427 10.0108 10.2899C9.36903 10.6483 8.84415 10.9415 8.41204 11.1228C7.70954 11.4176 6.9646 11.4415 6.35234 10.9398C5.96914 10.6259 5.83368 10.1763 5.77425 9.72324C5.63062 8.62831 5.63056 7.37149 5.77425 6.2761C5.83368 5.82306 5.96914 5.37349 6.35234 5.05952C6.9646 4.55787 7.70954 4.58172 8.41203 4.87654C8.84414 5.05789 9.36901 5.35102 10.0108 5.70942Z" fill="#3C434A"/>
</svg>
