<svg width="26" height="27" viewBox="0 0 26 27" fill="none" xmlns="http://www.w3.org/2000/svg">
<path d="M11.6963 3.656C12.3707 2.98151 13.2989 2.62359 14.2516 2.67062L20.3222 2.97026C22.0571 3.05589 23.4443 4.44309 23.5299 6.17793L23.8295 12.2485C23.8766 13.2012 23.5187 14.1294 22.8442 14.8039L14.6342 23.0139C12.8751 24.7729 10.0231 24.7729 8.26398 23.0139L3.48631 18.2362C1.72722 16.4771 1.72722 13.625 3.48631 11.8659L11.6963 3.656Z" stroke="#595F67" stroke-width="1.5"/>
<path d="M18.9592 7.5415L18.9495 7.5415" stroke="#595F67" stroke-width="2" stroke-linecap="round" stroke-linejoin="round"/>
<path d="M14.0645 13.7236L10.8344 15.6667M10.8344 15.6667L7.60423 17.6097M10.8344 15.6667L10.8542 19.4583M10.8344 15.6667L10.8145 11.875M10.8344 15.6667L14.084 17.5152M10.8344 15.6667L7.58398 13.8179" stroke="#595F67" stroke-width="1.5" stroke-linecap="round" stroke-linejoin="round"/>
</svg>
