<svg width="22" height="23" viewBox="0 0 22 23" fill="none" xmlns="http://www.w3.org/2000/svg">
  <path d="M17.9905 18.5H18M17.9905 18.5C17.3678 19.1175 16.2393 18.9637 15.4479 18.9637C14.4765 18.9637 14.0087 19.1537 13.3154 19.847C12.7251 20.4374 11.9337 21.5 11 21.5C10.0663 21.5 9.27492 20.4374 8.68457 19.847C7.99128 19.1537 7.52349 18.9637 6.55206 18.9637C5.76068 18.9637 4.63218 19.1175 4.00949 18.5C3.38181 17.8776 3.53628 16.7444 3.53628 15.9479C3.53628 14.9414 3.31616 14.4786 2.59938 13.7618C1.53314 12.6956 1.00002 12.1624 1 11.5C1.00001 10.8375 1.53312 10.3044 2.59935 9.23817C3.2392 8.59832 3.53628 7.96428 3.53628 7.05206C3.53628 6.26065 3.38249 5.13214 4 4.50944C4.62243 3.88178 5.7556 4.03626 6.55208 4.03626C7.46427 4.03626 8.09832 3.7392 8.73815 3.09937C9.8044 2.03312 10.3375 1.5 11 1.5C11.6625 1.5 12.1956 2.03312 13.2618 3.09937C13.9015 3.73907 14.5355 4.03626 15.4479 4.03626C16.2393 4.03626 17.3679 3.88247 17.9906 4.5C18.6182 5.12243 18.4637 6.25559 18.4637 7.05206C18.4637 8.05858 18.6839 8.52137 19.4006 9.23817C20.4669 10.3044 21 10.8375 21 11.5C21 12.1624 20.4669 12.6956 19.4006 13.7618C18.6838 14.4786 18.4637 14.9414 18.4637 15.9479C18.4637 16.7444 18.6182 17.8776 17.9905 18.5Z" stroke="#1C96E8" stroke-width="1.5" />
  <path d="M8 12.3929C8 12.3929 9.2 13.0447 9.8 14C9.8 14 11.6 10.25 14 9" stroke="#1C96E8" stroke-width="1.5" stroke-linecap="round" stroke-linejoin="round" />
</svg>