<svg width="73" height="72" viewBox="0 0 73 72" fill="none" xmlns="http://www.w3.org/2000/svg">
  <path d="M5.6207 34.6191C6.94778 36.3116 9.29664 36.7604 11.1491 35.6987L15.9517 41.819L12.7785 44.3871C11.1921 45.6709 10.9462 47.9934 12.2308 49.5809C12.6681 50.1212 13.2337 50.4854 13.8439 50.7065C12.6304 52.0313 12.5224 54.0766 13.6857 55.514C14.8142 56.9082 16.7702 57.2785 18.3218 56.4329C18.4028 57.1172 18.6669 57.7681 19.1109 58.3168C20.3959 59.9044 22.7267 60.1422 24.3047 58.8646L24.691 58.552C24.7384 59.2891 25.0035 59.9934 25.4778 60.5792C26.7294 62.1272 28.9995 62.3642 30.5428 61.1135L31.1486 60.6232L31.8437 61.509C33.2777 63.3377 35.9188 63.6519 37.742 62.221C38.523 61.6085 39.0512 60.7594 39.2557 59.8006C40.5932 60.3127 42.1504 60.1278 43.3552 59.1818C44.0683 58.6223 44.571 57.8654 44.8085 57.0082C46.2197 57.7202 47.9777 57.6043 49.2997 56.5656C50.2832 55.7939 50.8294 54.668 50.8984 53.5089C52.1338 53.7274 53.3175 53.4133 54.2499 52.6814C56.0723 51.2517 56.3917 48.605 54.9671 46.789L52.8112 43.9987C52.6041 43.9942 52.4006 43.9528 52.2044 43.8921L61.2483 36.3906C62.7675 37.0867 64.4548 36.8485 65.6939 35.889L68.423 33.7736C69.3344 33.0678 69.9166 32.0487 70.0618 30.9048C70.2067 29.761 69.8974 28.6291 69.1916 27.7183L55.8909 10.5529C54.4333 8.67186 51.7171 8.32719 49.8361 9.78463L47.1061 11.8996C46.1947 12.606 45.6129 13.6245 45.4676 14.7684C45.3228 15.9122 45.632 17.0441 46.3378 17.9549L47.3498 19.2609L44.6021 22.1844L31.3383 24.6719L29.0116 21.7067C30.7369 20.121 30.846 17.6055 29.4954 15.8854L27.3615 13.1655C25.8914 11.2907 23.1797 10.9619 21.3046 12.435L4.21684 25.8423C2.3461 27.3111 2.01845 30.0284 3.48671 31.8997L5.6207 34.6191ZM14.1059 46.0275L18.8717 42.1706C19.5441 41.6271 20.5413 41.7179 21.0979 42.405C21.6472 43.0835 21.5414 44.0821 20.8635 44.6312L16.0977 48.4881C15.419 49.0362 14.4237 48.9355 13.8714 48.2537C13.3222 47.5752 13.4278 46.5768 14.1059 46.0275ZM15.3264 54.187C14.7771 53.5085 14.8828 52.5099 15.5608 51.9607L22.4507 46.3845C23.1232 45.841 24.1203 45.9319 24.6769 46.619C25.2271 47.2992 25.1223 48.2945 24.4425 48.8452L17.5526 54.4214C16.8735 54.9691 15.8751 54.8645 15.3264 54.187ZM22.9779 57.2242C22.2915 57.7777 21.299 57.6655 20.7517 56.9898C20.2024 56.3113 20.3081 55.3127 20.9861 54.7635L25.7519 50.9066C26.4243 50.3631 27.4215 50.4539 27.9781 51.141C28.5274 51.8196 28.4216 52.8181 27.7437 53.3673L22.9779 57.2242ZM27.1186 59.252C26.601 58.6119 26.6988 57.6728 27.3397 57.1546L29.4783 55.4239C30.1217 54.9032 31.0613 55.0092 31.5757 55.6444C32.0929 56.2838 31.9935 57.225 31.3542 57.7424L29.2156 59.4731C28.5852 59.9837 27.643 59.9004 27.1186 59.252ZM53.3024 48.0853C54.014 48.9926 53.8548 50.3094 52.9479 51.0215C52.0291 51.7421 50.7184 51.5674 50.0122 50.667L44.1857 43.2423C43.825 42.7833 43.1619 42.7038 42.7045 43.0635C42.2459 43.4231 42.166 44.0867 42.5258 44.5447L48.3523 51.9695C49.0651 52.8785 48.9072 54.1925 47.9978 54.9057C47.0904 55.6167 45.7746 55.4575 45.0621 54.5512L39.236 47.1265C38.8758 46.6669 38.2122 46.5886 37.7548 46.9477C37.2962 47.3073 37.2163 47.9705 37.576 48.4289L42.4072 54.5863C43.1188 55.4937 42.96 56.81 42.0533 57.522C41.1513 58.2302 39.835 58.083 39.1176 57.1681L33.6228 50.1652C33.2621 49.7062 32.6 49.6279 32.1416 49.9865C31.683 50.3461 31.6031 51.0093 31.9623 51.4677L36.794 57.6251C37.507 58.5341 37.3492 59.8474 36.4401 60.5614C35.5339 61.2729 34.219 61.1181 33.5044 60.2068L32.7812 59.2852C34.2269 58.0186 34.4355 55.8241 33.2164 54.3168C32.4853 53.4144 31.4037 52.9718 30.3234 52.9983C30.6157 51.7778 30.3081 50.6659 29.6186 49.8138C28.9528 48.9919 28.0043 48.5391 27.0248 48.4647C27.3113 47.2519 27.0081 46.1451 26.3176 45.2917C25.6693 44.4906 24.7222 43.96 23.5093 43.9398C23.6755 42.8114 23.3503 41.8339 22.7384 41.0778C21.4691 39.5108 19.1768 39.2592 17.5959 40.4964L12.8414 34.437L27.372 23.035L29.5631 25.8278C26.5136 29.9081 25.2341 35.338 26.7812 38.0338C28.3741 40.8085 32.3607 39.977 34.3787 37.3135L37.759 32.8719L40.979 33.4138L42.1147 33.6061C42.8471 34.554 39.4684 30.1809 49.3123 42.9222C49.3137 42.924 49.3156 42.9253 49.317 42.927L53.3024 48.0853ZM48.3981 13.5679L51.1282 11.4529C52.1005 10.6997 53.4831 10.8909 54.2227 11.8449L67.524 29.0103C67.8851 29.4761 68.0427 30.0546 67.9686 30.6389C67.8944 31.2236 67.5971 31.7445 67.1309 32.1052L64.4018 34.2206C63.4403 34.9661 62.0524 34.7889 61.3069 33.828C45.9798 12.3564 51.2662 19.7621 50.1225 18.16C49.8526 17.7773 49.3544 17.6055 48.8781 17.7882L48.0061 16.6627C47.261 15.7009 47.4367 14.3129 48.3981 13.5679ZM45.3294 24.1952C45.5493 24.154 45.7509 24.0437 45.9039 23.8809L48.6584 20.9498C49.7665 22.397 44.6443 15.7073 59.4958 35.1033L51.3255 41.8799C40.6708 28.3551 44.3151 32.9811 43.5329 31.9883C43.3706 31.7781 43.1347 31.6369 42.873 31.5926L37.4807 30.6847C37.0948 30.6209 36.7032 30.7743 36.4657 31.0866L32.6979 36.0373C31.639 37.4349 29.3884 38.3361 28.6118 36.9833C27.5828 35.1909 28.622 30.4221 31.4774 26.7929L45.3294 24.1952ZM5.51973 27.5024L22.6074 14.0949C23.5609 13.346 24.9466 13.5067 25.7012 14.468L27.8352 17.1884C28.5867 18.1456 28.4208 19.5305 27.4621 20.2823L10.3751 33.6902C9.40323 34.4525 8.02131 34.2611 7.28064 33.3167L5.14665 30.5974C4.39656 29.641 4.56404 28.2526 5.51973 27.5024Z" fill="#3C434A" />
</svg>