<svg width="17" height="17" viewBox="0 0 17 17" fill="none" xmlns="http://www.w3.org/2000/svg">
  <path d="M3.20984 16.5C2.97669 16.5 2.74451 16.4358 2.53772 16.3079C2.15772 16.0731 1.93103 15.6663 1.93103 15.2195V13.3445C0.593018 11.6493 0.0147709 9.53235 0.301514 7.35998C0.761231 3.87463 3.62586 1.01794 7.11243 0.567869C9.56824 0.250608 11.9789 1.05554 13.7289 2.77502C15.479 4.49451 16.3258 6.88891 16.0526 9.3446C15.6567 12.901 12.7849 15.8268 9.22449 16.3018C7.80505 16.49 6.36951 16.2935 5.05249 15.7294L3.78284 16.3638C3.60095 16.4546 3.40491 16.5 3.20984 16.5Z" fill="#D0D5DD" />
</svg>