<svg width="63" height="72" viewBox="0 0 63 72" fill="none" xmlns="http://www.w3.org/2000/svg">
  <path d="M14.5483 65.1918C12.3785 64.3519 10.3487 63.6345 8.38889 62.7596C7.1465 62.1996 5.99161 61.4122 4.80173 60.7298C4.24178 60.3973 4.0143 59.9073 4.0143 59.2599C4.0318 56.5827 3.96181 53.9054 4.0318 51.2457C4.11929 48.131 5.18669 45.1563 7.164 42.724C8.35389 41.2716 9.78875 40.0467 11.3461 39.0143C14.0408 37.212 17.0156 36.0571 20.1653 35.3047C20.5327 35.2172 21.0227 35.3047 21.3726 35.4622C27.1296 38.2094 32.8516 38.1919 38.626 35.4972C39.046 35.3047 39.6234 35.2522 40.0609 35.3572C43.0531 36.0746 45.8878 37.212 48.4951 38.8918C48.74 39.0493 48.9675 39.2418 49.335 39.5043C34.0764 38.0694 24.9073 55.2528 34.5139 67.0467C31.7142 67.0467 29.0894 67.1866 26.4822 67.0117C24.4349 66.8717 22.405 66.7317 20.3752 66.4342C18.3454 66.1367 16.7181 65.8393 14.4783 65.1568" stroke="#3C434A" stroke-width="2.02077" stroke-miterlimit="10" />
  <path d="M44.2258 18.2261C44.2258 26.0129 37.8564 32.4348 30.0697 32.4348C22.1604 32.4348 15.791 26.0654 15.791 18.1736C15.791 10.4044 22.1954 4.0175 29.9822 4C37.8039 4 44.2083 10.3694 44.2258 18.2086V18.2261Z" stroke="#3C434A" stroke-width="2.02077" stroke-miterlimit="10" />
  <path d="M42.668 56.04L46.2201 59.5922L54.1119 51.7004" stroke="#3C434A" stroke-width="2.02077" stroke-linecap="round" stroke-linejoin="round" />
  <path d="M59.204 56.1625C59.204 62.6894 53.867 68.0614 47.3576 68.0614C40.7432 68.0614 35.4062 62.7419 35.4062 56.1275C35.4062 49.6182 40.7607 44.2812 47.2876 44.2637C53.832 44.2637 59.1865 49.5832 59.204 56.1625Z" stroke="#3C434A" stroke-width="2.02077" stroke-miterlimit="10" />
</svg>