<svg width="72" height="72" viewBox="0 0 72 72" fill="none" xmlns="http://www.w3.org/2000/svg">
  <g clip-path="url(#clip0_2_2746)">
    <mask id="mask0_2_2746" style="mask-type:luminance" maskUnits="userSpaceOnUse" x="0" y="0" width="72" height="72">
      <path d="M0 7.62939e-06H72V72H0V7.62939e-06Z" fill="white" />
    </mask>
    <g mask="url(#mask0_2_2746)">
      <path d="M44.4375 10.5469C44.4375 15.2068 40.6599 18.9844 36 18.9844C31.3401 18.9844 27.5625 15.2068 27.5625 10.5469C27.5625 5.88698 31.3401 2.10938 36 2.10938C40.6599 2.10938 44.4375 5.88698 44.4375 10.5469Z" stroke="#3C434A" stroke-width="3" stroke-miterlimit="10" />
      <path d="M6.32656 47.6774C10.3622 45.3474 15.5225 46.7301 17.8525 50.7657C20.1823 54.8013 18.7997 59.9615 14.7641 62.2916C10.7285 64.6214 5.56817 63.2388 3.2383 59.2032C0.908279 55.1676 2.29105 50.0073 6.32656 47.6774Z" stroke="#3C434A" stroke-width="3" stroke-miterlimit="10" />
      <path d="M57.2358 62.2915C53.2002 59.9616 51.8175 54.8012 54.1474 50.7657C56.4774 46.7301 61.6377 45.3474 65.6733 47.6773C69.7088 50.0073 71.0916 55.1676 68.7616 59.2032C66.4317 63.2387 61.2713 64.6215 57.2358 62.2915Z" stroke="#3C434A" stroke-width="3" stroke-miterlimit="10" />
      <path d="M6.51367 38.5691C7.04509 28.9167 12.2119 20.4998 19.8255 15.5066" stroke="#3C434A" stroke-width="3" stroke-miterlimit="10" />
      <path d="M52.1738 15.5066C59.7875 20.4999 64.9543 28.9169 65.4857 38.5691" stroke="#3C434A" stroke-width="3" stroke-miterlimit="10" />
      <path d="M49.311 66.7278C45.3114 68.7509 40.7889 69.8906 36.0003 69.8906C31.2116 69.8906 26.6893 68.7509 22.6895 66.7278" stroke="#3C434A" stroke-width="3" stroke-miterlimit="10" />
    </g>
  </g>
  <defs>
    <clipPath id="clip0_2_2746">
      <rect width="72" height="72" fill="white" />
    </clipPath>
  </defs>
</svg>