<svg width="18" height="18" viewBox="0 0 18 18" fill="none" xmlns="http://www.w3.org/2000/svg">
  <path d="M12.268 4.62697C11.5384 4.6269 10.8895 4.62685 10.3657 4.6973C9.7963 4.77387 9.22138 4.95045 8.7515 5.42047C8.28163 5.8905 8.10511 6.4656 8.02856 7.03514C7.95813 7.55914 7.95819 8.20819 7.95825 8.93806L7.95825 9.62854H7.33325C6.75796 9.62854 6.29159 10.0951 6.29159 10.6705C6.29159 11.246 6.75796 11.7125 7.33325 11.7125H7.95825V16.7104C7.95825 17.1056 7.95825 17.3033 7.83434 17.4257C7.71043 17.548 7.51434 17.5456 7.12217 17.5406C6.13097 17.528 5.28804 17.4933 4.57327 17.3972C3.42606 17.2429 2.51585 16.9202 1.80068 16.2048C1.08552 15.4895 0.762986 14.579 0.608747 13.4314C0.458233 12.3115 0.458242 10.8772 0.458252 9.05102V8.95568C0.458242 7.12952 0.458233 5.69516 0.608747 4.5753C0.762986 3.42772 1.08552 2.51722 1.80068 1.80183C2.51585 1.08644 3.42606 0.763814 4.57327 0.609526C5.69278 0.458965 7.1267 0.458973 8.95227 0.458985H9.04756C10.8731 0.458973 12.3071 0.458965 13.4266 0.609526C14.5738 0.763814 15.484 1.08644 16.1992 1.80183C16.9143 2.51722 17.2369 3.42772 17.3911 4.5753C17.5416 5.69516 17.5416 7.12953 17.5416 8.95568V9.05102C17.5416 10.8772 17.5416 12.3115 17.3911 13.4314C17.2369 14.579 16.9143 15.4895 16.1992 16.2048C15.484 16.9202 14.5738 17.2429 13.4266 17.3972C12.7118 17.4933 11.8689 17.528 10.8777 17.5406C10.4855 17.5456 10.2894 17.548 10.1655 17.4257C10.0416 17.3033 10.0416 17.1056 10.0416 16.7104V11.7125H11.4999C12.0752 11.7125 12.5416 11.246 12.5416 10.6705C12.5416 10.0951 12.0752 9.62854 11.4999 9.62854H10.0416V9.00335C10.0416 8.18797 10.0438 7.68126 10.0933 7.31283C10.138 6.9803 10.204 6.91461 10.2236 6.89508L10.2246 6.89407L10.2256 6.89307C10.2452 6.87343 10.3108 6.80741 10.6433 6.76271C11.0116 6.71317 11.5181 6.71096 12.3333 6.71096H13.1666C13.7419 6.71096 14.2083 6.24444 14.2083 5.66896C14.2083 5.09349 13.7419 4.62697 13.1666 4.62697L12.268 4.62697Z" fill="#3C434A" />
</svg>