<svg width="19" height="18" viewBox="0 0 19 18" fill="none" xmlns="http://www.w3.org/2000/svg">
  <path d="M8.485 12.4731C8.4415 12.4307 8.2555 12.2707 8.1025 12.1217C7.14025 11.2478 5.56525 8.96822 5.0845 7.77509C5.00725 7.59389 4.84375 7.13578 4.83325 6.89101C4.83325 6.65648 4.88725 6.4329 4.99675 6.21956C5.14975 5.9536 5.3905 5.74026 5.67475 5.62336C5.872 5.5481 6.46225 5.4312 6.47275 5.4312C7.1185 5.3143 8.16775 5.25 9.32725 5.25C10.432 5.25 11.4385 5.3143 12.094 5.41001C12.1045 5.42097 12.838 5.53787 13.0893 5.66573C13.5483 5.90027 13.8333 6.35838 13.8333 6.84864V6.89101C13.822 7.2103 13.537 7.88176 13.5265 7.88176C13.045 9.01059 11.5473 11.2376 10.552 12.1326C10.552 12.1326 10.2963 12.3847 10.1365 12.4943C9.907 12.6652 9.62275 12.75 9.3385 12.75C9.02125 12.75 8.72575 12.6543 8.485 12.4731" fill="#1E272F" />
</svg>