<svg width="428" height="293" viewBox="0 0 428 293" fill="none" xmlns="http://www.w3.org/2000/svg">
<g clip-path="url(#clip0_2_1915)">
<path d="M191.96 0.38546C196.787 -0.750677 202.118 0.652787 205.747 4.04063C210.882 8.61089 212.234 16.7746 208.79 22.7329C205.254 29.5857 196.15 32.6189 189.174 29.3698C182.06 26.3984 178.194 17.6023 180.872 10.3588C182.492 5.38241 186.876 1.53188 191.96 0.38546ZM199.866 6.58023C198.226 7.3308 196.494 7.90144 194.942 8.81652C194.931 9.04786 194.916 9.51054 194.906 9.73674C196.767 8.91934 198.72 8.27673 200.488 7.26911C201.27 6.9401 200.329 6.1484 199.866 6.58023ZM198.468 9.89097C196.993 10.7803 198.314 13.3456 199.949 12.4614C201.851 11.6183 200.19 8.60575 198.468 9.89097ZM187.123 13.3971C186.357 13.9728 185.324 14.379 185.067 15.3969C186.542 15.4483 187.509 14.1682 188.691 13.4845C189.462 12.8521 190.768 12.5128 190.721 11.2996C189.339 11.644 188.29 12.6465 187.123 13.3971ZM188.814 15.2118C187.339 16.1217 188.763 18.7693 190.356 17.7411C192.243 16.9391 190.485 13.8752 188.814 15.2118ZM202.822 16.1937C199.625 17.5663 196.54 19.1754 193.451 20.7742C192.742 21.1033 192.176 21.6379 191.652 22.2034C193.59 23.9153 196.54 23.8588 198.879 23.0979C201.578 22.1469 203.537 19.7049 204.215 16.9648C204.246 16.168 203.459 15.8441 202.822 16.1937Z" fill="#FFDE1A"/>
<path d="M52.2429 188.018C54.8645 186.769 57.81 186.29 60.6938 186.63C63.6496 187.118 66.4203 188.475 68.5484 190.583C68.0344 190.645 67.0011 190.763 66.4871 190.82C67.0937 191.94 68.5227 191.658 69.5662 191.951C68.9545 192.747 68.2194 193.436 67.4227 194.048C67.4381 194.968 67.4638 195.888 67.4895 196.809C68.7643 196.927 70.0546 196.932 71.3294 196.757C71.792 197.066 72.2496 197.374 72.7173 197.693C72.7328 200.191 72.9692 202.772 72.0439 205.163C70.2293 210.802 64.5389 214.93 58.5965 214.781C55.3426 214.817 52.2017 213.558 49.6469 211.589C51.3227 210.365 52.685 208.684 53.0448 206.592C51.4307 204.952 49.0044 207.61 47.5496 205.682C48.2642 205.075 49.0352 204.546 49.7909 204.001C48.1665 203.728 46.4958 203.368 44.8509 203.703C43.427 197.559 46.6603 190.866 52.2429 188.018ZM61.3826 193.704C60.1078 193.272 58.4268 193.061 57.7843 194.567C57.4193 196.68 59.7274 197.76 61.3826 198.274C62.164 198.408 63.3771 198.999 63.8243 198.001C64.7805 196.315 65.8702 194.141 64.8781 192.244C63.5467 191.041 61.4751 191.94 61.3826 193.704ZM51.4769 197.929C50.5003 197.914 49.3488 197.446 48.5263 198.212C47.6267 199.071 48.0174 200.721 49.0352 201.328C50.3512 202.196 51.9036 202.839 53.5023 202.818C54.6486 201.986 55.1164 200.392 55.4711 199.05C55.8926 197.744 55.065 195.606 53.4252 195.966C52.3405 196.048 51.9601 197.133 51.4769 197.929ZM64.8987 202.15C63.9528 203.847 62.8065 205.769 60.7195 206.15C59.3007 206.607 57.8871 206.052 56.5095 205.713C55.7795 205.106 55.0855 206.648 55.9029 206.864C59.1928 208.859 63.8912 207.435 65.5515 203.97C66.0964 203.286 66.1427 201.723 64.8987 202.15Z" fill="#FFDE1A"/>
<path d="M72.2344 240.527C82.9317 236.358 93.9066 232.903 104.671 228.898L104.702 229.381C103.797 232.039 101.535 234.003 100.306 236.527C98.3685 239.617 96.5025 242.748 94.4 245.724C93.7009 246.824 92.2308 247.128 91.0279 246.83C88.7764 246.29 86.6328 245.38 84.4481 244.634C80.3974 243.195 76.2388 242.09 72.2344 240.527Z" fill="#FFDE1A"/>
<path d="M93.5314 247.858C94.3899 247.462 94.8885 246.583 95.6236 246.007C98.7027 246.871 101.725 247.961 104.748 249.015C107.508 250.274 110.557 250.68 113.338 251.893C107.349 254.304 101.165 256.237 95.0992 258.458C90.1438 260.093 85.3015 262.093 80.2793 263.532C81.3999 260.561 83.8828 258.361 85.2964 255.523C86.9619 253.071 88.3909 250.454 90.2158 248.12C91.3159 247.976 92.4468 248.156 93.5314 247.858Z" fill="#FFDE1A"/>
<path d="M199.866 6.58044C200.328 6.1486 201.269 6.9403 200.488 7.26932C198.719 8.27693 196.766 8.91955 194.905 9.73695C194.916 9.51075 194.931 9.04807 194.941 8.81673C196.494 7.90165 198.226 7.33101 199.866 6.58044Z" fill="#0D266D"/>
<path d="M187.123 13.3973C188.289 12.6467 189.338 11.6442 190.721 11.2998C190.767 12.5131 189.462 12.8524 188.69 13.4847C187.508 14.1684 186.542 15.4485 185.066 15.3971C185.323 14.3792 186.357 13.9731 187.123 13.3973Z" fill="#0D266D"/>
<path d="M18.4439 174.343C21.1272 169.958 25.6456 166.807 30.6884 165.804C32.025 170.287 32.2871 175.048 31.5983 179.664C31.2847 181.921 30.087 183.874 29.0383 185.849C28.2056 187.298 27.4962 188.815 26.7046 190.285C25.6713 192.167 24.1138 193.668 22.6899 195.246C24.0058 195.621 25.3269 195.981 26.612 196.454C30.9249 198.202 35.2891 199.904 39.2679 202.346C40.26 202.973 41.067 203.837 41.8484 204.7C41.7353 206.165 41.4834 207.636 40.7021 208.905C39.3193 209.055 37.9211 209.317 36.5229 209.168C32.7343 208.767 28.8944 208.443 25.2704 207.178C23.5946 206.53 21.9394 205.821 20.3098 205.065C19.4925 204.664 18.6803 204.248 17.8784 203.821C16.3465 202.993 14.8661 202.058 13.4884 200.983C12.2702 199.971 10.985 198.701 11.0056 196.994C10.7126 188.851 13.7866 180.918 18.4439 174.343Z" fill="#0D266D"/>
<path d="M198.468 9.89106C200.19 8.60584 201.85 11.6184 199.949 12.4615C198.314 13.3457 196.993 10.7804 198.468 9.89106Z" fill="#2F4263"/>
<path d="M188.815 15.2118C190.486 13.8752 192.244 16.9391 190.357 17.7411C188.764 18.7693 187.34 16.1217 188.815 15.2118Z" fill="#2F4263"/>
<path d="M64.8987 202.15C66.1427 201.723 66.0964 203.286 65.5515 203.97C63.8912 207.435 59.1928 208.859 55.9029 206.864C55.0856 206.648 55.7795 205.106 56.5095 205.713C57.8871 206.052 59.3007 206.607 60.7195 206.15C62.8065 205.769 63.9529 203.847 64.8987 202.15Z" fill="#2F4263"/>
<path d="M377.557 10.549C378.43 9.8087 379.587 10.9808 378.944 11.8702C377.587 14.9907 376.251 18.1215 374.853 21.2163C374.339 22.224 372.498 21.1187 373.31 20.1316C374.709 16.934 375.989 13.6695 377.557 10.549Z" fill="white"/>
<path d="M385.642 15.5975C386.408 14.7132 387.817 16.0704 386.938 16.8775C384.275 19.1498 381.633 21.4684 378.872 23.6172C378.081 24.5066 376.811 22.7124 377.788 22.2035C380.327 19.9158 382.99 17.7566 385.642 15.5975Z" fill="white"/>
<path d="M202.822 16.1938C203.459 15.8442 204.246 16.1681 204.215 16.9649C203.536 19.705 201.578 22.1469 198.879 23.098C196.54 23.8588 193.589 23.9154 191.651 22.2035C192.176 21.638 192.741 21.1033 193.451 20.7743C196.54 19.1755 199.624 17.5664 202.822 16.1938Z" fill="white"/>
<path d="M389.405 23.5452C390.058 23.3807 390.783 23.0466 391.379 23.5761C391.724 24.2033 391.451 25.0618 390.675 25.1338C387.39 26.0591 384.131 27.0667 380.826 27.9047C379.86 28.2697 379.294 26.383 380.348 26.1876C383.34 25.2212 386.393 24.45 389.405 23.5452Z" fill="white"/>
<path d="M104.063 32.6599C106.134 32.2589 108.242 34.4797 107.45 36.5361C106.859 39.1014 102.901 39.4613 101.842 37.0759C100.793 35.3177 102.109 32.958 104.063 32.6599Z" fill="white"/>
<path d="M113.748 32.6702C115.891 32.2023 117.855 34.5466 117.104 36.5824C116.549 38.9369 112.894 39.523 111.707 37.3895C110.427 35.6622 111.655 32.9478 113.748 32.6702Z" fill="white"/>
<path d="M123.551 32.6599C125.602 32.2949 127.458 34.4952 126.769 36.4693C126.311 38.685 123.124 39.523 121.659 37.7802C119.901 36.1403 121.063 32.7216 123.551 32.6599Z" fill="white"/>
<path d="M319.602 34.5211C319.525 32.5213 322.44 31.7655 323.545 33.2872C324.712 35.6212 323.422 38.4744 324.331 40.7981C327.082 40.9369 329.847 40.8546 332.602 40.7878C332.808 38.459 332.402 36.0736 332.89 33.7808C333.368 32.11 335.867 32.1048 336.689 33.4569C337.183 34.228 337.09 35.1842 337.147 36.0582C337.142 40.6798 337.136 45.3015 337.157 49.918C337.106 51.1827 337.255 52.6684 336.252 53.6298C335.039 54.4574 333.045 53.9691 332.793 52.3857C332.459 49.8358 332.798 47.2499 332.618 44.6897C329.801 44.5509 326.984 44.5458 324.172 44.6897C323.941 47.2756 324.424 49.918 323.848 52.4628C323.509 53.9948 321.335 54.5346 320.265 53.4395C319.474 52.6633 319.602 51.4552 319.551 50.4475C319.571 45.1421 319.489 39.8316 319.602 34.5262V34.5211Z" fill="white"/>
<path d="M342.951 32.6189C343.733 32.439 344.73 32.4184 345.3 33.0919C346.077 33.863 345.871 35.0609 345.958 36.053C345.928 40.8546 345.974 45.6562 345.964 50.4578C345.943 51.5734 345.938 52.8792 344.997 53.6606C343.655 54.514 341.502 53.6606 341.527 51.9487C341.388 46.4839 341.538 41.014 341.466 35.5441C341.373 34.408 341.676 32.9479 342.951 32.6189Z" fill="white"/>
<path d="M352.204 32.6239C353.217 32.2435 354.568 32.5982 354.949 33.7035C355.499 35.8113 354.995 37.991 354.892 40.1245C354.676 42.1757 354.738 44.2732 354.219 46.2833C354.065 47.2909 352.636 47.6199 351.906 47.0441C351.171 45.9286 351.248 44.5354 351.124 43.2656C350.986 40.5101 350.785 37.7546 350.703 34.999C350.61 33.9811 351.201 32.9221 352.204 32.6239Z" fill="white"/>
<path d="M352.234 49.5787C353.741 49.0749 355.504 50.3858 355.19 52.0309C355.154 54.2981 351.792 54.5602 350.8 52.8123C350.338 51.5888 350.847 49.9026 352.234 49.5787Z" fill="white"/>
<path d="M198.869 51.5579C202.159 51.3677 205.459 51.4551 208.754 51.4757C209.644 53.6605 209.453 56.8582 211.941 57.9481C215.478 58.2822 219.051 57.984 222.603 58.092C224.613 58.0149 227.224 58.6524 228.437 56.5446C235.264 68.3635 242.064 80.1978 248.855 92.0373C251.482 96.9109 254.556 101.533 257.059 106.473C255.347 106.797 253.584 106.915 251.939 107.506C250.592 108.149 250.161 109.717 249.549 110.956C249.107 111.141 248.67 111.316 248.228 111.49C246.912 111.691 245.57 111.819 244.311 112.262C243.211 112.74 242.728 114.076 243.005 115.202C243.622 119.217 244.373 123.217 244.959 127.242C244.239 126.605 243.535 125.936 243.041 125.104C230.622 104.149 217.879 83.3955 205.387 62.4823C203.316 58.7757 200.823 55.3211 198.869 51.5579Z" fill="white"/>
<path d="M25.738 60.7241C27.5577 57.5573 32.3383 56.709 35.2016 58.9556C36.6049 59.9375 37.5507 61.4027 38.255 62.9398C39.4836 61.4438 40.2392 59.5005 42.0127 58.5186C45.5647 56.0613 51.4865 58.2616 51.8926 62.765C52.3553 67.2787 49.199 71.0933 46.2433 74.1264C43.9044 76.3473 41.4267 78.563 38.5737 80.0744C33.9987 77.36 29.4802 74.1469 26.5913 69.5767C24.9206 67.0011 24.2678 63.5361 25.738 60.7241Z" fill="white"/>
<path d="M338.031 68.1835C340.345 66.7029 343.321 67.9727 345.058 69.7772C347.978 72.7897 349.963 76.5734 351.489 80.4497C354.867 89.0967 356.81 98.2423 357.992 107.434C358.573 113.583 359.231 119.803 358.403 125.962C358.167 129.566 357.324 133.128 355.817 136.413C354.851 138.362 352.939 140.197 350.6 139.94C347.397 139.714 345.12 137.061 343.46 134.573C338.618 126.635 336.176 117.516 334.402 108.473C332.526 97.9647 331.488 87.0968 333.379 76.5169C334.212 73.4735 335.127 69.9006 338.031 68.1835ZM338.844 72.0854C337.245 74.4811 336.752 77.4114 336.34 80.2132C335.384 87.7035 336.016 95.276 336.921 102.741L336.895 102.854C337.101 104.041 337.23 105.244 337.317 106.447C337.399 106.586 337.569 106.869 337.651 107.013C339.029 114.21 340.854 121.376 343.897 128.065C345.244 130.836 346.662 133.704 349.032 135.75C349.767 136.393 351.052 136.912 351.772 135.951C353.448 134.198 353.962 131.679 354.358 129.37C355.823 121.803 355.165 114.02 354.322 106.421C352.882 96.2065 350.564 85.9504 345.845 76.7071L345.794 76.7842C344.586 74.7073 343.342 72.4145 341.152 71.2321C340.278 70.7745 339.306 71.3143 338.844 72.0854Z" fill="white"/>
<path d="M388.541 68.3481C390.715 68.5538 392.828 69.181 394.91 69.8133C395.049 70.0344 395.332 70.4765 395.47 70.6975C393.183 70.7078 390.983 69.8853 388.819 69.2529C388.747 69.0267 388.613 68.5743 388.541 68.3481Z" fill="white"/>
<path d="M389.842 71.7718C390.963 70.723 392.885 72.255 392.161 73.5865C391.806 74.6095 390.228 74.9231 389.595 74.0029C389.04 73.3449 389.174 72.3013 389.842 71.7718Z" fill="white"/>
<path d="M399.737 71.8335C401.793 71.8746 403.572 73.4889 405.52 74.1777C406.363 74.3731 405.973 75.7868 405.114 75.1494C403.315 74.3011 401.408 73.6122 399.742 72.5275V71.8335H399.737Z" fill="white"/>
<path d="M400.591 75.7252C401.619 74.6713 403.47 75.8126 403.12 77.2006C402.95 78.347 401.403 78.7378 400.55 78.0849C399.984 77.4371 399.768 76.265 400.591 75.7252Z" fill="white"/>
<path d="M388.613 78.7533C388.87 78.7379 389.384 78.7122 389.641 78.6968C390.608 80.5321 391.728 82.5576 393.877 83.1745C395.877 84.0484 397.897 82.9637 399.902 82.7375C399.891 83.1179 399.876 83.8788 399.866 84.2592C396.622 85.7963 392.371 85.4159 390.032 82.4908C389.292 81.4317 387.94 80.1311 388.613 78.7533Z" fill="white"/>
<path d="M325.576 90.7417C327.062 89.2148 329.39 91.6414 328.033 93.1168C322.62 97.795 315.917 100.977 308.921 102.422C307.456 102.951 306.289 101.121 306.998 99.8976C307.523 99.0545 308.597 98.9774 309.461 98.7152C315.352 97.3169 320.821 94.4586 325.576 90.7417Z" fill="white"/>
<path d="M220.603 122.112C223.322 121.854 225.717 120.569 228.21 119.603C228.822 121.731 229.701 123.88 229.424 126.137C226.55 126.121 223.61 125.34 221.235 123.695C220.633 123.386 220.649 122.687 220.603 122.112Z" fill="white"/>
<path d="M252.505 135.555C252.361 134.876 252.227 134.208 252.062 133.54C252.993 134.887 254.155 136.043 255.455 137.041C254.808 137.509 254.165 137.976 253.517 138.429C253.168 137.473 252.813 136.522 252.505 135.555Z" fill="white"/>
<path d="M249.106 134.434C249.811 134.337 250.515 134.234 251.224 134.126C251.502 134.892 251.79 135.658 252.078 136.429C252.376 137.169 252.576 137.997 253.121 138.609C253.923 139.416 254.828 138.29 255.599 138.007C255.254 139.02 255.013 140.063 254.848 141.122C256.797 140.634 257.825 138.722 259.279 137.503C258.878 138.984 258.4 140.485 258.637 142.038C260.297 141.374 261.454 139.986 262.734 138.804C262.189 140.382 261.587 141.94 261.151 143.554C263.207 143.307 263.839 140.871 265.335 139.714C265.335 141.585 265.201 143.446 265.222 145.317C267.191 144.305 266.975 141.539 268.784 140.285C267.499 139.308 266.99 141.035 266.332 141.832C266.209 140.799 266.538 139.539 265.633 138.778C264.291 139.061 263.608 140.367 262.801 141.344C263.114 140.197 264.281 138.645 263.417 137.611C261.778 137.873 260.791 139.673 259.475 140.614C259.891 139.087 260.272 137.539 260.333 135.951C263.33 135.396 266.301 134.722 269.288 134.121C270.136 136.269 271.231 138.316 272.069 140.47L271.91 140.701C270.552 142.079 270.116 144.032 269.113 145.641C268.923 144.109 268.836 142.572 268.841 141.03C268.579 141.39 268.316 141.755 268.059 142.115C268.229 143.657 268.136 145.353 269.129 146.649C270.378 145.287 270.979 143.523 271.76 141.883C271.776 143.672 271.766 145.467 272.053 147.24C273.58 146.238 273.534 144.161 274.192 142.624L274.562 143.837C275.441 143.23 275.22 141.493 273.991 141.822C273.349 142.845 273.02 144.017 272.598 145.138C272.516 143.873 272.511 142.603 272.48 141.344C272.696 141.508 273.133 141.837 273.354 142.007C274.449 141.38 275.544 140.752 276.628 140.105C276.952 140.778 277.281 141.452 277.636 142.12C277.261 142.079 276.51 141.996 276.14 141.96C275.4 142.675 276.233 143.297 276.5 143.924L276.721 142.433C277.071 143.004 277.41 143.58 277.765 144.156C277.245 144.659 276.752 145.189 276.263 145.718C276.279 145.472 276.315 144.973 276.335 144.726C275.801 144.346 275.256 143.981 274.711 143.626C274.948 145.045 274.834 146.664 275.785 147.857C275.878 147.59 276.073 147.045 276.166 146.772C276.495 147.487 276.875 148.186 277.215 148.901C277.322 149.173 277.543 149.723 277.657 150.001C277.579 161.331 277.78 172.672 277.549 184.003C273.925 178.193 271.061 171.958 268.162 165.768C266.543 162.318 264.183 159.29 261.737 156.401C260.544 153.718 258.832 151.322 257.362 148.788C254.74 143.929 251.353 139.483 249.106 134.434Z" fill="white"/>
<path d="M257.259 136.619C257.907 136.48 258.554 136.341 259.207 136.203C258.266 137.159 257.351 138.141 256.38 139.061C256.493 138.706 256.724 137.997 256.843 137.637C256.945 137.385 257.151 136.871 257.259 136.619Z" fill="white"/>
<path d="M348.976 149.641C348.796 147.045 350.97 144.474 353.633 144.546C363.06 144.51 372.488 144.577 381.916 144.526C384.316 144.346 387.123 145.96 387.128 148.597C387.19 154.278 387.185 159.964 387.143 165.645C387.241 167.31 385.802 168.369 385.108 169.721C384.738 173.495 385.416 177.268 385.37 181.047C382.99 177.674 381.628 173.69 379.237 170.328C376.025 169.762 372.73 170.323 369.486 170.025C369.399 168.313 367.512 167.644 366.165 167.099C365.775 167.912 365.384 168.719 365.004 169.531C363.245 170.451 361.2 170.035 359.303 170.107C356.671 169.978 353.874 170.534 351.402 169.392C349.7 168.719 348.888 166.827 348.976 165.084C348.97 159.938 348.95 154.787 348.976 149.641ZM357.766 152.767C357.123 155.06 358.074 157.445 359.431 159.285C361.714 162.293 364.788 164.627 368.052 166.472C370.617 165.131 372.832 163.1 374.832 161.013C376.791 158.782 378.78 155.944 378.23 152.823C377.623 149.631 373.46 148.176 370.817 149.831C369.491 150.664 368.725 152.073 367.841 153.312C367.116 151.939 366.268 150.489 364.777 149.857C362.228 148.361 358.46 149.857 357.766 152.767Z" fill="white"/>
<path d="M246.295 148.592C246.65 148.633 247.369 148.711 247.729 148.752C244.712 159.429 243.648 170.559 243.781 181.628C242.974 181.54 242.172 181.448 241.376 181.355C236.862 179.546 231.496 179.032 226.89 180.8C222.469 183.047 219.878 187.607 217.74 191.884C215.02 187.509 211.864 182.682 206.642 181.15C201.881 180.193 196.998 181.813 192.747 183.879C192.289 184.09 191.837 184.306 191.385 184.522C191.107 180.26 191.133 175.86 189.673 171.793C190.321 170.996 190.943 170.179 191.549 169.351C192.562 172.919 192.634 176.636 193.045 180.301C198.119 177.551 204.39 177.191 209.716 179.443C212.486 180.563 214.763 182.769 215.992 185.494C216.521 186.362 216.768 187.514 217.637 188.121C218.675 188.213 218.531 186.851 218.835 186.177C219.287 183.36 220.788 180.599 223.405 179.263C228.725 176.425 235.145 176.744 240.836 178.178C240.178 168.051 242.075 157.82 246.295 148.592Z" fill="white"/>
<path d="M369.65 203.23C370.416 203.42 371.213 203.723 371.624 204.453C370.735 204.438 369.815 204.242 369.65 203.23Z" fill="white"/>
<path d="M95.1907 21.2319C97.5039 19.9107 100.131 19.0573 102.814 19.0727C110.175 19.0779 117.531 19.083 124.887 19.0727C130.089 19.047 135.194 21.8437 137.99 26.2237C141.619 31.6165 141.337 39.2713 137.337 44.3916C138.365 49.8512 139.527 55.2903 140.668 60.7242C136.571 57.4803 132.567 54.1182 128.496 50.8383C127.663 50.0517 126.44 50.6995 125.437 50.6121C117.886 50.6584 110.34 50.6121 102.793 50.6327C95.5094 50.6429 88.7394 44.8749 87.6342 37.6673C86.3645 31.308 89.5619 24.4244 95.1907 21.2319ZM104.063 32.6601C102.11 32.9583 100.794 35.3179 101.842 37.0761C102.901 39.4615 106.86 39.1016 107.451 36.5363C108.242 34.48 106.135 32.2591 104.063 32.6601ZM113.748 32.6704C111.656 32.948 110.427 35.6624 111.707 37.3897C112.894 39.5232 116.549 38.9371 117.105 36.5826C117.855 34.5468 115.891 32.2026 113.748 32.6704ZM123.551 32.6601C121.063 32.7218 119.901 36.1405 121.659 37.7804C123.124 39.5232 126.311 38.6852 126.769 36.4695C127.457 34.4954 125.602 32.2951 123.551 32.6601Z" fill="#FFD2BE"/>
<path d="M374.154 220.457C375.161 221.063 376.143 221.727 377.007 222.539C377.058 223.485 377.115 224.436 377.207 225.382C377.67 230.368 378.898 235.237 379.963 240.121C379.68 240.136 379.12 240.157 378.837 240.167C377.881 240.208 376.925 240.234 375.974 240.29C374.858 233.736 373.712 227.135 374.154 220.457Z" fill="#FFD2BE"/>
<path d="M361.734 221.799C363.621 222.714 365.703 223.048 367.733 223.495C365.95 223.947 364.114 224.04 362.295 224.04C362.156 223.279 361.966 222.529 361.734 221.799Z" fill="#FFD2BE"/>
<path d="M36.333 224.42C40.2963 224.194 44.3418 223.896 48.0687 222.421C48.3463 223.67 48.6239 224.919 48.9374 226.163C50.0735 231.402 51.482 236.574 53.0189 241.709C53.2811 242.522 53.3171 243.39 53.2708 244.244C52.7465 254.161 52.289 264.082 51.8726 274.004C51.7904 275.033 51.6876 276.066 51.4151 277.068C50.4898 277.963 49.1122 277.845 47.9299 277.845C47.3079 274.159 46.177 270.575 45.7709 266.853C44.9073 261.419 44.9844 255.893 45.1335 250.413C45.2774 247.74 45.6732 244.737 43.8689 242.496C39.8953 237.257 36.441 231.165 36.333 224.42Z" fill="#FFD2BE"/>
<path d="M22.1911 222.832C23.5379 223.31 24.9258 223.655 26.3343 223.906C29.5625 224.431 32.8473 224.523 36.1115 224.436C35.3507 226.898 34.5642 229.356 33.6698 231.777C31.4491 237.946 29.3518 244.156 27.2956 250.377C24.8796 258.649 23.2038 267.121 22.1089 275.66C22.0986 275.927 22.078 276.472 22.0729 276.739C21.0859 277.269 19.9961 277.783 18.8755 277.31C17.7086 267.388 17.5082 257.153 20.2429 247.457C21.8827 241.756 22.9776 235.813 22.5304 229.86C22.3299 227.521 22.186 225.176 22.1911 222.832Z" fill="#FFD2BE"/>
<path d="M299.391 32.7474C302.115 27.8687 307.384 24.4089 313.039 24.3575C327.617 24.3267 342.201 24.3575 356.779 24.3421C358.45 24.3472 360.141 24.2701 361.801 24.5734C367.235 25.4782 372.041 29.4007 374.025 34.5416C375.722 38.8394 374.997 43.5536 375.079 48.057C374.195 53.9331 370.134 59.3773 364.387 61.228C361.462 62.4053 358.275 62.0917 355.201 62.1071C342.34 62.1379 329.478 62.0865 316.617 62.1122C314.931 61.9066 314.417 63.8293 313.61 64.9089C311.204 68.5692 309.158 72.5071 306.315 75.8538C305.925 70.8312 306.834 65.7982 306.48 60.7756C304.038 58.9094 301.375 57.1564 299.787 54.4317C297.037 50.2008 297.453 44.9776 297.494 40.1709C297.494 37.5747 298.229 35.0454 299.391 32.7474ZM319.603 34.5211C319.49 39.8265 319.572 45.137 319.552 50.4424C319.603 51.45 319.475 52.6581 320.266 53.4344C321.336 54.5294 323.51 53.9896 323.849 52.4576C324.425 49.9129 323.942 47.2705 324.173 44.6846C326.985 44.5458 329.802 44.5509 332.619 44.6846C332.799 47.2448 332.46 49.8306 332.794 52.3805C333.046 53.9639 335.04 54.4523 336.253 53.6246C337.256 52.6633 337.107 51.1775 337.158 49.9129C337.137 45.2964 337.143 40.6747 337.148 36.053C337.091 35.1791 337.184 34.2229 336.69 33.4517C335.868 32.0997 333.369 32.1048 332.891 33.7756C332.403 36.0685 332.809 38.4538 332.604 40.7827C329.848 40.8495 327.083 40.9317 324.333 40.7929C323.423 38.4693 324.713 35.6161 323.546 33.2821C322.441 31.7604 319.526 32.5161 319.603 34.5159V34.5211ZM342.951 32.6189C341.676 32.9479 341.373 34.408 341.466 35.5441C341.538 41.014 341.389 46.4839 341.527 51.9487C341.502 53.6657 343.656 54.514 344.997 53.6606C345.938 52.8792 345.943 51.5734 345.964 50.4578C345.974 45.6562 345.928 40.8546 345.958 36.053C345.871 35.0608 346.077 33.863 345.3 33.0919C344.73 32.4184 343.733 32.439 342.951 32.6189ZM352.204 32.6241C351.202 32.9222 350.611 33.9813 350.703 34.9992C350.785 37.7547 350.986 40.5102 351.125 43.2657C351.248 44.5355 351.171 45.9287 351.906 47.0443C352.636 47.62 354.065 47.291 354.219 46.2834C354.738 44.2733 354.677 42.1758 354.893 40.1246C354.995 37.9912 355.499 35.8114 354.949 33.7036C354.569 32.5984 353.217 32.2436 352.204 32.6241ZM352.235 49.5787C350.847 49.9026 350.338 51.5888 350.801 52.8123C351.793 54.5602 355.155 54.2981 355.191 52.0309C355.504 50.3858 353.741 49.0749 352.235 49.5787Z" fill="#FFB7B8"/>
<path d="M257.974 45.9956C270.599 38.6236 284.858 34.1819 299.39 32.7476C298.229 35.0455 297.488 37.5749 297.493 40.171C297.452 44.9777 297.036 50.2009 299.786 54.4318C301.375 57.1565 304.037 58.9096 306.479 60.7757C306.834 65.7984 305.924 70.8313 306.315 75.8539C309.157 72.5072 311.203 68.5693 313.609 64.909C314.416 63.8294 314.93 61.9067 316.616 62.1123C329.477 62.0866 342.339 62.138 355.2 62.1072C358.274 62.0918 361.461 62.4054 364.386 61.2281C370.133 59.3774 374.194 53.9332 375.078 48.0571C381.278 51.4347 386.665 56.0872 391.441 61.2538C385.149 62.8989 380.188 68.6053 379.643 75.1188C378.728 82.7427 384.157 90.526 391.677 92.1968C397.923 93.8471 405.001 91.1841 408.641 85.8478C420.232 109.033 424.504 135.529 422.525 161.275C419.533 165.079 416.66 168.986 414.213 173.166C413.745 174.729 413.992 176.379 414.305 177.947C414.943 181.371 416.156 184.656 417.482 187.869C414.768 197.076 411.082 205.985 406.641 214.494C405.777 213.877 404.867 213.337 403.947 212.838C404.06 214.293 404.487 215.707 405.304 216.925C400.395 225.978 394.545 234.517 387.996 242.47C387.842 239.303 388.228 236.049 387.153 233.001C386.331 229.88 384.568 227.114 383.771 223.984C385.375 221.639 386.454 218.704 385.658 215.866C385.221 213.722 383.36 212.329 382.512 210.391C381.992 208.926 383.092 207.62 383.488 206.273C384.414 203.327 384.691 199.749 382.62 197.21C380.563 194.809 377.001 193.241 373.922 194.531C372.087 195.467 370.493 197.385 370.832 199.57C368.869 201.276 367.98 204.89 370.169 206.787C369.81 207.147 369.455 207.512 369.11 207.882C367.45 204.14 367.537 199.924 367.013 195.925C366.766 189.406 367.193 182.877 367.301 176.353C367.255 174.045 368.375 171.973 369.486 170.025C372.729 170.323 376.024 169.763 379.237 170.328C381.627 173.69 382.99 177.674 385.37 181.047C385.416 177.268 384.737 173.495 385.108 169.721C385.801 168.369 387.241 167.31 387.143 165.645C387.184 159.964 387.189 154.278 387.128 148.598C387.123 145.96 384.316 144.346 381.915 144.526C372.488 144.577 363.06 144.511 353.632 144.547C350.97 144.475 348.795 147.045 348.975 149.641C348.95 154.787 348.97 159.938 348.975 165.084C348.888 166.827 349.7 168.719 351.402 169.392C353.874 170.534 356.67 169.979 359.302 170.107C361.199 170.035 363.245 170.451 365.003 169.531C365.528 174.96 364.191 180.322 363.775 185.71C363.255 191.91 361.78 198.187 363.096 204.387C363.646 206.736 364.052 209.121 364.068 211.543C361.42 214.113 359.436 218.365 361.734 221.799C361.965 222.529 362.155 223.279 362.294 224.04C362.896 229.921 362.315 235.859 363.019 241.73C363.019 242.337 363.435 242.789 363.811 243.216C363.374 245.066 362.423 246.742 361.225 248.207C357.339 253.215 352.759 257.718 349.587 263.25C348.507 265.018 347.089 267.208 348.065 269.326C349.931 271.316 352.692 272.102 355.144 273.136C349.253 277.341 342.293 279.762 335.209 281.037C329.215 282.112 323.165 283.016 317.084 283.371C307.086 280.559 296.604 280.354 286.328 279.351C284.38 279.151 282.417 279.14 280.463 279.058C281.728 276.94 282.442 274.498 282.463 272.02C282.514 254.793 282.391 237.566 282.524 220.339C285.177 221.886 288.39 222.955 291.443 222.015C294.204 220.914 295.684 218.077 296.522 215.388C298.28 209.774 298.496 203.836 299.082 198.027C299.843 191.185 300.341 184.306 300.249 177.423C299.961 171.361 299.987 165.162 301.709 159.296C302.362 158.041 303.945 156.54 302.547 155.229C303.564 152.577 304.819 149.862 304.541 146.947C304.299 145.832 303.215 145.364 302.269 144.999C301.102 144.726 300.825 143.431 300.038 142.701C299.138 142.49 298.218 142.439 297.314 142.341C296.949 140.151 294.723 138.989 292.661 139.082C292.209 139.39 291.798 139.75 291.428 140.156C290.847 139.38 290.271 138.604 289.695 137.827C289.716 137.54 289.752 136.959 289.767 136.666L289.814 137.416C290.903 136.876 292.003 136.347 293.114 135.833C292.99 134.352 293.247 132.167 291.428 131.638C289.634 131.057 288.174 132.558 287.321 133.936C287.048 133.684 286.508 133.185 286.236 132.933C287.202 132.054 288.158 131.16 289.043 130.193C295.561 128.882 302.125 127.849 308.7 126.893C317.428 125.751 326.66 125.787 334.849 129.407C337.939 130.733 340.766 132.573 343.46 134.573C345.12 137.061 347.397 139.714 350.6 139.94C352.939 140.197 354.851 138.362 355.817 136.414C357.323 133.129 358.166 129.566 358.403 125.962C359.23 119.803 358.572 113.583 357.992 107.434C356.809 98.2425 354.866 89.0969 351.489 80.4499C349.962 76.5737 347.978 72.79 345.058 69.7774C343.321 67.9729 340.344 66.7032 338.031 68.1837C335.127 69.9008 334.212 73.4737 333.379 76.5171C329.878 82.6965 324.604 87.7911 318.338 91.1275C309.178 96.0217 298.825 97.7953 288.822 100.165C286.704 100.607 284.586 101.055 282.468 101.507C282.458 87.3952 282.494 73.2784 282.452 59.1666C282.452 52.7456 277.235 46.8336 270.83 46.1447C266.558 45.8208 262.256 46.0933 257.974 45.9956Z" fill="#FFF1EB"/>
<path d="M92.6567 91.6776C112.232 81.6015 134.217 77.0055 156.08 75.782C156.075 91.143 156.08 106.504 156.075 121.865C156.08 122.559 156.126 123.248 156.208 123.942C155.864 122.4 154.759 121.31 153.129 121.305C152.918 122.184 152.733 123.073 152.754 123.978C152.867 127.499 151.823 130.903 151.119 134.311C148.133 135.684 145.346 137.704 143.691 140.609C140.741 141.38 137.805 142.351 135.245 144.058C134.562 144.577 134.248 145.41 133.857 146.14C133.791 148.51 133.914 150.875 133.842 153.245C133.724 156.612 134.639 160.098 133.426 163.362C128.671 178.764 125.597 194.624 123.191 210.545C122.415 216.658 121.906 223.017 123.664 229.011C124.235 230.929 124.99 232.97 126.64 234.219C128.943 235.525 131.447 234.121 133.652 233.319C138.17 231.798 141.871 228.698 145.783 226.091C149.433 223.691 152.903 221.022 156.09 218.036C156.064 235.854 156.085 253.672 156.08 271.485C156.039 274.128 156.702 276.755 158.074 279.017C155.139 279.685 152.127 279.649 149.15 279.901C140.859 280.754 132.382 281.119 124.409 283.757C112.324 281.937 100.712 277.485 90.1841 271.321C72.3261 260.849 57.8352 244.84 48.937 226.163C48.6235 224.919 48.3459 223.67 48.0683 222.421C48.4898 222.035 49.1427 221.711 49.0244 221.038C48.8548 217.876 48.8908 214.709 49.2198 211.563L49.6464 211.589C52.2012 213.558 55.3421 214.817 58.596 214.781C64.5383 214.93 70.2288 210.802 72.0434 205.163C72.9687 202.772 72.7322 200.192 72.7168 197.693C72.7888 196.305 73.3594 194.717 72.249 193.586C72.1976 193.287 72.0948 192.696 72.0434 192.403C71.2466 192.002 70.4602 191.539 70.2597 190.588C69.6891 190.573 69.1185 190.573 68.5479 190.583C66.4198 188.475 63.649 187.118 60.6933 186.63C59.7166 180.903 58.2053 174.95 54.3808 170.416C53.5994 169.603 52.669 168.955 51.6409 168.503C51.2862 168.369 50.5717 168.107 50.217 167.979C49.8366 167.85 49.4562 167.717 49.081 167.588C48.9113 167.439 48.5824 167.136 48.4127 166.987C48.1454 166.334 47.9295 165.66 47.7136 164.992C49.3997 164.406 49.4614 162.581 49.7904 161.111C50.181 159.517 50.4535 157.892 50.7671 156.283C50.8185 156.031 50.9213 155.538 50.9727 155.286C51.1012 154.273 51.132 153.255 51.1577 152.237C51.7335 151.055 52.4994 149.667 51.6563 148.402C50.0782 146.037 47.3435 144.397 44.4648 144.336C47.801 135.715 52.2681 127.504 57.938 120.199C67.1291 108.19 79.2504 98.5921 92.6567 91.6776ZM119.773 154.844C118.601 155.656 118.678 157.378 117.567 158.252C115.506 160.159 112.869 161.213 110.345 162.339C107.343 163.737 104.346 165.156 101.421 166.719C99.879 167.706 98.0028 167.059 96.4092 166.55C96.1625 165.645 95.9157 164.575 94.9647 164.164C93.1604 163.275 91.2687 162.576 89.3873 161.876C87.8503 161.198 86.1797 162.457 85.6965 163.907C84.0258 168.056 82.4169 172.23 80.7257 176.374C80.0728 177.68 80.0317 179.474 81.3374 180.399C83.1006 181.468 85.1208 182.039 87.0176 182.826C88.2307 183.401 89.5107 182.908 90.5234 182.183C94.2554 184.851 98.6145 186.368 102.825 188.095C105.744 189.211 108.592 190.542 111.604 191.411C112.828 191.771 114.632 191.658 115.115 190.249C115.784 189.154 115.131 187.977 114.756 186.923C115.907 187.226 117.331 187.149 117.917 185.92C118.647 184.738 117.732 183.545 116.899 182.743C118.549 183.345 120.888 182.97 121.356 181.006C121.829 179.284 119.942 178.389 118.76 177.633C119.983 177.638 121.407 177.813 122.379 176.893C123.659 175.901 123.993 173.608 122.456 172.693C119.336 170.976 115.814 170.061 112.776 168.179C114.951 166.046 117.876 164.833 119.839 162.473C121.294 160.828 121.911 158.504 121.608 156.34C121.433 155.522 120.79 154.299 119.773 154.844ZM104.701 229.382L104.67 228.898C93.9058 232.903 82.9309 236.358 72.2336 240.527C72.0177 240.522 71.5911 240.506 71.3752 240.496C73.8169 247.961 76.5979 255.312 79.1116 262.751C79.2349 263.327 79.5793 263.712 80.1448 263.903L80.2784 263.532C85.3007 262.093 90.143 260.093 95.0984 258.458C101.164 256.238 107.348 254.305 113.337 251.894L113.887 252.099C113.738 250.351 112.946 248.768 112.386 247.128C110.515 241.704 108.556 236.311 106.706 230.883C106.531 229.926 105.472 227.382 104.701 229.382Z" fill="#FFF1EB"/>
<path d="M282.514 159.62C283.337 160.514 284.519 161.244 284.807 162.504C285.67 165.876 286.333 169.31 286.601 172.78C286.873 176.723 287.295 180.733 286.493 184.646C285.979 187.627 284.632 190.378 283.08 192.948C282.941 192.804 282.668 192.516 282.53 192.377C282.416 181.458 282.452 170.539 282.514 159.62Z" fill="#FFF1EB"/>
<path d="M141.692 183.468C142.057 177.849 144.026 172.41 146.879 167.588C149.089 171.68 152.256 175.202 156.096 177.823C156.075 178.913 156.075 180.008 156.024 181.098C153.839 185.648 151.222 190.007 147.989 193.889C145.743 196.619 143.913 199.672 141.543 202.294C141.106 196.027 141.163 189.73 141.692 183.468Z" fill="#FFF1EB"/>
<path d="M418.443 176.435C418.988 173.762 420.32 171.33 421.558 168.925C421.199 172.297 420.484 175.618 419.759 178.934C419.353 178.08 418.885 177.263 418.443 176.435Z" fill="#FFF1EB"/>
<path d="M377.207 225.382C377.906 225.541 378.61 225.706 379.315 225.865C383.005 231.962 384.774 239.093 384.918 246.177C383.247 248.053 381.648 250.007 379.808 251.724C381.155 247.884 380.086 243.863 378.837 240.167C379.119 240.157 379.68 240.136 379.962 240.121C378.898 235.237 377.67 230.369 377.207 225.382Z" fill="#FFF1EB"/>
<path d="M357.652 265.789C360.228 262.257 364.14 260.062 367.702 257.667L368.211 257.353C367.82 259.548 367.938 261.841 367.224 263.974C365.661 265.244 364.14 266.566 362.541 267.789C360.927 267.074 359.282 266.452 357.652 265.789Z" fill="#FFF1EB"/>
<path d="M166.165 46.4378C168.638 45.8157 171.213 46.0316 173.737 46.0059C201.814 46.0008 229.897 46.0162 257.974 45.9957C262.256 46.0933 266.558 45.8209 270.83 46.1447C277.235 46.8336 282.458 52.7456 282.453 59.1666C282.494 73.2784 282.453 87.3953 282.468 101.507C280.864 101.857 279.255 102.206 277.646 102.515C277.657 88.2384 277.636 73.957 277.657 59.6756C277.8 56.6013 276.084 53.5271 273.349 52.0979C271.673 51.1365 269.699 50.9823 267.813 51.008C255.198 51.0389 242.583 50.9875 229.968 51.0337C229.496 52.8793 229.028 54.73 228.437 56.5448C227.223 58.6525 224.612 58.0151 222.602 58.0922C219.05 57.9842 215.478 58.2824 211.941 57.9482C209.453 56.8584 209.643 53.6607 208.754 51.4758L208.6 51.0286C195.322 50.9926 182.044 51.0029 168.766 51.044C165.923 51.3113 163.322 53.1466 162.104 55.7274C161.05 57.7426 161.292 60.0868 161.276 62.282C161.297 85.4623 161.261 108.637 161.297 131.813C159.565 132.265 157.796 132.573 156.018 132.753C156.002 129.813 156.748 126.867 156.208 123.942C156.126 123.248 156.079 122.559 156.074 121.865C156.085 106.504 156.074 91.143 156.079 75.782C156.069 70.9341 156.079 66.0811 156.069 61.2333C156.064 59.1512 156.121 57.0229 156.83 55.0436C158.254 50.8641 161.888 47.5276 166.165 46.4378ZM218.109 51.1057C217.23 51.5941 216.763 52.5966 216.547 53.5373C216.665 54.7814 217.796 55.7993 219.004 55.9998C220.176 55.7531 221.662 54.9202 221.538 53.5271C221.631 51.7843 219.698 50.5505 218.109 51.1057Z" fill="#1C1C70"/>
<path d="M277.657 150.001C278.536 151.615 279.888 153.003 280.273 154.859C280.633 156.617 281.738 158.041 282.515 159.62C282.453 170.539 282.417 181.458 282.53 192.377C280.607 189.755 279.004 186.902 277.549 184.003C277.78 172.672 277.58 161.332 277.657 150.001Z" fill="#1C1C70"/>
<path d="M156.09 218.036C157.93 216.396 159.611 214.596 161.282 212.787C161.282 232.528 161.272 252.269 161.287 272.01C161.189 276.076 164.474 280.014 168.592 280.318C173.439 280.498 178.302 280.205 183.149 280.456C185.257 280.6 187.37 280.564 189.483 280.554C210.641 280.559 231.794 280.559 252.947 280.554C255.07 280.559 257.198 280.6 259.321 280.456C262.827 280.225 266.343 280.477 269.854 280.328C273.354 280.184 276.521 277.603 277.441 274.231C277.898 269.733 277.533 265.198 277.652 260.685C277.652 245.73 277.641 230.775 277.652 215.82C279.23 217.373 280.803 218.941 282.525 220.339C282.391 237.566 282.515 254.793 282.463 272.02C282.443 274.498 281.728 276.94 280.464 279.058C278.068 282.806 273.827 285.392 269.329 285.371C236.091 285.387 202.853 285.366 169.62 285.381C164.988 285.489 160.501 282.934 158.074 279.017C156.702 276.755 156.039 274.128 156.08 271.486C156.08 253.672 156.064 235.854 156.09 218.036Z" fill="#1C1C70"/>
<path d="M162.105 55.7273C163.323 53.1466 165.924 51.3113 168.767 51.0439C168.875 52.2109 168.885 53.3882 168.69 54.55C166.952 67.3097 166.726 80.2185 166.932 93.081C166.988 103.779 168.124 114.436 169.615 125.016C169.692 125.9 170.134 126.677 170.587 127.417C167.996 129.777 164.675 131.067 161.298 131.812C161.262 108.637 161.298 85.4622 161.277 62.2819C161.293 60.0868 161.051 57.7425 162.105 55.7273Z" fill="#E1E7EA"/>
<path d="M172.314 199.158C174.787 196.439 177.079 193.575 179.279 190.629C180.611 193.627 182.245 196.48 183.567 199.487C185.844 204.556 188.424 209.553 189.72 214.987C190.876 220.539 191.817 226.194 191.406 231.89C190.373 248.336 185.525 264.201 183.15 280.456C178.303 280.204 173.44 280.497 168.592 280.317C164.475 280.014 161.19 276.076 161.288 272.01C161.272 252.269 161.283 232.528 161.283 212.787C165.308 208.53 168.526 203.61 172.314 199.158Z" fill="#E1E7EA"/>
<path d="M256.839 266.828C258.941 267.409 260.915 268.339 262.905 269.218C267.665 271.125 272.492 272.878 277.442 274.231C276.522 277.603 273.355 280.184 269.855 280.328C266.344 280.477 262.827 280.225 259.322 280.456C259.471 275.783 257.795 271.336 256.839 266.828Z" fill="#E1E7EA"/>
<path d="M168.766 51.0443C182.044 51.0031 195.322 50.9929 208.6 51.0288L208.754 51.4761C205.459 51.4555 202.159 51.3681 198.869 51.5583C200.822 55.3215 203.315 58.7762 205.387 62.4827C217.878 83.3959 230.622 104.15 243.041 125.104C243.534 125.937 244.239 126.605 244.958 127.243C245.364 129.237 245.447 131.319 246.12 133.252C246.639 134.399 247.996 134.563 249.107 134.435C251.353 139.483 254.741 143.93 257.362 148.788C258.832 151.323 260.544 153.718 261.737 156.402C258.807 153.687 255.496 151.343 251.744 149.909C250.448 149.395 249.107 148.968 247.729 148.752C247.369 148.711 246.649 148.634 246.295 148.593C243.75 148.413 241.216 147.755 238.656 148.089C239.967 143.611 239.479 138.434 236.59 134.645C234.282 131.659 232.03 128.615 230.308 125.243C229.645 122.4 228.524 119.665 228.051 116.786C228.457 114.982 231.274 114.298 230.981 112.118C230.056 109.882 227.769 108.653 225.995 107.157C225.404 101.769 224.062 96.207 220.767 91.8013C218.356 88.7116 214.784 86.3056 210.795 86.0537C203.521 85.5242 195.903 86.2954 189.349 89.6986C186.881 90.8605 184.83 92.7009 182.784 94.4694C179.859 97.0758 178.559 100.916 177.598 104.602C176.271 109.784 177.042 115.305 175.315 120.405C174.421 123.125 172.719 125.526 170.586 127.417C170.134 126.677 169.692 125.901 169.615 125.017C168.124 114.437 166.988 103.78 166.931 93.0813C166.726 80.2188 166.952 67.31 168.689 54.5503C168.885 53.3885 168.874 52.2112 168.766 51.0443Z" fill="#F4F8F9"/>
<path d="M229.968 51.0336C242.583 50.9874 255.198 51.0388 267.812 51.0079C269.699 50.9822 271.673 51.1365 273.349 52.0978C276.083 53.527 277.8 56.6012 277.656 59.6755C277.636 73.9569 277.656 88.2383 277.646 102.515C270.794 103.882 263.921 105.167 257.059 106.473C254.555 101.533 251.481 96.911 248.854 92.0374C242.064 80.1979 235.263 68.3636 228.437 56.5447C229.028 54.7299 229.495 52.8792 229.968 51.0336Z" fill="#F4F8F9"/>
<path d="M253.599 185.92C254.864 186.902 255.943 188.095 256.92 189.36C260.714 193.863 264.163 198.654 267.33 203.615C270.362 208.011 273.93 212.01 277.652 215.82C277.641 230.775 277.652 245.73 277.652 260.684C277.533 265.198 277.898 269.732 277.441 274.231C272.491 272.879 267.664 271.126 262.904 269.218C260.914 268.339 258.94 267.409 256.838 266.828C254.828 259.075 252.772 251.333 251.178 243.483C249.266 233.427 247.611 223.115 248.798 212.869C250.777 203.96 252.561 194.994 253.599 185.92Z" fill="#F4F8F9"/>
<path d="M218.11 51.1057C219.698 50.5504 221.631 51.7843 221.538 53.527C221.662 54.9202 220.176 55.753 219.004 55.9998C217.796 55.7993 216.665 54.7814 216.547 53.5373C216.763 52.5965 217.231 51.594 218.11 51.1057Z" fill="#11115B"/>
<path d="M13.6277 57.6243C13.5249 54.221 16.7017 51.3318 20.0533 51.5323C32.56 51.5374 45.0616 51.5117 57.5684 51.5477C60.7812 51.4963 63.6598 54.3958 63.593 57.6088C63.6187 64.6416 63.6341 71.6795 63.5878 78.7122C63.593 80.8405 62.2462 82.6398 60.6012 83.848C60.6526 88.9837 61.0073 94.1092 60.9868 99.2398C58.3549 94.4896 55.8874 89.652 53.2915 84.8813L52.9933 84.6448C41.8385 84.578 30.6786 84.6756 19.5238 84.6037C16.4138 84.5677 13.6071 81.8276 13.638 78.6865C13.602 71.664 13.6226 64.6416 13.6277 57.6243ZM25.7386 60.7242C24.2684 63.5363 24.9213 67.0013 26.5919 69.5768C29.4809 74.1471 33.9993 77.3601 38.5744 80.0745C41.4273 78.5631 43.905 76.3474 46.2439 74.1265C49.1997 71.0934 52.3559 67.2789 51.8933 62.7652C51.4872 58.2617 45.5654 56.0614 42.0133 58.5188C40.2399 59.5007 39.4842 61.4439 38.2556 62.9399C37.5514 61.4028 36.6056 59.9377 35.2022 58.9558C32.339 56.7092 27.5583 57.5574 25.7386 60.7242Z" fill="#FF6C3C"/>
<path d="M61.3829 193.704C61.4755 191.94 63.5471 191.041 64.8784 192.244C65.8705 194.141 64.7808 196.315 63.8246 198.002C63.3774 198.999 62.1643 198.408 61.3829 198.274C59.7277 197.76 57.4196 196.68 57.7846 194.567C58.4272 193.061 60.1081 193.272 61.3829 193.704Z" fill="#FF6C3C"/>
<path d="M51.4772 197.93C51.9604 197.133 52.3408 196.048 53.4254 195.966C55.0652 195.606 55.8928 197.745 55.4713 199.05C55.1166 200.392 54.6489 201.986 53.5025 202.819C51.9038 202.839 50.3514 202.197 49.0355 201.328C48.0177 200.721 47.627 199.071 48.5266 198.212C49.349 197.446 50.5005 197.914 51.4772 197.93Z" fill="#FF6C3C"/>
<path d="M391.441 61.2537C399.013 59.1048 407.685 63.4797 410.378 70.8877C412.383 75.7613 411.607 81.5345 408.641 85.8477C405.002 91.1839 397.923 93.8469 391.677 92.1967C384.157 90.5259 378.729 82.7426 379.644 75.1186C380.189 68.6051 385.149 62.8987 391.441 61.2537ZM388.542 68.3481C388.614 68.5743 388.747 69.0267 388.819 69.2529C390.983 69.8852 393.184 70.7078 395.471 70.6975C395.332 70.4764 395.05 70.0343 394.911 69.8132C392.829 69.1809 390.716 68.5537 388.542 68.3481ZM389.842 71.7719C389.174 72.3014 389.04 73.345 389.596 74.0031C390.228 74.9233 391.806 74.6097 392.161 73.5867C392.885 72.2552 390.963 70.7232 389.842 71.7719ZM399.738 71.8336V72.5276C401.408 73.6124 403.315 74.3012 405.115 75.1495C405.973 75.787 406.364 74.3732 405.521 74.1779C403.572 73.489 401.794 71.8747 399.738 71.8336ZM400.591 75.7253C399.769 76.2651 399.984 77.4372 400.55 78.0849C401.403 78.7378 402.95 78.3471 403.12 77.2007C403.47 75.8127 401.619 74.6714 400.591 75.7253ZM388.614 78.7533C387.94 80.131 389.292 81.4317 390.032 82.4907C392.371 85.4158 396.623 85.7963 399.866 84.2591C399.876 83.8787 399.892 83.1179 399.902 82.7374C397.897 82.9636 395.877 84.0484 393.878 83.1744C391.729 82.5575 390.608 80.532 389.642 78.6967C389.385 78.7121 388.871 78.7378 388.614 78.7533Z" fill="#FF4165"/>
<path d="M338.843 72.0855C339.306 71.3144 340.278 70.7746 341.151 71.2321C343.341 72.4145 344.585 74.7074 345.793 76.7843C341.018 83.123 338.489 91.0297 338.797 98.9672C337.27 99.6407 337.255 101.337 336.921 102.741C336.016 95.2761 335.384 87.7035 336.34 80.2133C336.751 77.4115 337.245 74.4812 338.843 72.0855Z" fill="#FF4165"/>
<path d="M337.651 107.013C338.458 108.478 339.255 110.072 340.91 110.74C343.789 117.901 348.225 124.6 354.358 129.37C353.962 131.679 353.448 134.198 351.772 135.951C351.053 136.912 349.767 136.393 349.032 135.75C346.663 133.704 345.244 130.836 343.897 128.065C340.854 121.376 339.029 114.21 337.651 107.013Z" fill="#FF4165"/>
<path d="M357.766 152.767C358.46 149.862 362.228 148.361 364.777 149.857C366.268 150.489 367.116 151.939 367.841 153.312C368.725 152.073 369.491 150.664 370.818 149.831C373.46 148.176 377.624 149.631 378.23 152.823C378.78 155.944 376.791 158.782 374.832 161.013C372.833 163.1 370.617 165.131 368.052 166.472C364.788 164.627 361.714 162.293 359.431 159.285C358.074 157.445 357.123 155.06 357.766 152.767Z" fill="#FF4165"/>
<path d="M119.773 154.844C120.79 154.299 121.433 155.522 121.608 156.34C121.911 158.504 121.294 160.828 119.839 162.473C117.876 164.832 114.951 166.046 112.777 168.179C115.815 170.061 119.336 170.976 122.456 172.693C123.993 173.608 123.659 175.901 122.379 176.893C121.407 177.813 119.983 177.638 118.76 177.633C119.942 178.389 121.829 179.283 121.356 181.006C120.888 182.969 118.549 183.345 116.899 182.743C117.732 183.545 118.647 184.738 117.917 185.92C117.331 187.149 115.907 187.226 114.756 186.923C115.131 187.977 115.784 189.154 115.115 190.249C114.632 191.657 112.828 191.771 111.604 191.411C108.592 190.542 105.744 189.21 102.825 188.095C98.6145 186.367 94.2554 184.851 90.5234 182.183C89.5108 182.908 88.2308 183.401 87.0176 182.825C85.1208 182.039 83.1006 181.468 81.3374 180.399C80.0318 179.474 80.0729 177.679 80.7257 176.374C82.4169 172.23 84.0259 168.056 85.6965 163.907C86.1798 162.457 87.8504 161.198 89.3874 161.876C91.2688 162.575 93.1605 163.275 94.9648 164.164C95.9158 164.575 96.1625 165.645 96.4093 166.549C98.0028 167.058 99.8791 167.706 101.421 166.719C104.346 165.156 107.343 163.737 110.345 162.339C112.869 161.213 115.506 160.159 117.567 158.252C118.678 157.378 118.601 155.656 119.773 154.844Z" fill="#FF4165"/>
<path d="M226.889 180.8C231.495 179.032 236.862 179.546 241.375 181.355C241.776 186.841 243.442 192.218 245.842 197.153C245.323 199.616 244.943 202.104 244.521 204.587C234.096 208.443 222.849 210.185 211.751 209.193C205.654 208.7 199.619 207.558 193.754 205.857C193.106 205.625 192.376 205.528 191.842 205.08C190.947 203.096 190.469 200.957 189.662 198.937C191.564 194.161 192.664 189.025 192.746 183.879C196.998 181.813 201.881 180.193 206.641 181.15C211.864 182.682 215.02 187.509 217.739 191.884C219.878 187.607 222.469 183.047 226.889 180.8Z" fill="#FF4165"/>
<path d="M215.39 214.144C225.425 214.488 235.464 211.769 244.151 206.792C243.437 212.041 242.804 217.321 242.954 222.631C242.923 228.173 244.002 233.623 244.933 239.067C247.559 252.901 250.078 266.761 252.947 280.554C231.794 280.559 210.641 280.559 189.482 280.554C190.747 273.434 192.017 266.308 193.04 259.147C194.546 247.4 196.134 235.571 195.456 223.701C195.05 218.472 193.893 213.342 192.757 208.232C199.815 211.676 207.51 213.912 215.39 214.144Z" fill="#FF4165"/>
<path d="M318.339 91.1275C324.605 87.7911 329.879 82.6964 333.38 76.5171C331.488 87.097 332.527 97.9649 334.403 108.473C336.176 117.516 338.618 126.636 343.46 134.573C340.767 132.573 337.939 130.733 334.85 129.407C326.661 125.787 317.429 125.751 308.7 126.893C302.126 127.849 295.561 128.882 289.043 130.193C282.438 131.391 275.868 132.769 269.289 134.121C266.302 134.722 263.331 135.396 260.334 135.951C260.051 136.013 259.491 136.136 259.208 136.203C258.555 136.342 257.908 136.48 257.26 136.619C257.152 136.871 256.946 137.385 256.843 137.637C256.648 137.437 256.268 137.041 256.072 136.84C255.903 137.226 255.749 137.611 255.599 138.007C254.828 138.29 253.924 139.416 253.122 138.609C252.577 137.997 252.376 137.169 252.078 136.429C252.186 136.208 252.397 135.771 252.505 135.555C252.813 136.522 253.168 137.473 253.518 138.429C254.165 137.976 254.808 137.509 255.456 137.041C254.155 136.043 252.993 134.887 252.063 133.54C251.724 132.609 251.369 131.689 251.004 130.779C263.5 127.34 276.084 124.142 288.817 121.711C286.093 114.822 286.617 107.116 288.817 100.165C298.82 97.7952 309.173 96.0216 318.334 91.1275H318.339ZM325.577 90.7419C320.822 94.4588 315.352 97.3171 309.461 98.7155C308.598 98.9776 307.523 99.0548 306.999 99.8979C306.29 101.121 307.456 102.952 308.921 102.422C315.918 100.977 322.621 97.7952 328.034 93.117C329.391 91.6416 327.062 89.2151 325.577 90.7419Z" fill="#30303C"/>
<path d="M277.092 106.036C278.125 105.923 279.513 105.383 280.31 106.35C281.23 107.352 280.51 109.177 279.138 109.234C272.907 110.236 266.718 111.48 260.539 112.776C259.229 113.213 257.985 111.835 258.432 110.565C258.653 109.522 259.799 109.429 260.647 109.182C266.112 108.057 271.586 106.946 277.092 106.036Z" fill="#30303C"/>
<path d="M345.794 76.7844L345.845 76.7073C350.564 85.9506 352.883 96.2067 354.322 106.422C355.165 114.02 355.823 121.803 354.358 129.371C348.225 124.6 343.789 117.901 340.91 110.74C342.915 108.591 342.386 105.368 341.527 102.828C341.065 101.27 340.078 99.9492 338.798 98.9673C338.489 91.0298 341.018 83.1231 345.794 76.7844Z" fill="#FF9578"/>
<path d="M251.58 179.777C252.3 181.803 252.32 184.137 253.6 185.92C252.562 194.994 250.778 203.96 248.799 212.869C247.611 223.115 249.267 233.427 251.179 243.483C252.772 251.333 254.829 259.075 256.839 266.828C257.795 271.336 259.47 275.783 259.321 280.456C257.198 280.6 255.07 280.559 252.947 280.554C250.079 266.761 247.56 252.901 244.933 239.067C244.003 233.623 242.923 228.173 242.954 222.632C242.805 217.321 243.437 212.041 244.152 206.792C235.465 211.769 225.425 214.488 215.391 214.144C207.511 213.913 199.815 211.676 192.758 208.232C193.894 213.342 195.05 218.473 195.456 223.701C196.135 235.571 194.546 247.4 193.04 259.147C192.017 266.309 190.748 273.434 189.483 280.554C187.37 280.564 185.258 280.6 183.15 280.456C185.525 264.201 190.372 248.336 191.406 231.89C191.817 226.194 190.876 220.539 189.72 214.987C188.424 209.553 185.844 204.556 183.566 199.487C182.245 196.48 180.611 193.627 179.279 190.63C180.436 188.769 180.677 186.532 181.299 184.471C184.805 188.835 187.324 193.884 189.663 198.937C190.47 200.958 190.948 203.096 191.843 205.081C192.377 205.528 193.107 205.625 193.755 205.857C199.62 207.558 205.655 208.7 211.752 209.193C222.85 210.185 234.097 208.443 244.522 204.587C244.944 202.104 245.324 199.616 245.843 197.153C247.241 191.216 248.83 185.242 251.58 179.777Z" fill="#FF9578"/>
<path d="M15.9509 282.621C18.0636 285.232 21.6362 285.289 24.6948 285.628C26.0005 285.834 27.1879 285.248 28.1389 284.41C28.2263 285.494 27.7277 286.507 26.5557 286.672C23.3429 287.145 19.8731 286.831 16.9481 285.35C15.7915 284.924 15.9458 283.608 15.9509 282.621Z" fill="#FF9578"/>
<path d="M62.0713 282.811C61.9993 283.51 62.0559 284.255 61.768 284.913C60.6166 286.101 58.8534 285.767 57.3781 285.685C53.7489 285.325 50.1043 285.037 46.4546 285.191L46.2695 283.957C48.8038 284.363 51.3843 283.911 53.9288 284.23C55.9901 284.348 58.036 284.996 60.1077 284.718C61.146 284.6 61.6961 283.68 62.0713 282.811Z" fill="#FF9578"/>
<path d="M189.349 89.6982C195.903 86.2949 203.521 85.5238 210.795 86.0533C214.784 86.3052 218.356 88.7111 220.767 91.8008C224.062 96.2065 225.404 101.769 225.995 107.157C223.605 105.892 224.119 102.931 223.343 100.736C222.011 96.7412 219.122 93.2043 215.298 91.3638C215.899 88.9013 213.421 87.4053 211.278 87.4208C205.675 87.1483 199.933 87.1072 194.494 88.6751C192.803 89.1121 191.148 90.1711 189.349 89.6982Z" fill="#293A59"/>
<path d="M230.308 125.242C232.03 128.615 234.282 131.658 236.59 134.645C239.479 138.434 239.967 143.611 238.656 148.088C235.335 148.834 232.081 147.497 228.776 147.358C227.054 147.158 224.993 147.343 223.713 145.939C222.602 144.68 222.479 142.917 222.186 141.338C221.98 139.853 221.816 138.362 221.631 136.871C223.805 137.077 226.154 137.354 228.18 136.321C229.573 135.642 230.925 134.378 230.945 132.722C231.017 130.213 230.524 127.736 230.308 125.242Z" fill="#293A59"/>
<path d="M272.069 140.47C272.172 140.686 272.378 141.123 272.48 141.344C272.511 142.603 272.516 143.873 272.599 145.138C273.02 144.017 273.349 142.845 273.992 141.822C275.22 141.493 275.441 143.23 274.562 143.837L274.192 142.624C273.534 144.161 273.58 146.238 272.054 147.24C271.766 145.467 271.776 143.673 271.761 141.883C270.979 143.523 270.378 145.287 269.129 146.649C268.137 145.354 268.229 143.657 268.06 142.115C268.317 141.755 268.579 141.39 268.841 141.03C268.836 142.572 268.923 144.109 269.113 145.641C270.116 144.032 270.553 142.079 271.91 140.701L272.069 140.47Z" fill="#293A59"/>
<path d="M274.711 143.626C275.256 143.981 275.801 144.346 276.335 144.726C276.315 144.973 276.279 145.472 276.263 145.719C276.238 145.986 276.191 146.51 276.166 146.772C276.073 147.045 275.878 147.59 275.785 147.857C274.834 146.664 274.947 145.045 274.711 143.626Z" fill="#293A59"/>
<path d="M194.495 88.6752C199.934 87.1072 205.676 87.1483 211.279 87.4208C213.422 87.4054 215.9 88.9014 215.298 91.3639C213.859 95.2761 210.944 98.3144 208.251 101.383C205.064 105.049 203.378 109.743 202.679 114.493C201.64 113.907 200.633 113.136 199.414 113.012C198.176 113.002 196.659 113.768 196.551 115.135C195.898 119.073 198.366 123.073 201.887 124.754C201.892 129.972 201.661 135.19 201.455 140.408C201.054 147.384 200.54 154.777 196.747 160.864C195.045 163.712 193.513 166.668 191.55 169.351C190.943 170.179 190.321 170.996 189.673 171.793C187.632 174.312 185.191 176.487 182.518 178.317C177.393 181.612 170.988 182.861 165.03 181.504C162.321 180.97 159.828 179.767 157.34 178.615C156.898 179.443 156.45 180.265 156.024 181.098C156.075 180.008 156.075 178.913 156.096 177.823C152.256 175.202 149.089 171.68 146.879 167.588C149.048 164.02 152.41 161.424 154.898 158.108C156.512 155.599 157.473 152.684 159.432 150.381C160.532 149.394 161.185 147.662 160.033 146.449C158.62 145.287 157.16 144.171 155.643 143.153L155.134 142.804C154.826 142.567 154.559 142.29 154.338 141.976C154.482 138.845 155.767 135.884 156.019 132.753C157.797 132.573 159.566 132.265 161.298 131.812C164.675 131.067 167.996 129.777 170.587 127.417C172.72 125.525 174.421 123.124 175.316 120.405C177.043 115.305 176.272 109.784 177.598 104.602C178.56 100.916 179.86 97.0754 182.785 94.469C184.831 92.7005 186.882 90.8601 189.349 89.6982C191.149 90.1712 192.804 89.1122 194.495 88.6752Z" fill="#36476B"/>
<path d="M218.192 104.206C218.896 103.923 219.693 103.62 220.376 104.144C220.592 105.167 219.246 105.244 218.618 105.635C216.958 106.221 215.57 107.316 214.157 108.324C213.627 108.771 213.031 108.18 212.943 107.645C214.295 106 216.28 105.044 218.192 104.206Z" fill="#36476B"/>
<path d="M143.691 140.608C145.347 137.704 148.133 135.683 151.119 134.311C150.708 135.997 150.019 137.591 149.356 139.189C147.506 139.796 145.629 140.346 143.691 140.608Z" fill="#36476B"/>
<path d="M208.251 101.384C210.945 98.3145 213.859 95.2762 215.299 91.364C219.123 93.2045 222.012 96.7414 223.344 100.736C224.12 102.931 223.606 105.892 225.996 107.157C227.77 108.653 230.057 109.882 230.982 112.118C231.275 114.298 228.458 114.981 228.052 116.786C228.525 119.665 229.646 122.4 230.309 125.242C230.525 127.736 231.018 130.214 230.946 132.722C230.926 134.378 229.574 135.643 228.181 136.321C226.155 137.354 223.806 137.077 221.632 136.871C219.062 136.511 216.491 136.146 213.962 135.555C211.505 134.913 209.176 133.838 206.688 133.298C211.135 137.133 216.527 139.812 222.187 141.339C222.48 142.917 222.603 144.68 223.714 145.94C224.994 147.343 227.055 147.158 228.777 147.359C232.082 147.497 235.336 148.834 238.657 148.089C241.217 147.754 243.751 148.412 246.296 148.592C242.075 157.82 240.179 168.051 240.837 178.178C235.146 176.744 228.726 176.425 223.405 179.263C220.789 180.6 219.288 183.36 218.835 186.177C218.532 186.851 218.676 188.213 217.638 188.121C216.769 187.514 216.522 186.363 215.993 185.494C214.764 182.769 212.487 180.564 209.716 179.443C204.391 177.191 198.119 177.551 193.046 180.301C192.634 176.636 192.562 172.919 191.55 169.351C193.513 166.668 195.045 163.712 196.747 160.864C200.54 154.777 201.055 147.384 201.455 140.408C201.661 135.19 201.892 129.972 201.887 124.754C198.366 123.073 195.899 119.073 196.551 115.135C196.659 113.768 198.176 113.002 199.415 113.012C200.633 113.136 201.641 113.907 202.679 114.493C203.378 109.743 205.064 105.049 208.251 101.384ZM218.193 104.206C216.281 105.044 214.296 106 212.944 107.645C213.032 108.18 213.628 108.771 214.158 108.324C215.571 107.316 216.959 106.221 218.619 105.635C219.247 105.244 220.593 105.167 220.378 104.144C219.694 103.62 218.897 103.923 218.193 104.206ZM217.915 107.964C217.206 109.537 218.625 112.257 220.537 111.686C220.989 110.123 219.833 107.424 217.915 107.964ZM215.52 114.904C214.111 115.125 212.158 116.739 213.371 118.194C215.165 119.834 219.077 118.822 219.468 116.297C219.17 114.513 216.887 114.426 215.52 114.904ZM199.507 117.367C198.428 119.947 201.024 122.77 203.589 122.842C203.075 121.222 200.962 120.914 200.397 119.294C199.759 118.477 200.654 117.5 201.497 117.372C202.807 117.727 202.041 119.408 202.211 120.374C202.576 119.413 203.285 118.436 203.064 117.361C202.35 116.025 200.201 115.984 199.507 117.361V117.367ZM220.604 122.112C220.65 122.687 220.635 123.387 221.236 123.695C223.611 125.34 226.551 126.122 229.425 126.137C229.702 123.88 228.823 121.731 228.212 119.603C225.718 120.569 223.323 121.855 220.604 122.112Z" fill="#F6A698"/>
<path d="M153.13 121.305C154.759 121.305 155.864 122.4 156.209 123.942C156.748 126.867 156.003 129.813 156.018 132.753C155.767 135.884 154.481 138.845 154.338 141.976C153.895 141.334 153.515 140.65 153.006 140.059C151.952 139.318 150.585 139.339 149.356 139.19C150.02 137.591 150.708 135.997 151.12 134.311C151.824 130.903 152.867 127.499 152.754 123.978C152.734 123.073 152.919 122.184 153.13 121.305Z" fill="#F6A698"/>
<path d="M133.843 153.245C133.914 150.875 133.791 148.51 133.858 146.14C136.053 146.937 138.397 146.916 140.664 147.302C142.448 148.284 143.291 150.217 143.563 152.15C143.625 153.404 144.91 153.728 145.928 153.877C146.01 152.623 146.097 151.368 146.231 150.119C147.418 151.97 146.072 154.247 147.167 156.165C147.347 156.196 147.706 156.252 147.886 156.283C149.834 156.556 150.174 154.53 150.117 153.06C150.606 150.736 150.313 148.382 150.189 146.042C151.222 148.397 151.567 150.947 151.968 153.461C152.461 154.767 153.741 154.88 154.934 154.546C154.99 153.543 155.052 152.546 155.129 151.548C155.181 150.813 155.242 150.078 155.299 149.348C156.64 149.826 158.028 150.145 159.432 150.381C157.473 152.685 156.512 155.599 154.898 158.108C152.41 161.424 149.048 164.02 146.879 167.588C144.026 172.41 142.057 177.849 141.692 183.468C141.163 189.73 141.106 196.027 141.543 202.294C143.913 199.672 145.743 196.619 147.989 193.889C151.222 190.007 153.839 185.648 156.024 181.098C156.45 180.265 156.897 179.443 157.34 178.615C159.828 179.767 162.321 180.97 165.03 181.504C170.987 182.862 177.392 181.612 182.518 178.317C182.271 180.399 181.818 182.445 181.299 184.471C180.677 186.532 180.436 188.768 179.279 190.629C177.079 193.575 174.786 196.439 172.314 199.158C168.525 203.61 165.307 208.53 161.282 212.787C159.612 214.596 157.931 216.396 156.09 218.036C152.903 221.022 149.434 223.691 145.784 226.091C141.872 228.698 138.171 231.798 133.652 233.319C131.447 234.121 128.944 235.525 126.641 234.219C124.991 232.97 124.235 230.929 123.664 229.011C121.906 223.017 122.415 216.658 123.191 210.545C125.597 194.624 128.671 178.764 133.426 163.362C134.639 160.098 133.724 156.612 133.843 153.245Z" fill="#F6A698"/>
<path d="M277.215 148.901C278.963 149.343 280.597 150.7 282.463 149.872C284.812 153.62 287.65 157.034 290.297 160.576C291.505 162.02 292.451 163.727 293.957 164.899C297.232 164.344 299.391 161.434 301.709 159.296C299.987 165.162 299.961 171.361 300.249 177.423C300.342 184.306 299.843 191.185 299.082 198.027C298.496 203.836 298.28 209.774 296.522 215.388C295.685 218.077 294.204 220.914 291.444 222.015C288.39 222.955 285.177 221.886 282.525 220.339C280.803 218.94 279.23 217.372 277.652 215.82C273.93 212.01 270.363 208.011 267.33 203.615C264.163 198.654 260.714 193.863 256.92 189.36C255.944 188.095 254.864 186.902 253.6 185.92C252.32 184.137 252.299 181.803 251.579 179.777C250.027 172.482 249.148 164.956 250.089 157.512C250.49 154.957 250.52 152.248 251.744 149.908C255.496 151.343 258.807 153.687 261.737 156.401C264.184 159.291 266.543 162.319 268.162 165.768C271.062 171.958 273.925 178.194 277.549 184.003C279.004 186.902 280.608 189.756 282.53 192.377C282.669 192.516 282.941 192.804 283.08 192.948C284.632 190.378 285.979 187.627 286.493 184.646C287.295 180.733 286.874 176.723 286.601 172.78C286.334 169.31 285.671 165.876 284.807 162.504C284.519 161.244 283.337 160.514 282.515 159.62C281.738 158.041 280.633 156.617 280.273 154.859C279.888 153.003 278.536 151.615 277.657 150.001C277.544 149.723 277.323 149.173 277.215 148.901Z" fill="#F6A698"/>
<path d="M336.921 102.741C337.255 101.337 337.271 99.6407 338.797 98.9673C340.077 99.9492 341.064 101.27 341.527 102.828C342.386 105.368 342.915 108.591 340.91 110.74C339.255 110.072 338.458 108.478 337.651 107.013C337.569 106.869 337.399 106.586 337.317 106.447C337.23 105.244 337.101 104.041 336.896 102.854L336.921 102.741Z" fill="#F0F0FF"/>
<path d="M282.468 101.507C284.586 101.054 286.704 100.607 288.822 100.165C286.616 107.116 286.092 114.822 288.822 121.711C276.089 124.142 263.505 127.34 251.008 130.779C248.5 124.703 248.109 117.86 249.327 111.434C249.055 111.449 248.505 111.475 248.232 111.49C248.675 111.316 249.111 111.141 249.554 110.956C250.165 109.717 250.597 108.149 251.944 107.506C253.589 106.915 255.352 106.797 257.064 106.473C263.926 105.167 270.799 103.882 277.651 102.514C279.26 102.206 280.869 101.856 282.473 101.507H282.468ZM277.091 106.036C271.586 106.946 266.111 108.056 260.647 109.182C259.798 109.429 258.652 109.521 258.431 110.565C257.984 111.835 259.228 113.213 260.539 112.776C266.718 111.48 272.907 110.236 279.137 109.234C280.509 109.177 281.229 107.352 280.309 106.35C279.512 105.383 278.124 105.923 277.091 106.036Z" fill="#ADADC9"/>
<path d="M217.914 107.964C219.832 107.424 220.988 110.123 220.536 111.686C218.624 112.256 217.205 109.537 217.914 107.964Z" fill="#49302A"/>
<path d="M244.31 112.262C245.57 111.82 246.911 111.691 248.227 111.491C248.5 111.475 249.05 111.45 249.322 111.434C248.104 117.86 248.495 124.703 251.003 130.779C251.368 131.689 251.723 132.609 252.062 133.54C252.227 134.208 252.36 134.877 252.504 135.555C252.396 135.771 252.185 136.208 252.078 136.429C251.79 135.658 251.502 134.892 251.224 134.126C250.515 134.234 249.811 134.337 249.106 134.434C247.996 134.563 246.639 134.398 246.12 133.252C245.446 131.319 245.364 129.237 244.958 127.242C244.372 123.217 243.621 119.217 243.005 115.202C242.727 114.077 243.21 112.74 244.31 112.262Z" fill="#53537C"/>
<path d="M269.288 134.121C275.868 132.769 282.437 131.391 289.043 130.193C288.159 131.16 287.203 132.054 286.236 132.933C286.509 133.185 287.048 133.684 287.321 133.936C286.802 135.427 285.779 137.293 286.92 138.742C287.963 139.344 288.976 138.532 289.696 137.827C290.271 138.604 290.847 139.38 291.428 140.156C290.02 142.511 288.256 144.613 286.617 146.803C285.614 148.099 285.167 149.764 285.645 151.363L285.717 151.764L286.031 151.98C286.642 152.016 287.264 152.047 287.886 152.062C287.706 152.628 287.542 153.199 287.383 153.774C287.398 154.042 287.429 154.576 287.439 154.844C287.511 155.147 287.645 155.759 287.712 156.067C289.012 156.216 290.246 155.892 291.207 154.977C291.243 156.36 292.59 157.239 293.844 156.576C295.983 155.193 297.735 153.296 299.838 151.862C300.768 152.957 301.709 154.057 302.547 155.229C303.945 156.54 302.362 158.041 301.709 159.296C299.391 161.434 297.232 164.344 293.957 164.899C292.451 163.727 291.505 162.02 290.297 160.576C287.65 157.034 284.812 153.62 282.463 149.872C283.681 149.127 285.409 148.263 285.316 146.577C283.856 144.403 280.9 143.883 278.469 143.585C278.186 143.097 277.909 142.608 277.636 142.12C277.281 141.452 276.953 140.778 276.629 140.105C275.544 140.753 274.449 141.38 273.354 142.007C273.133 141.837 272.696 141.508 272.48 141.344C272.378 141.123 272.172 140.686 272.069 140.47C271.231 138.316 270.136 136.27 269.288 134.121Z" fill="#53537C"/>
<path d="M215.519 114.904C216.887 114.426 219.169 114.513 219.467 116.297C219.077 118.821 215.165 119.834 213.371 118.194C212.158 116.739 214.111 115.125 215.519 114.904Z" fill="#EA847D"/>
<path d="M199.507 117.367C200.201 115.984 202.35 116.025 203.064 117.367C203.285 118.441 202.576 119.418 202.211 120.379C202.041 119.413 202.807 117.732 201.496 117.377C200.653 117.505 199.759 118.482 200.396 119.3C200.962 120.919 203.074 121.227 203.588 122.847C201.023 122.775 198.427 119.952 199.507 117.372V117.367Z" fill="#E37F7A"/>
<path d="M13.4886 200.983C14.8662 202.058 16.3467 202.993 17.8785 203.821C13.6428 209.61 7.10926 213.63 0 214.673V207.142C4.58015 205.286 9.22199 203.507 13.4886 200.983Z" fill="#EBEBEB"/>
<path d="M405.305 216.925C404.488 215.707 404.061 214.293 403.948 212.838C404.868 213.337 405.778 213.877 406.642 214.494" fill="#EBEBEB"/>
<path d="M8.55373 227.14C12.8769 223.685 16.4803 219.372 19.3179 214.637C19.1842 216.745 19.0043 218.884 19.4412 220.976C19.5286 221.984 19.544 222.997 19.5338 224.009C17.4879 229.479 14.7326 235.314 9.28881 238.116C6.09659 239.442 2.96605 240.918 0.0205618 242.738L0 242.182V232.954L0.0308428 233.355C2.58051 230.898 5.81386 229.351 8.55373 227.14Z" fill="#EBEBEB"/>
<path d="M416.439 247.909C412.188 245.874 409.566 241.673 407.664 237.535C406.179 234.147 404.6 230.651 404.487 226.888C405.767 227.14 406.353 228.374 407.104 229.304C410.188 233.571 414.013 237.391 418.624 239.987" fill="#EBEBEB"/>
<path d="M371.691 293C362.243 292.26 352.754 291.473 343.48 289.443C340.843 288.718 337.785 288.255 336.042 285.911C336.751 285.011 337.548 284.127 338.684 283.777C343.881 281.808 349.453 281.145 354.923 280.364C360.099 279.767 365.286 279.104 370.499 278.935C371.239 279.577 371.917 280.287 372.627 280.97L372.971 281.315C373.089 283.376 373.192 285.556 372.21 287.453C371.645 288.512 371.465 289.684 371.568 290.877C372.426 290.466 373.408 290.101 373.876 289.201C375.521 286.435 376.312 283.232 378.158 280.575C379.104 279.238 379.921 277.814 380.579 276.313L380.97 276.667C381.011 277.048 381.093 277.804 381.134 278.184" fill="#EBEBEB"/>
<path d="M0 275.223C5.7419 275.228 11.4889 275.361 17.2308 275.5C17.2514 275.773 17.2925 276.313 17.3131 276.58C17.2 277.233 17.0458 277.875 16.8761 278.523C16.4906 279.87 16.1102 281.222 15.9509 282.62C15.9457 283.607 15.7915 284.924 16.9481 285.35C19.873 286.831 23.3428 287.144 26.5556 286.671C27.7277 286.507 28.2263 285.494 28.1389 284.409C26.751 283.078 24.8593 282.219 23.9186 280.466C23.4199 279.618 22.8956 278.785 22.3713 277.952C22.2942 277.649 22.1451 277.043 22.0731 276.739C22.0731 276.472 22.0988 275.927 22.1091 275.66C30.1797 275.922 38.245 276.328 46.3001 276.96C46.3156 277.351 46.3515 278.122 46.3721 278.508C45.7655 280.276 45.9814 282.153 46.2693 283.957L46.4544 285.191C50.1041 285.037 53.7487 285.325 57.3778 285.684C58.8531 285.767 60.6163 286.101 61.7678 284.913C62.0557 284.255 61.9991 283.51 62.0711 282.811C60.9864 281.705 59.3929 281.685 57.9998 281.279C56.7456 280.95 55.6352 280.261 54.5352 279.603C54.0365 278.945 53.5842 278.251 53.1267 277.572C60.8168 278.312 68.5943 279.047 76.0274 281.243C77.4051 281.788 79.3173 282.183 79.7337 283.839C78.4023 285.859 75.7241 286.224 73.5651 286.877C63.9473 289.057 54.0777 289.838 44.2645 290.609C29.532 291.648 14.7634 292.095 0 292.188L0 275.223Z" fill="#EBEBEB"/>
<path d="M149.151 279.901C152.127 279.649 155.139 279.685 158.074 279.017C160.501 282.934 164.988 285.489 169.62 285.381C202.853 285.366 236.091 285.386 269.329 285.371C273.827 285.392 278.068 282.806 280.464 279.058C282.417 279.14 284.381 279.151 286.329 279.351C296.605 280.353 307.086 280.559 317.084 283.371C317.794 283.798 318.436 284.317 319.069 284.857C316.488 287.242 312.7 287.263 309.435 287.988C290.714 290.635 271.776 291.196 252.901 291.797C223.086 292.512 193.24 292.327 163.457 290.769C152.667 290.106 141.841 289.463 131.164 287.664C128.527 287.109 125.659 286.785 123.505 285.016C123.731 284.703 124.183 284.07 124.41 283.757C132.382 281.119 140.859 280.754 149.151 279.901Z" fill="#EBEBEB"/>
<path d="M287.321 133.936C288.174 132.558 289.634 131.057 291.428 131.638C293.248 132.167 292.991 134.352 293.114 135.833C292.004 136.347 290.904 136.876 289.814 137.416L289.768 136.665C289.973 135.642 289.13 134.655 288.071 134.902C286.786 135.555 286.704 137.102 286.894 138.357C287.835 138.233 288.771 138.053 289.696 137.827C288.976 138.532 287.964 139.344 286.92 138.742C285.779 137.293 286.802 135.426 287.321 133.936Z" fill="#FCB5A2"/>
<path d="M292.662 139.082C294.723 138.989 296.949 140.151 297.314 142.341C298.219 142.439 299.139 142.49 300.039 142.701C300.825 143.431 301.103 144.726 302.27 144.999C303.215 145.364 304.3 145.832 304.542 146.947C304.819 149.862 303.565 152.576 302.547 155.229C301.709 154.057 300.769 152.957 299.838 151.862C297.736 153.296 295.983 155.193 293.844 156.576C292.59 157.239 291.243 156.36 291.207 154.977C290.246 155.892 289.012 156.216 287.712 156.067C287.645 155.759 287.511 155.147 287.439 154.844C288.344 156.37 290.724 155.543 290.575 153.82C290.046 152.201 288.169 152.648 287.383 153.774C287.542 153.198 287.707 152.628 287.887 152.062C287.265 152.047 286.643 152.016 286.031 151.98L285.717 151.764C286.653 151.553 287.938 151.795 288.493 150.792C289.305 149.795 288.005 148.273 286.874 148.741C285.594 148.824 285.943 150.489 285.645 151.363C285.167 149.764 285.614 148.099 286.617 146.803C288.257 144.613 290.02 142.511 291.428 140.156C291.798 139.75 292.21 139.39 292.662 139.082ZM292.703 153.934C292.086 154.293 291.392 155.121 291.901 155.851C292.693 156.658 294.343 156.067 294.384 154.941C294.142 154.304 293.428 153.486 292.703 153.934Z" fill="#FCB5A2"/>
<path d="M143.691 140.608C145.629 140.346 147.505 139.796 149.356 139.189C150.584 139.339 151.952 139.318 153.006 140.058C153.515 140.649 153.895 141.333 154.337 141.976C154.558 142.289 154.825 142.567 155.134 142.803C154.527 144.15 154.558 147.045 156.702 146.479C158.059 145.425 156.439 143.981 155.643 143.153C157.159 144.171 158.619 145.287 160.033 146.448C161.184 147.662 160.531 149.394 159.431 150.381C158.028 150.145 156.64 149.826 155.298 149.348C155.242 150.078 155.18 150.813 155.129 151.548C154.877 151.528 154.373 151.492 154.121 151.476C152.887 151.157 152.584 152.746 151.967 153.461C151.566 150.947 151.222 148.397 150.189 146.042C150.312 148.381 150.605 150.736 150.117 153.06C148.364 153.214 148.004 154.807 147.886 156.283C147.706 156.252 147.346 156.196 147.166 156.165C146.071 154.247 147.418 151.97 146.231 150.119C146.097 151.368 146.009 152.623 145.927 153.877C144.909 153.728 143.624 153.404 143.563 152.15C143.29 150.217 142.447 148.284 140.663 147.302C138.396 146.916 136.052 146.937 133.857 146.14C134.248 145.41 134.562 144.577 135.245 144.058C137.805 142.351 140.741 141.379 143.691 140.608ZM143.383 142.953C144.19 144.253 145.285 145.43 145.634 146.968C145.948 147.929 145.953 149.122 146.924 149.697C146.991 147.975 146.529 146.284 145.701 144.788C145.202 143.904 144.58 142.773 143.383 142.953Z" fill="#FCB5A2"/>
<path d="M278.469 143.585C280.9 143.883 283.856 144.402 285.316 146.577C285.409 148.263 283.681 149.127 282.463 149.872C280.597 150.7 278.962 149.343 277.215 148.901C276.875 148.186 276.495 147.487 276.166 146.772C276.192 146.51 276.238 145.986 276.264 145.718C276.752 145.189 277.246 144.659 277.765 144.156C277.945 144.012 278.294 143.729 278.469 143.585ZM281.327 145.657C280.515 146.248 279.805 147.759 280.792 148.525C282.088 149.075 283.851 148.685 284.602 147.43C285.373 145.693 282.484 144.665 281.327 145.657Z" fill="#FCB5A2"/>
<path d="M206.688 133.298C209.175 133.838 211.504 134.912 213.961 135.555C216.49 136.146 219.061 136.511 221.631 136.871C221.816 138.362 221.98 139.853 222.186 141.338C216.526 139.812 211.134 137.133 206.688 133.298Z" fill="#E08175"/>
<path d="M288.072 134.902C289.131 134.655 289.974 135.642 289.768 136.665C289.753 136.958 289.717 137.539 289.696 137.827C288.771 138.053 287.835 138.233 286.894 138.357C286.704 137.102 286.787 135.555 288.072 134.902Z" fill="#F5F5FF"/>
<path d="M155.134 142.804L155.643 143.153C156.439 143.981 158.059 145.426 156.701 146.479C154.558 147.045 154.527 144.151 155.134 142.804Z" fill="#F5F5FF"/>
<path d="M281.327 145.657C282.484 144.665 285.373 145.693 284.602 147.431C283.851 148.685 282.088 149.076 280.793 148.526C279.806 147.76 280.515 146.248 281.327 145.657Z" fill="#F5F5FF"/>
<path d="M285.645 151.363C285.943 150.489 285.593 148.824 286.873 148.741C288.004 148.274 289.305 149.795 288.492 150.793C287.937 151.795 286.652 151.553 285.717 151.764L285.645 151.363Z" fill="#F5F5FF"/>
<path d="M151.967 153.461C152.584 152.746 152.887 151.158 154.121 151.476C154.373 151.492 154.876 151.528 155.128 151.548C155.051 152.546 154.989 153.543 154.933 154.545C153.74 154.88 152.46 154.766 151.967 153.461Z" fill="#F5F5FF"/>
<path d="M287.383 153.774C288.169 152.648 290.046 152.201 290.575 153.82C290.724 155.543 288.344 156.37 287.439 154.844C287.429 154.576 287.398 154.042 287.383 153.774Z" fill="#F5F5FF"/>
<path d="M147.886 156.283C148.004 154.808 148.364 153.214 150.117 153.06C150.173 154.53 149.834 156.556 147.886 156.283Z" fill="#F5F5FF"/>
<path d="M259.208 136.203C259.49 136.136 260.051 136.013 260.334 135.951C260.272 137.539 259.891 139.087 259.475 140.614C260.791 139.673 261.778 137.874 263.418 137.611C264.281 138.645 263.114 140.197 262.801 141.344C263.608 140.367 264.292 139.061 265.633 138.778C266.538 139.539 266.209 140.799 266.332 141.832C266.99 141.035 267.499 139.308 268.784 140.285C266.975 141.539 267.191 144.305 265.222 145.318C265.202 143.446 265.335 141.585 265.335 139.714C263.839 140.871 263.207 143.308 261.151 143.554C261.588 141.94 262.189 140.382 262.734 138.804C261.454 139.987 260.298 141.375 258.637 142.038C258.401 140.485 258.879 138.984 259.28 137.503C257.825 138.722 256.797 140.634 254.849 141.123C255.013 140.064 255.255 139.02 255.599 138.007C255.748 137.611 255.902 137.226 256.072 136.84C256.267 137.041 256.648 137.437 256.843 137.637C256.725 137.997 256.494 138.706 256.38 139.061C257.352 138.141 258.267 137.159 259.208 136.203Z" fill="#69728B"/>
<path d="M276.14 141.961C276.51 141.997 277.261 142.079 277.636 142.12C277.908 142.608 278.186 143.097 278.469 143.585C278.294 143.729 277.944 144.012 277.765 144.156C277.41 143.58 277.071 143.004 276.721 142.434L276.5 143.925C276.233 143.297 275.4 142.675 276.14 141.961Z" fill="#364265"/>
<path d="M143.383 142.953C144.581 142.773 145.203 143.904 145.701 144.788C146.529 146.284 146.991 147.975 146.925 149.698C145.953 149.122 145.948 147.929 145.634 146.968C145.285 145.431 144.19 144.253 143.383 142.953Z" fill="#E5857F"/>
<path d="M38.1476 148.294C39.8182 146.433 41.9207 144.726 44.4652 144.336C47.3439 144.397 50.0786 146.037 51.6567 148.402C52.4998 149.667 51.7338 151.055 51.1581 152.237C48.1252 152.839 45.4162 151.142 42.5375 150.577C42.6558 152.494 42.9796 154.443 42.6095 156.36C41.7562 156.427 41.9464 155.353 41.6328 154.869C41.5351 153.862 40.3837 153.944 39.6743 153.677C38.9238 155.327 39.3247 157.054 40.029 158.643L39.993 158.782C39.1757 158.9 39.006 157.846 38.6051 157.347C36.9807 154.679 36.3227 151.024 38.1476 148.294Z" fill="#1C2546"/>
<path d="M42.0335 156.705C42.5116 158.375 42.7583 160.313 44.5369 161.121C45.8169 159.162 48.2175 160.077 49.7905 161.11C49.4615 162.581 49.3998 164.406 47.7137 164.992C44.6963 165.146 42.09 163.218 40.5428 160.771C40.5428 160.452 40.5273 159.815 40.5273 159.491L40.697 159.697C41.3807 158.818 41.6839 157.738 42.0335 156.705ZM45.7244 160.463C45.493 162.246 47.9502 162.915 48.9526 161.537C48.1095 160.637 46.8553 160.601 45.7244 160.463Z" fill="#1C2546"/>
<path d="M247.729 148.752C249.106 148.968 250.448 149.394 251.743 149.908C250.52 152.248 250.489 154.957 250.088 157.512C249.147 164.956 250.026 172.482 251.579 179.777C248.829 185.242 247.24 191.215 245.842 197.153C243.441 192.218 241.776 186.841 241.375 181.355C242.172 181.448 242.974 181.54 243.781 181.628C243.647 170.559 244.711 159.429 247.729 148.752Z" fill="#FDD9CF"/>
<path d="M182.517 178.317C185.19 176.487 187.632 174.312 189.673 171.793C191.133 175.86 191.107 180.26 191.384 184.522C191.837 184.306 192.289 184.09 192.747 183.879C192.664 189.025 191.564 194.161 189.662 198.937C187.323 193.884 184.805 188.835 181.299 184.471C181.818 182.445 182.27 180.399 182.517 178.317Z" fill="#FDD9CF"/>
<path d="M42.5371 150.577C45.4157 151.142 48.1247 152.839 51.1576 152.237C51.1319 153.255 51.1011 154.273 50.9726 155.286C50.2375 155.296 49.5024 155.301 48.7673 155.311C48.7827 156.083 48.7981 156.859 48.8136 157.635C49.2916 157.322 49.7645 156.998 50.2375 156.669L50.7669 156.283C50.4534 157.892 50.1809 159.517 49.7902 161.11C48.2173 160.077 45.8167 159.162 44.5367 161.121C42.7581 160.314 42.5114 158.375 42.0333 156.705C41.6837 157.738 41.3804 158.818 40.6968 159.697L40.5271 159.491C40.3986 159.28 40.1519 158.853 40.0285 158.643C39.3243 157.054 38.9233 155.327 39.6738 153.677C40.3832 153.944 41.5347 153.862 41.6323 154.869C41.9459 155.353 41.7557 156.427 42.609 156.36C42.9791 154.443 42.6553 152.494 42.5371 150.577ZM44.0072 154.283C44.0998 155.111 44.8708 155.25 45.5082 155.491C45.4568 156.191 45.6933 156.699 46.2228 157.018C46.2587 156.622 46.3256 155.831 46.3616 155.435C46.6083 155.512 47.1069 155.671 47.3537 155.748C47.4822 154.072 45.0764 154.633 44.0072 154.283Z" fill="#EB8E6C"/>
<path d="M40.5424 160.771C42.0897 163.218 44.6959 165.146 47.7133 164.992C47.9292 165.66 48.1451 166.333 48.4124 166.986C47.8573 168.549 46.5464 170.107 44.6959 169.773C41.992 169.079 40.6041 166.385 39.4629 164.077C39.8587 162.987 40.2442 161.892 40.5424 160.771Z" fill="#EB8E6C"/>
<path d="M371.1 198.073C372.004 197.009 373.099 196.13 374.39 195.575C373.793 197.194 373.994 198.839 374.878 200.31C374.58 200.294 373.978 200.269 373.68 200.258C374.986 200.685 375.978 201.58 376.471 202.88C376.867 202.896 377.654 202.932 378.05 202.947C377.782 205.667 374.307 206.51 373.84 209.219C373.757 209.933 374.59 210.268 374.986 210.751C371.593 212.514 369.198 215.609 365.898 217.47C365.517 216.74 364.895 215.984 365.168 215.105C365.862 212.422 367.522 210.108 369.11 207.882C369.455 207.512 369.809 207.147 370.169 206.787C367.979 204.89 368.869 201.276 370.832 199.569C370.879 199.816 370.971 200.305 371.017 200.551C371.341 200.022 371.67 199.487 372.004 198.963C371.778 198.742 371.326 198.294 371.1 198.073ZM369.65 203.23C369.815 204.243 370.735 204.438 371.624 204.453C371.213 203.723 370.416 203.42 369.65 203.23Z" fill="#EB8E6C"/>
<path d="M374.154 220.457C372.766 217.598 373.773 212.874 377.438 212.524C381.124 215.259 382.445 219.819 383.771 223.983C384.568 227.114 386.331 229.88 387.154 233.001C388.228 236.049 387.843 239.303 387.997 242.47C388.13 244.439 387.951 246.418 388.13 248.392C388.737 248.984 389.467 249.436 390.099 250.017C390.588 251.816 388.907 252.988 387.375 253.317C386.223 253.353 385.062 253.045 383.946 253.441C383.633 252.443 383.201 251.451 383.165 250.397C384.249 249.215 385.216 247.899 384.918 246.177C384.774 239.093 383.005 231.962 379.315 225.865C378.61 224.708 377.87 223.572 377.006 222.539C376.143 221.727 375.161 221.063 374.154 220.457ZM384.635 250.536C384.08 250.901 384.527 252.289 385.175 251.585C385.673 251.199 385.313 249.899 384.635 250.536Z" fill="#EB8E6C"/>
<path d="M390.865 254.202C393.137 252.978 394.361 256.068 395.168 257.682C394.592 258.062 394.021 258.443 393.466 258.844C392.952 257.122 392.125 255.492 390.865 254.202Z" fill="#EB8E6C"/>
<path d="M51.4144 277.068C51.6868 276.066 51.7896 275.033 51.8719 274.004C51.7433 275.377 51.6457 276.93 53.1261 277.572C53.5836 278.251 54.036 278.945 54.5346 279.603C52.5967 279.053 50.4428 279.145 48.7002 280.22C47.6156 281.001 46.3459 280.071 46.4127 278.832C46.5361 278.585 46.7828 278.086 46.901 277.834C47.1581 277.84 47.6721 277.845 47.9291 277.845C49.1114 277.845 50.4891 277.963 51.4144 277.068Z" fill="#EB8E6C"/>
<path d="M376.534 275.84C377.896 277.618 376.57 279.891 375.269 281.279C374.503 281.387 373.737 281.397 372.971 281.315L372.627 280.97C374.354 279.628 375.542 277.762 376.534 275.84Z" fill="#EB8E6C"/>
<path d="M17.3129 276.58C17.8321 276.827 18.3513 277.068 18.8756 277.31C19.9962 277.783 21.086 277.269 22.073 276.739C22.1449 277.043 22.294 277.649 22.3711 277.952C21.9856 278.096 21.2197 278.384 20.8341 278.528C20.8033 279.407 20.7673 280.276 20.7313 281.166C19.0864 280.898 17.8938 279.752 16.876 278.523C17.0456 277.875 17.1998 277.233 17.3129 276.58Z" fill="#EB8E6C"/>
<path d="M366.165 167.1C367.512 167.645 369.399 168.313 369.486 170.025C368.376 171.973 367.255 174.045 367.301 176.353C367.194 182.877 366.767 189.406 367.014 195.925C367.538 199.924 367.451 204.14 369.111 207.882C368.402 207.749 367.692 207.857 367.235 208.453C366.16 209.466 365.117 210.509 364.068 211.543C364.053 209.121 363.647 206.736 363.097 204.386C361.781 198.187 363.256 191.91 363.775 185.71C364.191 180.322 365.528 174.96 365.004 169.531C365.384 168.719 365.775 167.912 366.165 167.1Z" fill="#E58163"/>
<path d="M292.703 153.934C293.428 153.487 294.142 154.304 294.384 154.941C294.343 156.067 292.693 156.658 291.901 155.851C291.392 155.121 292.086 154.294 292.703 153.934Z" fill="#F5EDF4"/>
<path d="M44.0078 154.283C45.077 154.633 47.4828 154.072 47.3543 155.748C47.1075 155.671 46.6089 155.512 46.3621 155.435C46.3262 155.831 46.2593 156.622 46.2234 157.018C45.6939 156.699 45.4574 156.19 45.5088 155.491C44.8714 155.25 44.1003 155.111 44.0078 154.283Z" fill="#7F4F40"/>
<path d="M48.7676 155.312C49.5027 155.301 50.2378 155.296 50.9728 155.286C50.9214 155.538 50.8186 156.031 50.7672 156.283L50.2378 156.669C49.7648 156.998 49.2919 157.322 48.8138 157.635C48.7984 156.859 48.783 156.083 48.7676 155.312Z" fill="#885544"/>
<path d="M427.938 155.481V155.389L428 155.682C427.985 155.63 427.954 155.533 427.938 155.481Z" fill="#AF6B41"/>
<path d="M40.3219 159.589L40.5276 159.491C40.5276 159.815 40.5378 160.452 40.543 160.771C40.2448 161.892 39.8593 162.987 39.4635 164.077C40.6047 166.385 41.9926 169.079 44.6965 169.773C46.547 170.107 47.8579 168.549 48.413 166.986C48.5827 167.135 48.9117 167.439 49.0813 167.588C48.5518 169.269 47.1074 170.796 45.2568 170.821C42.995 170.837 41.386 169.048 39.8542 167.634C39.0574 166.498 38.1681 165.429 37.1914 164.447C37.9573 164.154 39.3607 164.447 39.4172 163.331C39.7411 162.092 39.664 160.725 40.3219 159.589Z" fill="#B6D3FF"/>
<path d="M45.7243 160.463C46.8552 160.601 48.1094 160.637 48.9525 161.537C47.9501 162.915 45.4929 162.247 45.7243 160.463Z" fill="#C06C5A"/>
<path d="M33.7109 165.146C34.8675 164.904 36.0293 164.663 37.191 164.447C38.1677 165.429 39.057 166.498 39.8538 167.634C43.7246 175.618 43.3801 184.722 43.3596 193.364C45.0662 185.463 46.4387 177.458 48.9884 169.768C49.2403 169.074 49.4253 168.236 50.217 167.979C50.5717 168.107 51.2862 168.369 51.6409 168.503C50.7978 169.865 49.5538 171.104 49.2711 172.734C49.7543 173.217 50.2941 173.644 50.8235 174.081C48.5206 181.283 45.7139 188.311 43.3236 195.482C41.9048 191.472 41.4525 187.195 40.5529 183.052C39.9001 179.325 38.9748 175.649 38.4556 171.901C39.2112 171.814 39.9669 171.731 40.7225 171.649C38.7383 169.13 36.3531 166.945 33.7109 165.146Z" fill="#243B9B"/>
<path d="M30.6887 165.804C31.6911 165.568 32.6986 165.357 33.7113 165.146C36.3535 166.945 38.7387 169.13 40.7229 171.649C39.9672 171.731 39.2116 171.814 38.4559 171.901C38.9751 175.649 39.9004 179.325 40.5532 183.052C41.4528 187.195 41.9052 191.473 43.3239 195.482C45.7143 188.311 48.521 181.283 50.8239 174.081C50.2944 173.644 49.7547 173.217 49.2715 172.734C49.5542 171.104 50.7982 169.865 51.6412 168.503C52.6693 168.955 53.5997 169.603 54.3811 170.415C53.6614 173.022 54.2474 175.747 53.8311 178.394C53.5226 181.638 51.9908 184.712 52.2426 188.018C46.6601 190.866 43.4268 197.559 44.8507 203.703C44.0076 204.474 43.0309 205.106 41.8486 204.7C41.0673 203.836 40.2602 202.973 39.2681 202.346C35.2894 199.904 30.9252 198.202 26.6123 196.454C27.2703 193.688 27.8923 190.907 28.7456 188.198C29.0026 187.437 29.0335 186.635 29.0386 185.848C30.0873 183.874 31.285 181.921 31.5986 179.664C32.2874 175.047 32.0252 170.287 30.6887 165.804Z" fill="#081C5E"/>
<path d="M25.2707 207.178C28.8948 208.443 32.7347 208.767 36.5232 209.168C37.9214 209.317 39.3196 209.054 40.7024 208.905C42.3319 208.802 43.3086 210.201 44.5732 210.951C46.0382 211.543 47.6677 211.44 49.2202 211.563C48.8912 214.709 48.8552 217.876 49.0248 221.038C49.1431 221.711 48.4902 222.035 48.0687 222.421C44.3419 223.896 40.2963 224.194 36.333 224.421L36.112 224.436C32.8478 224.523 29.563 224.431 26.3348 223.906C25.8722 218.344 25.0034 212.776 25.2707 207.178Z" fill="#081C5E"/>
<path d="M20.8346 278.528C21.2201 278.384 21.9861 278.097 22.3716 277.953C22.8959 278.785 23.4203 279.618 23.9189 280.467C24.8596 282.22 26.7513 283.078 28.1392 284.41C27.1882 285.248 26.0008 285.834 24.6951 285.628C21.6365 285.289 18.0639 285.232 15.9512 282.621C16.1105 281.222 16.4909 279.87 16.8765 278.523C17.8943 279.752 19.0869 280.898 20.7318 281.166C20.7678 280.276 20.8038 279.408 20.8346 278.528Z" fill="#081C5E"/>
<path d="M46.3725 278.508L46.4136 278.832C46.3468 280.071 47.6165 281.001 48.7011 280.22C50.4438 279.145 52.5976 279.053 54.5356 279.603C55.6356 280.261 56.746 280.95 58.0002 281.279C59.3933 281.685 60.9868 281.705 62.0715 282.811C61.6962 283.68 61.1462 284.6 60.1078 284.718C58.0362 284.996 55.9903 284.348 53.929 284.23C51.3845 283.911 48.804 284.363 46.2697 283.957C45.9818 282.153 45.7659 280.276 46.3725 278.508Z" fill="#081C5E"/>
<path d="M39.8535 167.634C41.3854 169.048 42.9943 170.837 45.2561 170.822C47.1067 170.796 48.5512 169.269 49.0806 167.588C49.4559 167.716 49.8363 167.85 50.2167 167.979C49.4251 168.236 49.24 169.074 48.9881 169.768C46.4384 177.458 45.0659 185.463 43.3593 193.364C43.3799 184.722 43.7243 175.618 39.8535 167.634Z" fill="#97BFFF"/>
<path d="M53.8311 178.394C54.2475 175.747 53.6615 173.022 54.3811 170.416C58.2056 174.95 59.7169 180.903 60.6936 186.63C57.8098 186.291 54.8643 186.769 52.2427 188.018C51.9908 184.712 53.5227 181.638 53.8311 178.394Z" fill="#041649"/>
<path d="M29.0389 185.848C29.0389 186.635 29.0029 187.437 28.7459 188.198C27.8926 190.907 27.2706 193.688 26.6126 196.454C25.3275 195.981 24.0064 195.621 22.6904 195.246C24.1143 193.668 25.6719 192.167 26.7051 190.285C27.4968 188.815 28.2061 187.298 29.0389 185.848Z" fill="#041649"/>
<path d="M20.3099 205.065C21.9395 205.821 23.5947 206.53 25.2705 207.178C25.0032 212.777 25.8719 218.344 26.3346 223.907C24.9261 223.655 23.5382 223.31 22.1914 222.832C21.1941 222.344 20.2894 221.691 19.4412 220.976C19.0043 218.884 19.1842 216.745 19.3178 214.638C19.6417 211.445 19.945 208.253 20.3099 205.065Z" fill="#041649"/>
<path d="M373.922 194.531C377.002 193.241 380.564 194.809 382.62 197.21C384.692 199.749 384.414 203.327 383.489 206.273C383.093 207.62 381.993 208.926 382.512 210.391C383.36 212.329 385.221 213.722 385.658 215.866C386.455 218.704 385.375 221.639 383.772 223.984C382.445 219.819 381.124 215.259 377.438 212.525C376.637 211.902 375.794 211.347 374.986 210.751C374.591 210.268 373.758 209.934 373.84 209.219C374.308 206.51 377.783 205.667 378.05 202.947C377.654 202.932 376.868 202.896 376.472 202.88C375.979 201.58 374.986 200.685 373.681 200.258C373.979 200.269 374.58 200.294 374.879 200.31C373.994 198.839 373.794 197.194 374.39 195.575C373.1 196.13 372.005 197.009 371.1 198.073C371.326 198.295 371.779 198.742 372.005 198.963C371.671 199.487 371.342 200.022 371.018 200.551C370.972 200.305 370.879 199.816 370.833 199.569C370.494 197.385 372.087 195.467 373.922 194.531Z" fill="#0E1647"/>
<path d="M377.007 222.539C377.87 223.572 378.611 224.709 379.315 225.865C378.611 225.706 377.906 225.541 377.207 225.382C377.115 224.436 377.058 223.485 377.007 222.539Z" fill="#0E1647"/>
<path d="M66.4863 190.82C67.0004 190.763 68.0336 190.645 68.5477 190.583C69.1182 190.573 69.6888 190.573 70.2594 190.588C70.4599 191.539 71.2464 192.002 72.0432 192.403C72.0946 192.696 72.1974 193.287 72.2488 193.585C73.3591 194.716 72.7885 196.305 72.7166 197.693C72.2488 197.374 71.7913 197.066 71.3286 196.757C70.0538 196.932 68.7636 196.927 67.4887 196.809C67.463 195.888 67.4373 194.968 67.4219 194.048C68.2187 193.436 68.9538 192.747 69.5655 191.951C68.522 191.658 67.0929 191.94 66.4863 190.82Z" fill="#D37359"/>
<path d="M44.8505 203.703C46.4954 203.368 48.1661 203.728 49.7905 204.001C49.0348 204.546 48.2638 205.075 47.5492 205.682C49.004 207.61 51.4303 204.952 53.0444 206.592C52.6846 208.684 51.3223 210.365 49.6466 211.589L49.2199 211.563C47.6675 211.44 46.0379 211.542 44.5729 210.951C43.3084 210.201 42.3317 208.802 40.7021 208.905C41.4835 207.635 41.7354 206.165 41.8485 204.7C43.0308 205.106 44.0075 204.474 44.8505 203.703Z" fill="#D37359"/>
<path d="M367.234 208.453C367.692 207.856 368.401 207.748 369.11 207.882C367.522 210.108 365.862 212.422 365.168 215.105C364.895 215.984 365.517 216.74 365.898 217.47C369.198 215.609 371.593 212.514 374.986 210.751C375.793 211.347 376.636 211.902 377.438 212.524C373.773 212.874 372.765 217.598 374.153 220.457C373.711 227.135 374.858 233.736 375.973 240.29C372.786 240.182 370.051 241.951 367.054 242.665C365.964 242.84 364.88 242.989 363.811 243.216C363.435 242.789 363.014 242.336 363.019 241.73C362.315 235.859 362.896 229.921 362.294 224.04C364.114 224.04 365.949 223.947 367.733 223.495C365.702 223.048 363.62 222.714 361.734 221.799C359.436 218.364 361.42 214.113 364.068 211.542C365.116 210.509 366.16 209.466 367.234 208.453Z" fill="#FF5B2E"/>
<path d="M19.4409 220.976C20.2891 221.691 21.1938 222.344 22.1911 222.832C22.1859 225.176 22.3298 227.52 22.5303 229.86C22.9775 235.813 21.8826 241.756 20.2428 247.457C17.5081 257.153 17.7086 267.388 18.8755 277.31C18.3511 277.068 17.8319 276.827 17.3128 276.58C17.2922 276.313 17.2511 275.773 17.2305 275.5C16.0482 265.111 16.3823 254.459 19.0245 244.305C20.8494 237.669 19.4717 230.769 19.5334 224.009C19.5437 222.996 19.5283 221.984 19.4409 220.976Z" fill="#FFA882"/>
<path d="M36.1116 224.436L36.3327 224.42C36.4406 231.165 39.895 237.257 43.8686 242.496C45.6729 244.737 45.2771 247.739 45.1332 250.413C44.9841 255.893 44.907 261.419 45.7706 266.853C46.1767 270.575 47.3076 274.159 47.9296 277.845C47.6725 277.845 47.1585 277.839 46.9015 277.834C46.7832 278.086 46.5365 278.585 46.4131 278.832L46.372 278.508C46.3514 278.122 46.3155 277.351 46.3 276.96C44.3467 271.197 43.2723 265.172 42.5783 259.142C42.0386 254.844 42.676 250.531 42.5783 246.223C42.5681 245.447 42.1722 244.763 41.7764 244.131C39.0828 240.008 36.2299 235.987 33.6699 231.777C34.5644 229.356 35.3509 226.898 36.1116 224.436Z" fill="#FFA882"/>
<path d="M367.055 242.665C370.052 241.951 372.786 240.182 375.973 240.29C376.924 240.234 377.88 240.208 378.837 240.167C380.086 243.863 381.155 247.883 379.808 251.724C378.796 255.528 377.999 259.384 377.228 263.244C380.261 260.792 383.545 258.607 386.177 255.692C387.298 254.654 388.151 252.875 389.94 253.137C390.238 253.487 390.547 253.842 390.865 254.202C392.125 255.492 392.952 257.122 393.466 258.844C393.446 259.019 393.415 259.373 393.394 259.548C391.42 260.71 389.806 262.35 388.1 263.851C384.327 267.244 380.574 270.668 376.775 274.035C375.141 275.5 373.182 277.428 370.766 276.523C368.607 275.459 368.144 272.817 367.887 270.658C367.687 270.514 367.281 270.221 367.075 270.077L367.646 270.293C367.6 268.175 367.62 266.057 367.6 263.944L367.224 263.974C367.939 261.841 367.821 259.548 368.211 257.353L367.702 257.667C368.031 257.173 368.515 256.721 368.556 256.099C369.018 251.569 368.458 246.984 367.055 242.665Z" fill="#3D5586"/>
<path d="M104.701 229.381C105.472 227.382 106.531 229.926 106.705 230.883C108.556 236.311 110.514 241.704 112.386 247.128C112.946 248.768 113.738 250.351 113.887 252.099L113.337 251.893C110.556 250.68 107.507 250.274 104.747 249.015L105.575 248.788C102.567 247.195 99.2209 246.403 96.0801 245.123C97.5708 242.167 99.5859 239.509 100.974 236.496L100.306 236.527C101.534 234.003 103.796 232.039 104.701 229.381Z" fill="#FFD817"/>
<path d="M71.375 240.496C71.5909 240.506 72.0176 240.522 72.2335 240.527C76.2379 242.09 80.3965 243.195 84.4472 244.635C84.0874 244.681 83.3677 244.778 83.0079 244.825C84.9869 246.007 87.2642 246.496 89.3923 247.354C87.8759 250.187 85.9431 252.783 84.5346 255.677L85.2954 255.523C83.8817 258.361 81.3989 260.561 80.2783 263.532L80.1446 263.903C79.5792 263.712 79.2348 263.327 79.1114 262.751C76.5977 255.312 73.8167 247.961 71.375 240.496Z" fill="#FFD817"/>
<path d="M100.305 236.527L100.974 236.497C99.5858 239.509 97.5707 242.167 96.08 245.123C99.2208 246.403 102.567 247.195 105.574 248.788L104.747 249.015C101.724 247.961 98.7016 246.871 95.6225 246.007C94.8874 246.583 94.3888 247.462 93.5303 247.858C92.4457 248.156 91.3148 247.976 90.2147 248.12C88.3899 250.454 86.9608 253.071 85.2953 255.523L84.5345 255.677C85.943 252.783 87.8758 250.187 89.3923 247.354C87.2641 246.496 84.9869 246.007 83.0078 244.825C83.3676 244.779 84.0873 244.681 84.4471 244.635C86.6318 245.38 88.7754 246.29 91.0269 246.83C92.2298 247.128 93.7 246.825 94.3991 245.724C96.5015 242.748 98.3675 239.617 100.305 236.527Z" fill="#F7A90F"/>
<path d="M363.811 243.216C364.88 242.989 365.965 242.84 367.054 242.666C368.458 246.984 369.018 251.57 368.555 256.099C368.514 256.721 368.031 257.173 367.702 257.667C364.14 260.062 360.228 262.257 357.652 265.789C359.282 266.452 360.927 267.074 362.541 267.789C364.073 268.504 365.564 269.311 367.075 270.077C367.281 270.221 367.687 270.514 367.887 270.658C368.144 272.817 368.607 275.459 370.766 276.523C373.182 277.428 375.14 275.5 376.775 274.035C376.754 274.189 376.713 274.493 376.693 274.647C376.652 274.945 376.574 275.542 376.533 275.84C375.541 277.762 374.354 279.629 372.627 280.97C371.917 280.287 371.239 279.577 370.498 278.935C365.851 275.907 360.233 275.13 355.144 273.136C352.692 272.102 349.931 271.316 348.065 269.326C347.089 267.208 348.508 265.018 349.587 263.25C352.759 257.718 357.339 253.215 361.225 248.207C362.423 246.742 363.374 245.066 363.811 243.216Z" fill="#334D7C"/>
<path d="M389.94 253.138C391.729 252.079 393.102 250.459 394.896 249.4C396.366 251.965 398.504 254.078 399.831 256.731C401.332 259.178 402.092 261.985 403.604 264.422C402.704 264.149 401.697 263.933 401.27 262.988C399.728 260.283 396.33 259.286 393.395 259.548C393.415 259.373 393.446 259.019 393.467 258.844C394.022 258.443 394.593 258.063 395.168 257.682C394.361 256.068 393.138 252.978 390.866 254.202C390.547 253.842 390.239 253.487 389.94 253.138Z" fill="#657B9B"/>
<path d="M376.693 274.647C378.035 275.079 379.418 275.475 380.58 276.313C379.922 277.814 379.104 279.238 378.159 280.574C376.313 283.232 375.521 286.435 373.877 289.201C373.409 290.1 372.427 290.465 371.568 290.877C371.466 289.684 371.646 288.512 372.211 287.453C373.193 285.556 373.09 283.376 372.972 281.315C373.738 281.397 374.504 281.387 375.27 281.279C376.57 279.891 377.896 277.618 376.534 275.84C376.575 275.541 376.652 274.945 376.693 274.647Z" fill="#657B9B"/>
<path d="M394.896 249.4C396.833 249.323 397.784 251.261 398.777 252.598C401.126 256.13 403.845 259.985 403.603 264.422C402.092 261.985 401.331 259.178 399.83 256.731C398.504 254.078 396.366 251.965 394.896 249.4Z" fill="#E6E7E8"/>
<path d="M384.635 250.536C385.314 249.899 385.673 251.199 385.175 251.585C384.527 252.289 384.08 250.901 384.635 250.536Z" fill="#C66554"/>
</g>
<defs>
<clipPath id="clip0_2_1915">
<rect width="428" height="293" fill="white"/>
</clipPath>
</defs>
</svg>
