<svg width="26" height="27" viewBox="0 0 26 27" fill="none" xmlns="http://www.w3.org/2000/svg">
<path d="M4.875 23.7916L9.20833 19.4583M11.375 19.4583L15.7083 23.7916M10.2917 19.4583L10.2917 24.8749" stroke="#595F67" stroke-width="1.5" stroke-linecap="round" stroke-linejoin="round"/>
<path d="M2.16699 13.3646C2.16699 11.1303 2.16699 10.0132 3.27755 9.3191C4.3881 8.625 6.17551 8.625 9.75033 8.625H10.8337C14.4085 8.625 16.1959 8.625 17.3064 9.3191C18.417 10.0132 18.417 11.1303 18.417 13.3646V14.7188C18.417 16.953 18.417 18.0701 17.3064 18.7642C16.1959 19.4583 14.4085 19.4583 10.8337 19.4583H9.75033C6.17551 19.4583 4.3881 19.4583 3.27755 18.7642C2.16699 18.0701 2.16699 16.953 2.16699 14.7188V13.3646Z" stroke="#595F67" stroke-width="1.5"/>
<path d="M18.417 11.6036L18.5534 11.5217C20.8455 10.1463 21.9915 9.45858 22.9126 9.79064C23.8337 10.1227 23.8337 11.2236 23.8337 13.4253V14.6574C23.8337 16.8592 23.8337 17.9601 22.9126 18.2921C21.9915 18.6242 20.8455 17.9365 18.5534 16.5611L18.417 16.4792" stroke="#595F67" stroke-width="1.5" stroke-linecap="round"/>
<circle cx="13.5423" cy="5.91659" r="2.70833" stroke="#595F67" stroke-width="1.5"/>
<ellipse cx="7.58398" cy="5.375" rx="3.25" ry="3.25" stroke="#595F67" stroke-width="1.5"/>
</svg>
