<svg width="18" height="18" viewBox="0 0 18 18" fill="none" xmlns="http://www.w3.org/2000/svg">
<path fill-rule="evenodd" clip-rule="evenodd" d="M9.04756 0.45866C10.8732 0.458648 12.307 0.458641 13.4266 0.609155C14.5738 0.763393 15.484 1.08592 16.1992 1.80109C16.9143 2.51625 17.2368 3.42646 17.3911 4.57368C17.5416 5.69318 17.5416 7.12707 17.5416 8.95263V8.95265V8.95267V8.95269V9.04796V9.04798V9.048V9.04802C17.5416 10.8736 17.5416 12.3075 17.3911 13.427C17.2368 14.5742 16.9143 15.4844 16.1992 16.1996C15.484 16.9147 14.5738 17.2373 13.4266 17.3915C12.3071 17.542 10.8732 17.542 9.0476 17.542H9.04758H9.04756H8.95228H8.95226H8.95224C7.12667 17.542 5.69278 17.542 4.57327 17.3915C3.42606 17.2373 2.51585 16.9147 1.80068 16.1996C1.08551 15.4844 0.762986 14.5742 0.608747 13.427C0.458233 12.3075 0.458241 10.8736 0.458252 9.04798V9.04797V8.95268V8.95267C0.458241 7.12709 0.458233 5.69319 0.608747 4.57368C0.762986 3.42646 1.08551 2.51625 1.80068 1.80109C2.51585 1.08592 3.42606 0.763393 4.57327 0.609155C5.69279 0.458641 7.12669 0.458648 8.95227 0.45866H9.04756ZM12.7499 9.00033C12.7499 11.0714 11.071 12.7503 8.99992 12.7503C6.92885 12.7503 5.24992 11.0714 5.24992 9.00033C5.24992 6.92926 6.92885 5.25033 8.99992 5.25033C11.071 5.25033 12.7499 6.92926 12.7499 9.00033ZM13.5935 5.25033C14.0517 5.25033 14.4231 4.87723 14.4231 4.41699C14.4231 3.95676 14.0517 3.58366 13.5935 3.58366H13.586C13.1279 3.58366 12.7564 3.95675 12.7564 4.41699C12.7564 4.87723 13.1279 5.25033 13.586 5.25033H13.5935Z" fill="#3C434A"/>
</svg>
