<svg width="117" height="15" viewBox="0 0 117 15" fill="none" xmlns="http://www.w3.org/2000/svg">
  <path d="M116.004 0.789429H103.785C103.208 0.789429 102.746 1.24783 102.746 1.82084V13.9685C102.746 14.5186 103.208 15 103.785 15H115.958C116.535 15 116.997 14.5416 116.997 13.9685V1.79792C117.043 1.24783 116.581 0.789429 116.004 0.789429ZM106.973 12.8684H104.871V6.10692H106.973V12.8684ZM105.91 5.16719C105.217 5.16719 104.686 4.6171 104.686 3.95242C104.686 3.28773 105.241 2.73765 105.91 2.73765C106.58 2.73765 107.135 3.28773 107.135 3.95242C107.135 4.6171 106.626 5.16719 105.91 5.16719ZM114.941 12.8684H112.84V9.59079C112.84 8.8115 112.816 7.78009 111.731 7.78009C110.622 7.78009 110.461 8.65106 110.461 9.52203V12.8684H108.359V6.10692H110.414V7.04664H110.437C110.738 6.49656 111.408 5.94647 112.447 5.94647C114.595 5.94647 114.988 7.32169 114.988 9.20114V12.8684H114.941Z" fill="#EFEFEF" />
  <path d="M73.5689 10.416C75.0211 10.416 76.1983 9.24235 76.1983 7.7946C76.1983 6.34685 75.0211 5.17322 73.5689 5.17322C72.1167 5.17322 70.9395 6.34685 70.9395 7.7946C70.9395 9.24235 72.1167 10.416 73.5689 10.416Z" fill="#EFEFEF" />
  <path d="M76.4252 0.789429H70.6677C68.3783 0.789429 66.5195 2.64247 66.5195 4.92488V10.6196C66.5195 12.9472 68.3783 14.8003 70.6677 14.8003H76.3799C78.7147 14.8003 80.5734 12.9472 80.5734 10.6648V4.92488C80.5734 2.64247 78.7147 0.789429 76.4252 0.789429ZM73.5691 11.2298C71.6424 11.2298 70.1237 9.67049 70.1237 7.79485C70.1237 5.9192 71.6651 4.35993 73.5691 4.35993C75.4505 4.35993 76.9919 5.9192 76.9919 7.79485C76.9919 9.67049 75.4732 11.2298 73.5691 11.2298ZM78.3293 4.67631C78.1026 4.92488 77.7626 5.06047 77.3773 5.06047C77.0373 5.06047 76.6973 4.92488 76.4252 4.67631C76.1759 4.42773 76.0399 4.11135 76.0399 3.72718C76.0399 3.34302 76.1759 3.04924 76.4252 2.77806C76.6746 2.50689 76.9919 2.3713 77.3773 2.3713C77.7173 2.3713 78.08 2.50689 78.3293 2.75546C78.556 3.04924 78.7147 3.38821 78.7147 3.74978C78.692 4.11135 78.556 4.42773 78.3293 4.67631Z" fill="#EFEFEF" />
  <path d="M77.4005 3.18481C77.1058 3.18481 76.8564 3.43339 76.8564 3.72717C76.8564 4.02094 77.1058 4.26952 77.4005 4.26952C77.6951 4.26952 77.9445 4.02094 77.9445 3.72717C77.9445 3.43339 77.7178 3.18481 77.4005 3.18481Z" fill="#EFEFEF" />
  <path d="M42.7596 3.48237L43.6333 2.44416C43.8862 2.16297 43.9551 1.94668 43.9781 1.83853C43.2884 2.22786 42.6447 2.35764 42.2308 2.35764H42.0699L41.9779 2.27112C41.4262 1.8169 40.7364 1.57898 40.0008 1.57898C38.3914 1.57898 37.1269 2.83349 37.1269 4.28266C37.1269 4.36917 37.1269 4.49895 37.1499 4.58547L37.2189 5.01806L36.7361 4.99643C33.7933 4.90991 31.3793 2.53067 30.9884 2.11971C30.3447 3.20119 30.7125 4.2394 31.1034 4.88828L31.8851 6.09953L30.6436 5.45064C30.6666 6.35908 31.0344 7.07285 31.7471 7.59196L32.3679 8.02454L31.7471 8.26247C32.138 9.36557 33.0116 9.81979 33.6553 9.99282L34.506 10.2091L33.7013 10.7282C32.4138 11.5934 30.8045 11.5285 30.0918 11.4636C31.5402 12.4153 33.2645 12.6316 34.46 12.6316C35.3566 12.6316 36.0234 12.5451 36.1843 12.4802C42.6217 11.0527 42.9206 5.64531 42.9206 4.56384V4.41243L43.0585 4.32591C43.8402 3.63377 44.1621 3.26607 44.346 3.04978C44.277 3.07141 44.185 3.11467 44.0931 3.1363L42.7596 3.48237Z" fill="#EFEFEF" />
  <path d="M7.36369 5.68421H6.13641H5.6981V5.22581V3.80475V3.34635H6.13641H7.05687C7.29795 3.34635 7.49519 3.16299 7.49519 2.88795V0.458404C7.49519 0.206282 7.31986 0 7.05687 0H5.45702C3.72568 0 2.52031 1.28353 2.52031 3.18591V5.17997V5.63837H2.082H0.591725C0.284905 5.63837 0 5.89049 0 6.25722V7.90747C0 8.22835 0.241073 8.52632 0.591725 8.52632H2.03816H2.47648V8.98472V13.5917C2.47648 13.9126 2.71755 14.2105 3.06821 14.2105H5.12829C5.25978 14.2105 5.36936 14.1418 5.45702 14.0501C5.54469 13.9584 5.61043 13.798 5.61043 13.6604V9.00764V8.54924H6.07066H7.05687C7.34178 8.54924 7.56093 8.36588 7.60477 8.09083V8.06791V8.04499L7.91159 6.4635C7.9335 6.30306 7.91159 6.11969 7.78009 5.93633C7.73626 5.82173 7.53902 5.70713 7.36369 5.68421Z" fill="#EFEFEF" />
</svg>