<svg width="18" height="18" viewBox="0 0 18 18" fill="none" xmlns="http://www.w3.org/2000/svg">
<path fill-rule="evenodd" clip-rule="evenodd" d="M8.95227 0.45866H9.04756C10.8731 0.458648 12.3071 0.458641 13.4266 0.609155C14.5738 0.763393 15.484 1.08592 16.1992 1.80109C16.9143 2.51625 17.2369 3.42646 17.3911 4.57368C17.5416 5.69319 17.5416 7.12711 17.5416 8.95269V9.04799C17.5416 10.8736 17.5416 12.3075 17.3911 13.427C17.2369 14.5742 16.9143 15.4844 16.1992 16.1996C15.484 16.9147 14.5738 17.2373 13.4266 17.3915C12.3071 17.542 10.8731 17.542 9.04757 17.542H9.04756H8.95225H8.95224C7.12667 17.542 5.69278 17.542 4.57327 17.3915C3.42606 17.2373 2.51585 16.9147 1.80068 16.1996C1.08551 15.4844 0.762986 14.5742 0.608747 13.427C0.458233 12.3075 0.458241 10.8736 0.458252 9.04798V9.04797L0.458252 8.95268V8.95267C0.458241 7.12709 0.458233 5.69319 0.608747 4.57368C0.762986 3.42647 1.08551 2.51625 1.80068 1.80109C2.51585 1.08592 3.42606 0.763393 4.57327 0.609155C5.69278 0.458641 7.1267 0.458648 8.95227 0.45866ZM10.923 4.35747C10.923 3.93011 10.5786 3.58366 10.1538 3.58366C9.72893 3.58366 9.38453 3.93011 9.38453 4.35747L9.38453 10.9349C9.38453 12.0033 8.52354 12.8694 7.46146 12.8694C6.39937 12.8694 5.53838 12.0033 5.53838 10.9349C5.53838 9.86644 6.39937 9.00033 7.46146 9.00033C7.55549 9.00033 7.6475 9.00706 7.73715 9.01996C8.15771 9.08047 8.5474 8.78657 8.60755 8.36351C8.66771 7.94046 8.37555 7.54844 7.95499 7.48793C7.79341 7.46468 7.6286 7.45271 7.46146 7.45271C5.5497 7.45271 3.99992 9.01172 3.99992 10.9349C3.99992 12.858 5.5497 14.417 7.46146 14.417C9.37321 14.417 10.923 12.858 10.923 10.9349L10.923 7.08295C11.5895 7.55176 12.4101 7.83961 13.2307 7.83961C13.6555 7.83961 13.9999 7.49317 13.9999 7.0658C13.9999 6.63844 13.6555 6.29199 13.2307 6.29199C12.6841 6.29199 12.0861 6.06371 11.6277 5.67863C11.17 5.2941 10.923 4.81838 10.923 4.35747Z" fill="#3C434A"/>
</svg>
