<svg width="24" height="25" viewBox="0 0 24 25" fill="none" xmlns="http://www.w3.org/2000/svg">
  <path d="M10 13.729C10.1416 13.9609 10.3097 14.1804 10.5042 14.3828C11.7117 15.6395 13.5522 15.836 14.9576 14.9722C15.218 14.8121 15.4634 14.6157 15.6872 14.3828L18.9266 11.0114C20.3578 9.52184 20.3578 7.10676 18.9266 5.61718C17.4953 4.1276 15.1748 4.12761 13.7435 5.61718L13.03 6.35978" stroke="#141B34" stroke-width="1.5" stroke-linecap="round" />
  <path d="M10.9703 18.64L10.2565 19.3828C8.82526 20.8724 6.50471 20.8724 5.07345 19.3828C3.64218 17.8932 3.64218 15.4782 5.07345 13.9886L8.31287 10.6172C9.74413 9.12761 12.0647 9.1276 13.4959 10.6172C13.6904 10.8195 13.8584 11.039 14 11.2708" stroke="#141B34" stroke-width="1.5" stroke-linecap="round" />
</svg>