<svg width="264" height="194" viewBox="0 0 264 194" fill="none" xmlns="http://www.w3.org/2000/svg">
  <path d="M263.482 1.38653C263.463 1.111 263.225 0.90265 262.949 0.921157C262.674 0.939665 262.465 1.17802 262.484 1.45354L263.482 1.38653ZM228.506 80.0459L228.25 79.6166L228.506 80.0459ZM145.747 69.4976L146.209 69.3076L145.747 69.4976ZM156.162 36.8587L156.38 37.3087L156.162 36.8587ZM184.841 46.1023L184.468 46.4352L184.841 46.1023ZM151.8 129.707L152.036 130.147L151.8 129.707ZM74.6066 115.586L74.154 115.799L74.6066 115.586ZM81.6781 90.825L81.973 91.2287L81.6781 90.825ZM68.5734 186.508L68.4246 186.031L68.5734 186.508ZM0.909943 174.599L0.833725 174.105C0.653447 174.132 0.502598 174.256 0.440151 174.428C0.377703 174.599 0.413552 174.791 0.533703 174.928L0.909943 174.599ZM23.3896 171.638C23.6625 171.596 23.8496 171.34 23.8075 171.067C23.7654 170.794 23.5101 170.607 23.2371 170.649L23.3896 171.638ZM16.2109 192.84C16.3928 193.048 16.7087 193.069 16.9165 192.887C17.1243 192.705 17.1453 192.39 16.9634 192.182L16.2109 192.84ZM262.983 1.42003C262.484 1.45354 262.484 1.45358 262.484 1.45383C262.484 1.4542 262.484 1.45466 262.484 1.4554C262.484 1.45686 262.484 1.45917 262.484 1.46233C262.485 1.46862 262.485 1.47829 262.486 1.49127C262.488 1.51724 262.49 1.55647 262.493 1.60863C262.499 1.71297 262.507 1.86903 262.516 2.07411C262.534 2.48429 262.555 3.09052 262.569 3.87114C262.597 5.43246 262.594 7.69095 262.471 10.4735C262.227 16.0397 261.503 23.6968 259.591 32.0619C255.764 48.8038 247.194 68.3041 228.25 79.6166L228.763 80.4751C248.043 68.962 256.711 49.1494 260.566 32.2848C262.495 23.8466 263.224 16.1271 263.471 10.5174C263.594 7.71206 263.597 5.43284 263.569 3.85342C263.555 3.06367 263.533 2.44878 263.515 2.03042C263.506 1.82124 263.498 1.66119 263.491 1.55297C263.488 1.49887 263.486 1.45771 263.484 1.42986C263.483 1.41593 263.483 1.40533 263.482 1.39809C263.482 1.39448 263.482 1.3917 263.482 1.38977C263.482 1.3888 263.482 1.38799 263.482 1.38751C263.482 1.38691 263.482 1.38653 262.983 1.42003ZM228.25 79.6166C213.615 88.3556 195.711 92.2127 180.15 90.6479C164.581 89.0823 151.468 82.11 146.209 69.3076L145.284 69.6876C150.737 82.9621 164.279 90.057 180.05 91.6429C195.828 93.2295 213.947 89.3223 228.763 80.4751L228.25 79.6166ZM146.209 69.3076C144.616 65.4294 143.861 59.0008 145.174 52.7384C146.484 46.4874 149.836 40.4775 156.38 37.3087L155.944 36.4087C149.038 39.7528 145.547 46.0828 144.195 52.5332C142.846 58.9723 143.608 65.6066 145.284 69.6876L146.209 69.3076ZM156.38 37.3087C162.519 34.3359 168.108 35.0316 172.881 37.2566C177.675 39.4909 181.642 43.2676 184.468 46.4352L185.214 45.7695C182.354 42.5641 178.279 38.6694 173.304 36.3503C168.308 34.0219 162.4 33.2822 155.944 36.4087L156.38 37.3087ZM184.468 46.4352C196.156 59.5358 195.79 75.9969 188.546 91.3528C181.297 106.719 167.187 120.896 151.564 129.266L152.036 130.147C167.828 121.687 182.101 107.359 189.451 91.7794C196.805 76.189 197.252 59.2628 185.214 45.7695L184.468 46.4352ZM151.564 129.266C138.137 136.459 122.199 139.836 108.023 137.98C93.8581 136.125 81.4841 129.056 75.0592 115.374L74.154 115.799C80.7556 129.857 93.4713 137.083 107.893 138.972C122.303 140.859 138.45 137.426 152.036 130.147L151.564 129.266ZM75.0592 115.374C72.9876 110.962 72.4835 106.57 73.5961 102.476C74.7092 98.3793 77.4542 94.5288 81.973 91.2287L81.3832 90.4212C76.7196 93.827 73.8151 97.856 72.6311 102.213C71.4467 106.572 71.9981 111.208 74.154 115.799L75.0592 115.374ZM81.973 91.2287C86.3251 88.0504 90.7621 87.4208 95.1055 88.4923C99.4731 89.5699 103.776 92.3767 107.793 96.1286L108.476 95.3978C104.394 91.586 99.9437 88.656 95.345 87.5214C90.7221 86.3809 85.9801 87.064 81.3832 90.4212L81.973 91.2287ZM107.793 96.1286C121.785 109.196 120.281 129.011 111.014 147.002C101.752 164.985 84.836 180.912 68.4246 186.031L68.7223 186.985C85.4504 181.767 102.551 165.618 111.903 147.46C121.251 129.312 122.957 108.923 108.476 95.3978L107.793 96.1286ZM68.4246 186.031C55.5712 190.04 38.7811 187.104 25.1279 183.116C18.3159 181.126 12.3128 178.883 8.0127 177.137C5.86294 176.265 4.1396 175.516 2.9545 174.987C2.36197 174.722 1.90405 174.512 1.59473 174.368C1.44006 174.296 1.32255 174.241 1.24394 174.204C1.20464 174.185 1.17506 174.171 1.15542 174.162C1.14561 174.157 1.13828 174.154 1.13345 174.151C1.13105 174.15 1.12926 174.149 1.12812 174.149C1.12754 174.149 1.12716 174.148 1.12687 174.148C1.12663 174.148 1.12656 174.148 0.909943 174.599C0.693321 175.049 0.693561 175.05 0.693969 175.05C0.69432 175.05 0.694882 175.05 0.695582 175.051C0.696969 175.051 0.698983 175.052 0.701635 175.053C0.706924 175.056 0.714735 175.06 0.725038 175.065C0.745644 175.074 0.776202 175.089 0.816512 175.108C0.897101 175.146 1.01665 175.202 1.17341 175.275C1.48695 175.421 1.9493 175.633 2.54652 175.9C3.74092 176.434 5.47491 177.186 7.63653 178.064C11.9591 179.819 17.9949 182.074 24.8475 184.076C38.5233 188.071 55.5649 191.09 68.7223 186.985L68.4246 186.031ZM0.98616 175.093L23.3896 171.638L23.2371 170.649L0.833725 174.105L0.98616 175.093ZM0.533703 174.928L16.2109 192.84L16.9634 192.182L1.28618 174.27L0.533703 174.928Z" fill="white" fill-opacity="0.5" />
</svg>