<svg width="25" height="25" viewBox="0 0 25 25" fill="none" xmlns="http://www.w3.org/2000/svg">
<g clip-path="url(#clip0_3_1483)">
<path d="M5.76623 10.265C6.23412 8.84945 7.13709 7.61781 8.34635 6.7458C9.5556 5.87378 11.0094 5.40594 12.5002 5.409C14.1902 5.409 15.7182 6.009 16.9182 6.991L20.4102 3.5C18.2822 1.645 15.5552 0.5 12.5002 0.5C7.77023 0.5 3.69823 3.198 1.74023 7.15L5.76623 10.265Z" fill="#EA4335"/>
<path d="M16.5403 18.5131C15.4503 19.2161 14.0663 19.5911 12.5003 19.5911C11.0154 19.5941 9.56711 19.13 8.36054 18.2644C7.15398 17.3988 6.25025 16.1757 5.7773 14.7681L1.7373 17.8351C2.72855 19.8414 4.26257 21.5295 6.16513 22.7076C8.06768 23.8858 10.2625 24.5068 12.5003 24.5001C15.4333 24.5001 18.2353 23.4571 20.3343 21.5001L16.5413 18.5131H16.5403Z" fill="#34A853"/>
<path d="M20.334 21.5001C22.529 19.4521 23.954 16.4041 23.954 12.5001C23.954 11.7901 23.845 11.0271 23.682 10.3181H12.5V14.9551H18.936C18.619 16.5141 17.766 17.7211 16.541 18.5131L20.334 21.5001Z" fill="#4A90E2"/>
<path d="M5.77712 14.7679C5.53247 14.0368 5.40819 13.2708 5.40912 12.4999C5.40912 11.7179 5.53412 10.9669 5.76612 10.2649L1.74012 7.1499C0.916494 8.81259 0.49192 10.6444 0.500116 12.4999C0.500116 14.4199 0.945116 16.2299 1.73712 17.8349L5.77712 14.7679Z" fill="#FBBC05"/>
</g>
<defs>
<clipPath id="clip0_3_1483">
<rect width="24" height="24" fill="white" transform="translate(0.5 0.5)"/>
</clipPath>
</defs>
</svg>
