<svg width="16" height="16" viewBox="0 0 16 16" fill="none" xmlns="http://www.w3.org/2000/svg">
<path fill-rule="evenodd" clip-rule="evenodd" d="M8 0.833008C5.01483 0.833008 2.5 3.34539 2.5 6.39094C2.5 9.51108 5.07168 11.596 7.21805 12.9512L7.22668 12.9567L7.23551 12.9618C7.46811 13.0957 7.73159 13.1663 8 13.1663C8.26841 13.1663 8.53189 13.0957 8.76449 12.9618L8.7722 12.9573L8.77974 12.9526C10.9345 11.6077 13.5 9.50054 13.5 6.39094C13.5 3.34539 10.9852 0.833008 8 0.833008ZM8 3.99967C6.71134 3.99967 5.66667 5.04434 5.66667 6.33301C5.66667 7.62167 6.71134 8.66634 8 8.66634C9.28866 8.66634 10.3333 7.62167 10.3333 6.33301C10.3333 5.04434 9.28866 3.99967 8 3.99967Z" fill="#3C434A"/>
<path d="M3.99992 12.5C4.34739 12.5 4.63277 12.7658 4.66379 13.1052C4.67532 13.1179 4.69497 13.1369 4.72691 13.1621C4.84582 13.2558 5.0592 13.3693 5.38231 13.477C6.02155 13.6901 6.94706 13.8333 7.99992 13.8333C9.05277 13.8333 9.97828 13.6901 10.6175 13.477C10.9406 13.3693 11.154 13.2558 11.2729 13.1621C11.3049 13.1369 11.3245 13.1179 11.336 13.1052C11.3671 12.7658 11.6525 12.5 11.9999 12.5C12.3681 12.5 12.6666 12.7985 12.6666 13.1667C12.6666 13.6426 12.3766 13.9899 12.0982 14.2093C11.8123 14.4346 11.4399 14.6083 11.0392 14.7419C10.2307 15.0114 9.1562 15.1667 7.99992 15.1667C6.84363 15.1667 5.76915 15.0114 4.96067 14.7419C4.55992 14.6083 4.18752 14.4346 3.90161 14.2093C3.62322 13.9899 3.33325 13.6426 3.33325 13.1667C3.33325 12.7985 3.63173 12.5 3.99992 12.5Z" fill="#3C434A"/>
</svg>
