<svg width="73" height="72" viewBox="0 0 73 72" fill="none" xmlns="http://www.w3.org/2000/svg">
  <mask id="path-1-inside-1_2_2769" fill="white">
    <path fill-rule="evenodd" clip-rule="evenodd" d="M19.6802 14.422L19.8617 14.4408C20.6248 14.5201 21.3852 14.5992 22.1416 14.5915C25.5434 14.5567 28.7998 13.2078 31.2299 10.8271C31.7699 10.2976 32.2519 9.70401 32.7356 9.10831L32.8504 8.9667C33.5105 8.15459 33.9242 7.64667 34.2497 7.27266C34.5255 6.95577 34.6312 6.86096 34.6399 6.85301C35.6255 6.04899 37.0406 6.04899 38.0262 6.85298C38.0349 6.86075 38.1403 6.95549 38.4164 7.27266C38.7419 7.64667 39.1556 8.15459 39.8157 8.9667L39.9309 9.10834C40.4142 9.70401 40.8962 10.2977 41.4362 10.8271C43.8663 13.2078 47.1227 14.5567 50.5243 14.5915C51.2807 14.5992 52.0412 14.5202 52.8042 14.4408L52.9859 14.422C54.0268 14.3145 54.6785 14.2479 55.173 14.2135C55.5924 14.1844 55.7341 14.1921 55.746 14.1928C57.0113 14.3211 58.0119 15.3217 58.1404 16.5871C58.141 16.5985 58.1488 16.74 58.1197 17.1599C58.0851 17.6545 58.0186 18.3062 57.9111 19.3472L57.8922 19.5284C57.8131 20.2915 57.734 21.0522 57.7417 21.8086C57.7764 25.2103 59.1253 28.4668 61.506 30.8967C62.0355 31.4371 62.6291 31.9187 63.2245 32.4024L63.3662 32.5175C64.1786 33.1776 64.6864 33.5913 65.0606 33.9165C65.3763 34.1916 65.4715 34.2973 65.4799 34.3067C66.2842 35.2923 66.2842 36.7077 65.4799 37.6933C65.4715 37.7028 65.3763 37.8085 65.0606 38.0836C64.6864 38.4087 64.1786 38.8224 63.3662 39.4825L63.2248 39.5977C62.6295 40.0814 62.0355 40.563 61.506 41.1034C59.1253 43.5331 57.7764 46.7898 57.7417 50.1915C57.734 50.9478 57.8131 51.7084 57.8922 52.4714L57.9111 52.653C58.0186 53.6939 58.0851 54.3456 58.1197 54.8402C58.1488 55.2605 58.141 55.4019 58.1404 55.4131C58.0119 56.6784 57.0113 57.6791 55.746 57.8071C55.7348 57.8078 55.5938 57.8156 55.173 57.7865C54.6785 57.7522 54.0268 57.6857 52.9859 57.5782L52.8042 57.5593C52.0412 57.4799 51.2807 57.4008 50.5243 57.4085C47.1227 57.4435 43.8663 58.792 41.4362 61.1731C40.8962 61.7023 40.4142 62.2959 39.9309 62.8916L39.8157 63.0334C39.1556 63.8454 38.7419 64.3536 38.4164 64.7274C38.1417 65.0434 38.0356 65.1386 38.0262 65.147C37.0406 65.951 35.6255 65.951 34.6399 65.147C34.6305 65.1386 34.5244 65.0434 34.2497 64.7274C33.9242 64.3536 33.5105 63.8454 32.8504 63.0334L32.7356 62.8919C32.2519 62.2962 31.7703 61.7023 31.2299 61.1731C28.7998 58.792 25.5433 57.4435 22.1416 57.4085C21.3852 57.4008 20.6248 57.4799 19.8617 57.5593L19.6802 57.5782C18.6392 57.6857 17.9875 57.7522 17.4929 57.7865C17.0729 57.8156 16.9315 57.8078 16.9201 57.8071C15.6548 57.6791 14.6541 56.6784 14.5258 55.4128C14.5251 55.4009 14.5175 55.2591 14.5466 54.8402C14.5809 54.3456 14.6475 53.6939 14.755 52.653L14.7738 52.4714C14.8532 51.7084 14.9322 50.9478 14.9245 50.1915C14.8897 46.7898 13.5409 43.5331 11.1601 41.1034C10.6307 40.563 10.0371 40.0814 9.44145 39.5977L9.29973 39.4825C8.48763 38.8224 7.97967 38.4087 7.6057 38.0836C7.28856 37.8074 7.19382 37.7017 7.18601 37.693C6.38203 36.7077 6.38203 35.2923 7.18601 34.3071C7.19382 34.2983 7.28853 34.1926 7.6057 33.9165C7.97967 33.5913 8.48763 33.1776 9.29973 32.5175L9.44134 32.4024C10.037 31.919 10.6307 31.4371 11.1601 30.8967C13.5409 28.4668 14.8897 25.2103 14.9245 21.8086C14.9322 21.0522 14.8532 20.2917 14.7738 19.5286L14.755 19.3472C14.6475 18.3062 14.5809 17.6545 14.5466 17.1599C14.5175 16.7408 14.5251 16.5991 14.5258 16.5872C14.6541 15.3218 15.6548 14.3211 16.9202 14.1928C16.9321 14.1921 17.0739 14.1844 17.4929 14.2135C17.9875 14.2479 18.6392 14.3145 19.6802 14.422ZM7.18601 37.693C7.18584 37.693 7.18608 37.693 7.18601 37.693V37.693ZM16.9201 57.8071C16.9197 57.8071 16.9201 57.8071 16.9201 57.8071V57.8071ZM38.0262 65.147C38.0255 65.1477 38.0269 65.1463 38.0262 65.147V65.147ZM55.746 14.1928C55.746 14.1928 55.7463 14.1928 55.746 14.1928V14.1928ZM28.7764 5.65538C30.0517 4.0864 30.6895 3.3018 31.3135 2.79122C34.2339 0.402926 38.4322 0.402926 41.3526 2.79122C41.9766 3.3018 42.6143 4.08629 43.8897 5.65528C44.49 6.39357 44.7899 6.76285 45.1105 7.07698C46.5725 8.50932 48.5314 9.32083 50.5782 9.34176C51.0269 9.34634 51.5001 9.29748 52.4465 9.19973C54.458 8.99204 55.4636 8.88819 56.2661 8.96859C60.0195 9.34463 62.9886 12.3135 63.3645 16.0671C63.445 16.8696 63.341 17.8752 63.1335 19.8865C63.0355 20.8329 62.9868 21.3061 62.9914 21.7549C63.0124 23.8015 63.8237 25.7607 65.2562 27.2226C65.5702 27.5432 65.9394 27.8432 66.6776 28.4432C68.2466 29.7184 69.0313 30.3563 69.542 30.9807C71.93 33.9007 71.93 38.0993 69.542 41.0194C69.0313 41.6438 68.2466 42.2815 66.6776 43.5565C65.9394 44.1564 65.5702 44.4567 65.2562 44.7773C63.8237 46.2393 63.0124 48.1986 62.9914 50.245C62.9868 50.6941 63.0355 51.1673 63.1335 52.1137C63.341 54.1248 63.445 55.1303 63.3645 55.9329C62.9886 59.6866 60.0195 62.6554 56.2661 63.0316C55.4636 63.1118 54.458 63.0082 52.4465 62.8003C51.5001 62.7026 51.0269 62.6536 50.5782 62.6582C48.5314 62.6792 46.5725 63.4908 45.1105 64.923C44.7899 65.2373 44.49 65.6062 43.8897 66.3444C42.6143 67.9134 41.9766 68.6981 41.3526 69.2088C38.4322 71.5972 34.2339 71.5972 31.3135 69.2088C30.6895 68.6981 30.0518 67.9138 28.7764 66.3447C28.1766 65.6069 27.8761 65.2373 27.5556 64.923C26.0937 63.4908 24.1345 62.6792 22.088 62.6582C21.6391 62.6536 21.1659 62.7026 20.2195 62.8003C18.2083 63.0082 17.2026 63.1118 16.4002 63.0316C12.6465 62.6554 9.67766 59.6866 9.30162 55.9329C9.22123 55.1303 9.32507 54.1248 9.53276 52.1137C9.63048 51.1673 9.67934 50.6941 9.67476 50.245C9.65386 48.1986 8.84235 46.2393 7.41001 44.7773C7.09589 44.4567 6.72674 44.1568 5.98845 43.5569C4.41947 42.2818 3.63484 41.6438 3.12426 41.0194C0.735925 38.0993 0.735925 33.9007 3.12426 30.9807C3.63484 30.3563 4.41933 29.7186 5.98831 28.4434C6.72664 27.8433 7.09585 27.5432 7.41001 27.2226C8.84235 25.7607 9.65386 23.8015 9.67476 21.7549C9.67934 21.3061 9.63048 20.8329 9.53276 19.8865C9.32507 17.8753 9.22123 16.8696 9.30162 16.0671C9.67766 12.3135 12.6465 9.34463 16.4002 8.96859C17.2026 8.88819 18.2082 8.99204 20.2194 9.19973C21.1658 9.29748 21.6391 9.34634 22.088 9.34176C24.1345 9.32083 26.0937 8.50932 27.5556 7.07698C27.8762 6.76285 28.1763 6.39367 28.7764 5.65538ZM48.6896 30.8561C49.7148 29.8309 49.7148 28.169 48.6896 27.1439C47.6645 26.1187 46.0027 26.1187 44.9775 27.1439L32.8336 39.2876L27.6897 34.144C26.6646 33.1188 25.0025 33.1188 23.9774 34.144C22.9523 35.1691 22.9523 36.8309 23.9774 37.8561L30.9775 44.8561C32.0027 45.8812 33.6645 45.8812 34.6896 44.8561L48.6896 30.8561Z" />
  </mask>
  <path fill-rule="evenodd" clip-rule="evenodd" d="M19.6802 14.422L19.8617 14.4408C20.6248 14.5201 21.3852 14.5992 22.1416 14.5915C25.5434 14.5567 28.7998 13.2078 31.2299 10.8271C31.7699 10.2976 32.2519 9.70401 32.7356 9.10831L32.8504 8.9667C33.5105 8.15459 33.9242 7.64667 34.2497 7.27266C34.5255 6.95577 34.6312 6.86096 34.6399 6.85301C35.6255 6.04899 37.0406 6.04899 38.0262 6.85298C38.0349 6.86075 38.1403 6.95549 38.4164 7.27266C38.7419 7.64667 39.1556 8.15459 39.8157 8.9667L39.9309 9.10834C40.4142 9.70401 40.8962 10.2977 41.4362 10.8271C43.8663 13.2078 47.1227 14.5567 50.5243 14.5915C51.2807 14.5992 52.0412 14.5202 52.8042 14.4408L52.9859 14.422C54.0268 14.3145 54.6785 14.2479 55.173 14.2135C55.5924 14.1844 55.7341 14.1921 55.746 14.1928C57.0113 14.3211 58.0119 15.3217 58.1404 16.5871C58.141 16.5985 58.1488 16.74 58.1197 17.1599C58.0851 17.6545 58.0186 18.3062 57.9111 19.3472L57.8922 19.5284C57.8131 20.2915 57.734 21.0522 57.7417 21.8086C57.7764 25.2103 59.1253 28.4668 61.506 30.8967C62.0355 31.4371 62.6291 31.9187 63.2245 32.4024L63.3662 32.5175C64.1786 33.1776 64.6864 33.5913 65.0606 33.9165C65.3763 34.1916 65.4715 34.2973 65.4799 34.3067C66.2842 35.2923 66.2842 36.7077 65.4799 37.6933C65.4715 37.7028 65.3763 37.8085 65.0606 38.0836C64.6864 38.4087 64.1786 38.8224 63.3662 39.4825L63.2248 39.5977C62.6295 40.0814 62.0355 40.563 61.506 41.1034C59.1253 43.5331 57.7764 46.7898 57.7417 50.1915C57.734 50.9478 57.8131 51.7084 57.8922 52.4714L57.9111 52.653C58.0186 53.6939 58.0851 54.3456 58.1197 54.8402C58.1488 55.2605 58.141 55.4019 58.1404 55.4131C58.0119 56.6784 57.0113 57.6791 55.746 57.8071C55.7348 57.8078 55.5938 57.8156 55.173 57.7865C54.6785 57.7522 54.0268 57.6857 52.9859 57.5782L52.8042 57.5593C52.0412 57.4799 51.2807 57.4008 50.5243 57.4085C47.1227 57.4435 43.8663 58.792 41.4362 61.1731C40.8962 61.7023 40.4142 62.2959 39.9309 62.8916L39.8157 63.0334C39.1556 63.8454 38.7419 64.3536 38.4164 64.7274C38.1417 65.0434 38.0356 65.1386 38.0262 65.147C37.0406 65.951 35.6255 65.951 34.6399 65.147C34.6305 65.1386 34.5244 65.0434 34.2497 64.7274C33.9242 64.3536 33.5105 63.8454 32.8504 63.0334L32.7356 62.8919C32.2519 62.2962 31.7703 61.7023 31.2299 61.1731C28.7998 58.792 25.5433 57.4435 22.1416 57.4085C21.3852 57.4008 20.6248 57.4799 19.8617 57.5593L19.6802 57.5782C18.6392 57.6857 17.9875 57.7522 17.4929 57.7865C17.0729 57.8156 16.9315 57.8078 16.9201 57.8071C15.6548 57.6791 14.6541 56.6784 14.5258 55.4128C14.5251 55.4009 14.5175 55.2591 14.5466 54.8402C14.5809 54.3456 14.6475 53.6939 14.755 52.653L14.7738 52.4714C14.8532 51.7084 14.9322 50.9478 14.9245 50.1915C14.8897 46.7898 13.5409 43.5331 11.1601 41.1034C10.6307 40.563 10.0371 40.0814 9.44145 39.5977L9.29973 39.4825C8.48763 38.8224 7.97967 38.4087 7.6057 38.0836C7.28856 37.8074 7.19382 37.7017 7.18601 37.693C6.38203 36.7077 6.38203 35.2923 7.18601 34.3071C7.19382 34.2983 7.28853 34.1926 7.6057 33.9165C7.97967 33.5913 8.48763 33.1776 9.29973 32.5175L9.44134 32.4024C10.037 31.919 10.6307 31.4371 11.1601 30.8967C13.5409 28.4668 14.8897 25.2103 14.9245 21.8086C14.9322 21.0522 14.8532 20.2917 14.7738 19.5286L14.755 19.3472C14.6475 18.3062 14.5809 17.6545 14.5466 17.1599C14.5175 16.7408 14.5251 16.5991 14.5258 16.5872C14.6541 15.3218 15.6548 14.3211 16.9202 14.1928C16.9321 14.1921 17.0739 14.1844 17.4929 14.2135C17.9875 14.2479 18.6392 14.3145 19.6802 14.422ZM7.18601 37.693C7.18584 37.693 7.18608 37.693 7.18601 37.693V37.693ZM16.9201 57.8071C16.9197 57.8071 16.9201 57.8071 16.9201 57.8071V57.8071ZM38.0262 65.147C38.0255 65.1477 38.0269 65.1463 38.0262 65.147V65.147ZM55.746 14.1928C55.746 14.1928 55.7463 14.1928 55.746 14.1928V14.1928ZM28.7764 5.65538C30.0517 4.0864 30.6895 3.3018 31.3135 2.79122C34.2339 0.402926 38.4322 0.402926 41.3526 2.79122C41.9766 3.3018 42.6143 4.08629 43.8897 5.65528C44.49 6.39357 44.7899 6.76285 45.1105 7.07698C46.5725 8.50932 48.5314 9.32083 50.5782 9.34176C51.0269 9.34634 51.5001 9.29748 52.4465 9.19973C54.458 8.99204 55.4636 8.88819 56.2661 8.96859C60.0195 9.34463 62.9886 12.3135 63.3645 16.0671C63.445 16.8696 63.341 17.8752 63.1335 19.8865C63.0355 20.8329 62.9868 21.3061 62.9914 21.7549C63.0124 23.8015 63.8237 25.7607 65.2562 27.2226C65.5702 27.5432 65.9394 27.8432 66.6776 28.4432C68.2466 29.7184 69.0313 30.3563 69.542 30.9807C71.93 33.9007 71.93 38.0993 69.542 41.0194C69.0313 41.6438 68.2466 42.2815 66.6776 43.5565C65.9394 44.1564 65.5702 44.4567 65.2562 44.7773C63.8237 46.2393 63.0124 48.1986 62.9914 50.245C62.9868 50.6941 63.0355 51.1673 63.1335 52.1137C63.341 54.1248 63.445 55.1303 63.3645 55.9329C62.9886 59.6866 60.0195 62.6554 56.2661 63.0316C55.4636 63.1118 54.458 63.0082 52.4465 62.8003C51.5001 62.7026 51.0269 62.6536 50.5782 62.6582C48.5314 62.6792 46.5725 63.4908 45.1105 64.923C44.7899 65.2373 44.49 65.6062 43.8897 66.3444C42.6143 67.9134 41.9766 68.6981 41.3526 69.2088C38.4322 71.5972 34.2339 71.5972 31.3135 69.2088C30.6895 68.6981 30.0518 67.9138 28.7764 66.3447C28.1766 65.6069 27.8761 65.2373 27.5556 64.923C26.0937 63.4908 24.1345 62.6792 22.088 62.6582C21.6391 62.6536 21.1659 62.7026 20.2195 62.8003C18.2083 63.0082 17.2026 63.1118 16.4002 63.0316C12.6465 62.6554 9.67766 59.6866 9.30162 55.9329C9.22123 55.1303 9.32507 54.1248 9.53276 52.1137C9.63048 51.1673 9.67934 50.6941 9.67476 50.245C9.65386 48.1986 8.84235 46.2393 7.41001 44.7773C7.09589 44.4567 6.72674 44.1568 5.98845 43.5569C4.41947 42.2818 3.63484 41.6438 3.12426 41.0194C0.735925 38.0993 0.735925 33.9007 3.12426 30.9807C3.63484 30.3563 4.41933 29.7186 5.98831 28.4434C6.72664 27.8433 7.09585 27.5432 7.41001 27.2226C8.84235 25.7607 9.65386 23.8015 9.67476 21.7549C9.67934 21.3061 9.63048 20.8329 9.53276 19.8865C9.32507 17.8753 9.22123 16.8696 9.30162 16.0671C9.67766 12.3135 12.6465 9.34463 16.4002 8.96859C17.2026 8.88819 18.2082 8.99204 20.2194 9.19973C21.1658 9.29748 21.6391 9.34634 22.088 9.34176C24.1345 9.32083 26.0937 8.50932 27.5556 7.07698C27.8762 6.76285 28.1763 6.39367 28.7764 5.65538ZM48.6896 30.8561C49.7148 29.8309 49.7148 28.169 48.6896 27.1439C47.6645 26.1187 46.0027 26.1187 44.9775 27.1439L32.8336 39.2876L27.6897 34.144C26.6646 33.1188 25.0025 33.1188 23.9774 34.144C22.9523 35.1691 22.9523 36.8309 23.9774 37.8561L30.9775 44.8561C32.0027 45.8812 33.6645 45.8812 34.6896 44.8561L48.6896 30.8561Z" fill="#3C434A" />
  <path d="M34.6399 6.85301L34.3492 6.27163L33.9899 6.45129V6.85301H34.6399ZM65.4799 34.3067L65.9395 33.8471L65.7491 33.6567H65.4799V34.3067ZM14.5258 16.5872L13.8823 16.4952L13.8758 16.541V16.5872H14.5258ZM15.1693 16.6791C15.1689 16.6814 15.1676 16.6909 15.1654 16.7031C15.1647 16.7066 15.1638 16.7118 15.1625 16.718C15.1613 16.7236 15.1592 16.7336 15.1561 16.746C15.1545 16.7523 15.1521 16.7613 15.149 16.772C15.146 16.7819 15.1408 16.7985 15.1331 16.8187C15.1292 16.8291 15.1236 16.843 15.1162 16.8591C15.109 16.8745 15.0978 16.8974 15.0818 16.9238C15.0736 16.9374 15.0629 16.9539 15.0496 16.972C15.0364 16.9899 15.0186 17.0122 14.9958 17.0361C14.9732 17.0598 14.9417 17.0892 14.9005 17.1182C14.8592 17.1473 14.8028 17.1799 14.7314 17.2037C14.6581 17.2281 14.5719 17.2423 14.4778 17.2353C14.3833 17.2283 14.2977 17.2013 14.2249 17.1632C14.1539 17.1262 14.1004 17.0816 14.0621 17.0426C14.0239 17.0037 13.9966 16.9661 13.9776 16.9363C13.9585 16.9063 13.9446 16.879 13.9347 16.8574C13.9247 16.8355 13.9172 16.8159 13.9117 16.8001C13.901 16.7691 13.8945 16.743 13.8908 16.7256C13.8834 16.6918 13.8803 16.6645 13.879 16.6509C13.8774 16.6354 13.8767 16.6226 13.8764 16.6142C13.8757 16.5978 13.8758 16.5847 13.8759 16.578C13.876 16.5704 13.8762 16.5641 13.8764 16.5598C13.877 16.5449 13.878 16.5332 13.8785 16.5283C13.8791 16.5219 13.8798 16.5144 13.8809 16.5061C13.8814 16.5018 13.8822 16.4956 13.8834 16.4881C13.8843 16.4821 13.8866 16.4675 13.8906 16.4491C13.8926 16.4402 13.8965 16.4227 13.903 16.401C13.9063 16.39 13.9117 16.3732 13.9194 16.3532C13.9233 16.343 13.9286 16.3301 13.9353 16.3156C13.9418 16.3013 13.9511 16.2825 13.9635 16.2611C13.9755 16.2404 13.9939 16.2112 14.0201 16.1789C14.0452 16.1478 14.0872 16.1015 14.1491 16.0574C14.2122 16.0126 14.3096 15.9606 14.4382 15.9431C14.5027 15.9343 14.5693 15.9351 14.6357 15.9465C14.7019 15.9579 14.7616 15.9787 14.8136 16.0044C14.9155 16.0547 14.983 16.1211 15.0229 16.1684C15.0634 16.2164 15.0892 16.2612 15.1045 16.2912C15.1204 16.3224 15.1312 16.3496 15.1382 16.3693C15.1454 16.3894 15.1505 16.407 15.1541 16.4205C15.161 16.4468 15.165 16.4685 15.1672 16.4818C15.1696 16.4961 15.171 16.5081 15.172 16.5167C15.1738 16.5334 15.1746 16.5469 15.175 16.5545C15.1757 16.5699 15.1758 16.582 15.1758 16.5872H13.8758C13.8758 16.5924 13.8758 16.6044 13.8766 16.6198C13.877 16.6274 13.8778 16.6409 13.8796 16.6576C13.8806 16.6662 13.882 16.6782 13.8844 16.6925C13.8866 16.7059 13.8906 16.7276 13.8975 16.7539C13.9011 16.7674 13.9062 16.7849 13.9134 16.8051C13.9204 16.8247 13.9312 16.852 13.9471 16.8832C13.9624 16.9132 13.9882 16.9579 14.0287 17.0059C14.0686 17.0533 14.1361 17.1197 14.238 17.17C14.29 17.1957 14.3497 17.2165 14.4159 17.2278C14.4823 17.2392 14.5489 17.24 14.6134 17.2313C14.742 17.2138 14.8394 17.1618 14.9025 17.1169C14.9644 17.0729 15.0064 17.0266 15.0315 16.9955C15.0577 16.9632 15.0761 16.9339 15.0881 16.9132C15.1005 16.8919 15.1098 16.873 15.1163 16.8588C15.123 16.8442 15.1283 16.8314 15.1322 16.8211C15.1399 16.8011 15.1453 16.7844 15.1486 16.7733C15.1551 16.7517 15.159 16.7342 15.161 16.7253C15.165 16.7068 15.1673 16.6922 15.1682 16.6863C15.1694 16.6787 15.1702 16.6725 15.1707 16.6682C15.1718 16.6598 15.1726 16.6523 15.1731 16.646C15.1736 16.641 15.1746 16.6293 15.1752 16.6144C15.1754 16.6101 15.1756 16.6037 15.1757 16.5961C15.1758 16.5894 15.1759 16.5763 15.1752 16.5599C15.1749 16.5515 15.1742 16.5388 15.1727 16.5232C15.1713 16.5097 15.1683 16.4824 15.1609 16.4485C15.1571 16.4312 15.1507 16.405 15.1399 16.3741C15.1344 16.3582 15.1269 16.3386 15.1169 16.3168C15.1071 16.2952 15.0932 16.2679 15.074 16.2378C15.0551 16.2081 15.0277 16.1704 14.9895 16.1316C14.9512 16.0925 14.8977 16.048 14.8267 16.0109C14.7539 15.9729 14.6683 15.9458 14.5738 15.9388C14.4797 15.9319 14.3936 15.946 14.3203 15.9704C14.2488 15.9943 14.1924 16.0268 14.1512 16.0559C14.1099 16.085 14.0785 16.1144 14.0559 16.138C14.033 16.1619 14.0152 16.1842 14.002 16.2021C13.9887 16.2203 13.9781 16.2367 13.9699 16.2503C13.9538 16.2768 13.9426 16.2996 13.9355 16.3151C13.928 16.3312 13.9224 16.3451 13.9185 16.3554C13.9108 16.3756 13.9056 16.3923 13.9027 16.4022C13.8995 16.4129 13.8971 16.4218 13.8955 16.4282C13.8924 16.4406 13.8903 16.4506 13.8891 16.4562C13.8878 16.4624 13.8869 16.4675 13.8862 16.4711C13.884 16.4833 13.8827 16.4929 13.8823 16.4952L15.1693 16.6791ZM6.66906 38.087L6.67119 38.0898L7.7051 37.3017L7.70296 37.2989L6.66906 38.087ZM65.0202 34.7663C65.0084 34.7545 64.9682 34.7141 64.9296 34.6527C64.9115 34.6239 64.8715 34.556 64.8482 34.4596C64.8252 34.3647 64.7999 34.1551 64.9391 33.9463C65.0791 33.7363 65.2842 33.6788 65.3844 33.6639C65.4854 33.6489 65.5658 33.6615 65.6027 33.6686C65.6816 33.6837 65.7402 33.7103 65.7705 33.7255C65.8055 33.7429 65.8463 33.7673 65.8882 33.8012C65.9095 33.8184 65.939 33.8444 65.97 33.88C65.9982 33.9124 66.0469 33.9745 66.0833 34.0654C66.1209 34.1595 66.1579 34.3196 66.099 34.5042C66.0386 34.6937 65.9097 34.8077 65.8104 34.8663C65.7185 34.9207 65.6348 34.9395 65.5917 34.947C65.5438 34.9554 65.5044 34.9567 65.4799 34.9567V33.6567C65.4553 33.6567 65.4158 33.6581 65.3679 33.6664C65.3248 33.674 65.241 33.6928 65.1491 33.7471C65.0498 33.8058 64.9209 33.9198 64.8605 34.1093C64.8016 34.294 64.8386 34.4541 64.8763 34.5482C64.9126 34.639 64.9613 34.7012 64.9895 34.7336C65.0205 34.7692 65.0501 34.7953 65.0714 34.8125C65.1133 34.8464 65.1542 34.8707 65.1892 34.8882C65.2195 34.9034 65.2782 34.93 65.3572 34.9452C65.394 34.9523 65.4745 34.9648 65.5755 34.9498C65.6757 34.9349 65.8808 34.8774 66.0208 34.6674C66.16 34.4586 66.1347 34.249 66.1118 34.1541C66.0884 34.0577 66.0484 33.9898 66.0303 33.9609C65.9916 33.8995 65.9514 33.859 65.9395 33.8471L65.0202 34.7663ZM55.8108 13.546L55.8073 13.5457L55.6777 14.8392L55.6812 14.8396L55.8108 13.546ZM34.9306 7.43439C34.9214 7.439 34.9016 7.44869 34.8755 7.45883C34.8625 7.46386 34.8399 7.4722 34.811 7.48008C34.7907 7.4856 34.7256 7.50295 34.6401 7.50295C34.597 7.50295 34.5132 7.49894 34.4152 7.46282C34.31 7.42402 34.1649 7.33777 34.0705 7.1662C33.9779 6.99769 33.9824 6.83439 34.0011 6.73399C34.019 6.63791 34.0545 6.56781 34.0749 6.53186C34.1157 6.4601 34.1608 6.41326 34.1774 6.39641C34.1997 6.37379 34.2199 6.35675 34.234 6.34542C34.276 6.3118 34.3454 6.26482 34.4419 6.23396C34.4707 6.22474 34.5158 6.21246 34.5725 6.20655C34.6258 6.20099 34.7202 6.19766 34.8311 6.23178C34.9534 6.26942 35.0878 6.35145 35.1827 6.49532C35.2719 6.63078 35.2899 6.76617 35.2899 6.85301H33.9899C33.9899 6.93986 34.0079 7.07527 34.0972 7.21073C34.192 7.35461 34.3264 7.43665 34.4488 7.47429C34.5597 7.50841 34.6541 7.50509 34.7074 7.49953C34.7641 7.49361 34.8093 7.48133 34.8381 7.47211C34.9346 7.44122 35.004 7.39421 35.0461 7.36055C35.0603 7.34922 35.0804 7.33217 35.1027 7.30954C35.1194 7.29268 35.1645 7.24583 35.2052 7.17407C35.2257 7.13812 35.2612 7.06801 35.2791 6.97193C35.2978 6.87153 35.3023 6.70822 35.2096 6.53971C35.1153 6.36814 34.9702 6.28189 34.8649 6.24308C34.767 6.20696 34.6831 6.20295 34.6401 6.20295C34.5545 6.20295 34.4894 6.22031 34.4692 6.22583C34.4402 6.23372 34.4176 6.24206 34.4046 6.2471C34.3785 6.25726 34.3585 6.26698 34.3492 6.27163L34.9306 7.43439ZM19.6802 14.422L19.8144 13.1289L19.8138 13.1289L19.6802 14.422ZM19.8617 14.4408L19.996 13.1478L19.9959 13.1478L19.8617 14.4408ZM22.1416 14.5915L22.1283 13.2916H22.1283L22.1416 14.5915ZM31.2299 10.8271L32.1397 11.7557L32.1399 11.7554L31.2299 10.8271ZM32.7356 9.10831L33.7448 9.92777L33.7454 9.92696L32.7356 9.10831ZM32.8504 8.9667L31.8416 8.14673L31.8405 8.14804L32.8504 8.9667ZM34.2497 7.27266L33.2691 6.4192L33.269 6.41922L34.2497 7.27266ZM34.6399 6.85301L33.8182 5.84568L33.7915 5.86743L33.766 5.89057L34.6399 6.85301ZM38.0262 6.85298L38.8894 5.88092L38.869 5.86284L38.8479 5.84562L38.0262 6.85298ZM38.4164 7.27266L39.3971 6.41922L39.3969 6.41901L38.4164 7.27266ZM39.8157 8.9667L38.8069 9.78667L38.807 9.78674L39.8157 8.9667ZM39.9309 9.10834L40.9404 8.28921L40.9396 8.2883L39.9309 9.10834ZM41.4362 10.8271L40.5262 11.7554L40.5265 11.7557L41.4362 10.8271ZM50.5243 14.5915L50.5376 13.2916H50.5376L50.5243 14.5915ZM52.8042 14.4408L52.6702 13.1477L52.6698 13.1478L52.8042 14.4408ZM52.9859 14.422L52.8523 13.1289L52.8518 13.1289L52.9859 14.422ZM55.173 14.2135L55.0831 12.9166L55.083 12.9166L55.173 14.2135ZM58.1404 16.5871L59.4379 16.5077L59.4363 16.4817L59.4337 16.4558L58.1404 16.5871ZM58.1197 17.1599L59.4165 17.2507L59.4166 17.2496L58.1197 17.1599ZM57.9111 19.3472L59.2041 19.4821L59.2042 19.4807L57.9111 19.3472ZM57.8922 19.5284L56.5992 19.3935L56.5991 19.3944L57.8922 19.5284ZM57.7417 21.8086L56.4418 21.8218V21.8218L57.7417 21.8086ZM61.506 30.8967L60.5774 31.8065L60.5774 31.8065L61.506 30.8967ZM63.2245 32.4024L62.4047 33.4113L62.4048 33.4114L63.2245 32.4024ZM63.3662 32.5175L64.186 31.5086L64.1859 31.5085L63.3662 32.5175ZM65.0606 33.9165L65.9146 32.9364L65.9133 32.9352L65.0606 33.9165ZM65.4799 34.3067L66.4871 33.4848L66.4697 33.4636L66.4515 33.4431L65.4799 34.3067ZM65.4799 37.6933L66.4515 38.557L66.4697 38.5365L66.4871 38.5152L65.4799 37.6933ZM65.0606 38.0836L65.9133 39.0648L65.9146 39.0637L65.0606 38.0836ZM63.3662 39.4825L62.5464 38.4736L62.5453 38.4745L63.3662 39.4825ZM63.2248 39.5977L64.0446 40.6066L64.0457 40.6057L63.2248 39.5977ZM61.506 41.1034L60.5774 40.1935L60.5774 40.1936L61.506 41.1034ZM57.7417 50.1915L56.4418 50.1782V50.1783L57.7417 50.1915ZM57.8922 52.4714L56.5991 52.6054L56.5992 52.606L57.8922 52.4714ZM57.9111 52.653L59.2042 52.5196L59.2041 52.5185L57.9111 52.653ZM58.1197 54.8402L59.4166 54.7506L59.4165 54.7493L58.1197 54.8402ZM58.1404 55.4131L59.4337 55.5444L59.4362 55.5194L59.4378 55.4942L58.1404 55.4131ZM55.746 57.8071L55.8271 59.1046L55.8521 59.1031L55.8769 59.1005L55.746 57.8071ZM55.173 57.7865L55.0831 59.0834L55.0835 59.0834L55.173 57.7865ZM52.9859 57.5782L52.8514 58.8713L52.8524 58.8714L52.9859 57.5782ZM52.8042 57.5593L52.6696 58.8524L52.6697 58.8524L52.8042 57.5593ZM50.5243 57.4085L50.5111 56.1086H50.511L50.5243 57.4085ZM41.4362 61.1731L40.5264 60.2445L40.5264 60.2446L41.4362 61.1731ZM39.9309 62.8916L40.9399 63.7113L40.9404 63.7107L39.9309 62.8916ZM39.8157 63.0334L40.8245 63.8534L40.8248 63.853L39.8157 63.0334ZM38.4164 64.7274L37.436 63.8736L37.4353 63.8745L38.4164 64.7274ZM34.6399 65.147L33.7763 66.1186L33.7969 66.1369L33.8182 66.1544L34.6399 65.147ZM34.2497 64.7274L35.2308 63.8745L35.2301 63.8736L34.2497 64.7274ZM32.8504 63.0334L31.8411 63.8527L31.8416 63.8534L32.8504 63.0334ZM32.7356 62.8919L33.7449 62.0726L33.7448 62.0725L32.7356 62.8919ZM31.2299 61.1731L30.32 62.1017L30.3203 62.1019L31.2299 61.1731ZM22.1416 57.4085L22.155 56.1086H22.1549L22.1416 57.4085ZM19.8617 57.5593L19.7271 56.2663L19.727 56.2663L19.8617 57.5593ZM19.6802 57.5782L19.8137 58.8714L19.8149 58.8713L19.6802 57.5782ZM17.4929 57.7865L17.5826 59.0834L17.5829 59.0834L17.4929 57.7865ZM14.5258 55.4128L13.228 55.4891L13.2297 55.5166L13.2324 55.5439L14.5258 55.4128ZM14.5466 54.8402L13.2497 54.7502V54.7502L14.5466 54.8402ZM14.755 52.653L13.4619 52.519L13.4619 52.5195L14.755 52.653ZM14.7738 52.4714L13.4808 52.3369L13.4807 52.3374L14.7738 52.4714ZM14.9245 50.1915L16.2245 50.1783L16.2245 50.1782L14.9245 50.1915ZM11.1601 41.1034L10.2314 42.0131L10.2315 42.0132L11.1601 41.1034ZM9.44145 39.5977L8.62165 40.6066L8.62193 40.6068L9.44145 39.5977ZM9.29973 39.4825L8.47976 40.4913L8.47993 40.4915L9.29973 39.4825ZM7.6057 38.0836L6.75199 39.064L6.75273 39.0646L7.6057 38.0836ZM7.18601 34.3071L6.21588 33.4417L6.19686 33.463L6.1788 33.4852L7.18601 34.3071ZM7.6057 33.9165L6.75273 32.9354L6.75205 32.936L7.6057 33.9165ZM9.29973 32.5175L10.1197 33.5263L10.1199 33.5261L9.29973 32.5175ZM9.44134 32.4024L8.62224 31.3929L8.62118 31.3937L9.44134 32.4024ZM11.1601 30.8967L10.2315 29.9869L10.2314 29.9869L11.1601 30.8967ZM14.9245 21.8086L16.2245 21.8219L16.2245 21.8218L14.9245 21.8086ZM14.7738 19.5286L13.4808 19.6628L13.4808 19.6631L14.7738 19.5286ZM14.755 19.3472L13.4619 19.4807L13.4619 19.4814L14.755 19.3472ZM14.5466 17.1599L13.2497 17.2499L13.2497 17.2499L14.5466 17.1599ZM14.5258 16.5872L13.2324 16.456L13.2296 16.4835L13.228 16.511L14.5258 16.5872ZM16.9202 14.1928L16.8403 12.8953L16.8146 12.8968L16.789 12.8994L16.9202 14.1928ZM17.4929 14.2135L17.583 12.9166L17.5829 12.9166L17.4929 14.2135ZM28.7764 5.65538L27.7676 4.8354L27.7676 4.83541L28.7764 5.65538ZM31.3135 2.79122L30.4905 1.78489L30.4903 1.78507L31.3135 2.79122ZM41.3526 2.79122L42.1758 1.78507L42.1756 1.78489L41.3526 2.79122ZM43.8897 5.65528L42.881 6.47528L42.8811 6.47537L43.8897 5.65528ZM45.1105 7.07698L44.2007 8.00554L44.2008 8.00557L45.1105 7.07698ZM50.5782 9.34176L50.565 10.6417H50.565L50.5782 9.34176ZM52.4465 9.19973L52.313 7.9066L52.313 7.90661L52.4465 9.19973ZM56.2661 8.96859L56.3957 7.67506L56.3957 7.67506L56.2661 8.96859ZM63.3645 16.0671L62.0709 16.1967L62.071 16.1969L63.3645 16.0671ZM63.1335 19.8865L64.4265 20.0204L64.4266 20.0199L63.1335 19.8865ZM62.9914 21.7549L61.6914 21.7681L61.6914 21.7683L62.9914 21.7549ZM65.2562 27.2226L66.185 26.313L66.1847 26.3127L65.2562 27.2226ZM66.6776 28.4432L65.8576 29.452L65.8577 29.4521L66.6776 28.4432ZM69.542 30.9807L70.5483 30.1577L70.5483 30.1577L69.542 30.9807ZM69.542 41.0194L70.5483 41.8424L70.5483 41.8424L69.542 41.0194ZM66.6776 43.5565L65.8577 42.5476L65.8577 42.5477L66.6776 43.5565ZM65.2562 44.7773L66.1847 45.6872L66.185 45.6869L65.2562 44.7773ZM62.9914 50.245L61.6914 50.2317L61.6914 50.2319L62.9914 50.245ZM63.1335 52.1137L64.4266 51.9802L64.4265 51.9798L63.1335 52.1137ZM63.3645 55.9329L62.0709 55.8032L62.0709 55.8034L63.3645 55.9329ZM56.2661 63.0316L56.3953 64.3252L56.3958 64.3251L56.2661 63.0316ZM52.4465 62.8003L52.5802 61.5071L52.58 61.5071L52.4465 62.8003ZM50.5782 62.6582L50.5651 61.3582H50.5649L50.5782 62.6582ZM45.1105 64.923L44.2008 63.9944L44.2005 63.9947L45.1105 64.923ZM43.8897 66.3444L42.8811 65.5242L42.881 65.5244L43.8897 66.3444ZM41.3526 69.2088L42.1756 70.2151L42.1759 70.2149L41.3526 69.2088ZM31.3135 69.2088L30.4903 70.2149L30.4905 70.2151L31.3135 69.2088ZM28.7764 66.3447L29.7852 65.5247L29.7851 65.5247L28.7764 66.3447ZM27.5556 64.923L28.4657 63.9947L28.4653 63.9944L27.5556 64.923ZM22.088 62.6582L22.1013 61.3582H22.1012L22.088 62.6582ZM20.2195 62.8003L20.086 61.5071L20.0858 61.5071L20.2195 62.8003ZM16.4002 63.0316L16.2705 64.3251L16.271 64.3252L16.4002 63.0316ZM9.30162 55.9329L8.0081 56.0625L8.0081 56.0625L9.30162 55.9329ZM9.53276 52.1137L10.8259 52.2472L10.8259 52.2472L9.53276 52.1137ZM9.67476 50.245L8.37483 50.2583L9.67476 50.245ZM7.41001 44.7773L8.33861 43.8675L8.33858 43.8675L7.41001 44.7773ZM5.98845 43.5569L5.16858 44.5657L5.16865 44.5658L5.98845 43.5569ZM3.12426 41.0194L4.13063 40.1965L4.13054 40.1963L3.12426 41.0194ZM3.12426 30.9807L4.13054 31.8037L4.13063 31.8036L3.12426 30.9807ZM5.98831 28.4434L6.80822 29.4522L6.80826 29.4522L5.98831 28.4434ZM7.41001 27.2226L8.33858 28.1324L8.33859 28.1324L7.41001 27.2226ZM9.67476 21.7549L8.37483 21.7417V21.7417L9.67476 21.7549ZM9.53276 19.8865L10.8259 19.753L10.8259 19.753L9.53276 19.8865ZM9.30162 16.0671L10.5951 16.1967V16.1967L9.30162 16.0671ZM16.4002 8.96859L16.5297 10.2621H16.5297L16.4002 8.96859ZM20.2194 9.19973L20.353 7.90661L20.3529 7.90661L20.2194 9.19973ZM22.088 9.34176L22.1013 10.6417H22.1013L22.088 9.34176ZM27.5556 7.07698L26.6458 6.14836L26.6458 6.1484L27.5556 7.07698ZM44.9775 27.1439L44.0583 26.2246L44.0583 26.2246L44.9775 27.1439ZM32.8336 39.2876L31.9144 40.2068L32.8336 41.126L33.7528 40.2068L32.8336 39.2876ZM27.6897 34.144L26.7705 35.0632L26.7705 35.0632L27.6897 34.144ZM23.9774 37.8561L23.0582 38.7753L23.0582 38.7753L23.9774 37.8561ZM30.9775 44.8561L31.8968 43.9368L31.8968 43.9368L30.9775 44.8561ZM19.546 15.715L19.7275 15.7339L19.9959 13.1478L19.8144 13.1289L19.546 15.715ZM19.7273 15.7338C20.4772 15.8118 21.3119 15.9 22.1549 15.8914L22.1283 13.2916C21.4586 13.2984 20.7723 13.2284 19.996 13.1478L19.7273 15.7338ZM22.1549 15.8914C25.8922 15.8532 29.4699 14.3713 32.1397 11.7557L30.3201 9.89845C28.1297 12.0444 25.1945 13.2602 22.1283 13.2916L22.1549 15.8914ZM32.1399 11.7554C32.7416 11.1656 33.2694 10.5132 33.7448 9.92777L31.7264 8.28885C31.2344 8.89478 30.7982 9.42972 30.3198 9.89872L32.1399 11.7554ZM33.7454 9.92696L33.8602 9.78535L31.8405 8.14804L31.7257 8.28965L33.7454 9.92696ZM33.8592 9.78667C34.5252 8.96732 34.9226 8.47966 35.2303 8.1261L33.269 6.41922C32.9258 6.81368 32.4958 7.34187 31.8416 8.14673L33.8592 9.78667ZM35.2303 8.12612C35.3567 7.98083 35.4371 7.89465 35.4809 7.84922C35.5026 7.82669 35.5147 7.81487 35.5183 7.81135C35.5201 7.80965 35.5198 7.8099 35.5178 7.81181C35.5152 7.81423 35.5119 7.81722 35.5138 7.81546L33.766 5.89057C33.7681 5.88873 33.7635 5.89284 33.7602 5.89591C33.7561 5.8996 33.7514 5.90391 33.7461 5.90885C33.7355 5.9187 33.7235 5.93014 33.7098 5.94339C33.6825 5.96979 33.6493 6.00296 33.609 6.04474C33.5288 6.12793 33.4184 6.2476 33.2691 6.4192L35.2303 8.12612ZM35.4617 7.86035C35.9689 7.44654 36.6972 7.44654 37.2045 7.86033L38.8479 5.84562C37.384 4.65144 35.2821 4.65144 33.8182 5.84568L35.4617 7.86035ZM37.163 7.82504C37.1142 7.78173 37.179 7.83114 37.436 8.12631L39.3969 6.41901C39.1016 6.07984 38.9556 5.93977 38.8894 5.88092L37.163 7.82504ZM37.4358 8.1261C37.7435 8.47966 38.141 8.96731 38.8069 9.78667L40.8245 8.14673C40.1703 7.34187 39.7404 6.81368 39.3971 6.41922L37.4358 8.1261ZM38.807 9.78674L38.9222 9.92838L40.9396 8.2883L40.8245 8.14666L38.807 9.78674ZM38.9214 9.92747C39.3967 10.5132 39.9244 11.1655 40.5262 11.7554L42.3463 9.89869C41.8679 9.42983 41.4318 8.89484 40.9404 8.28921L38.9214 9.92747ZM40.5265 11.7557C43.1962 14.3713 46.7738 15.8532 50.5111 15.8914L50.5376 13.2916C47.4716 13.2602 44.5364 12.0444 42.346 9.89845L40.5265 11.7557ZM50.5111 15.8914C51.354 15.9 52.1887 15.8118 52.9387 15.7338L52.6698 13.1478C51.8938 13.2285 51.2074 13.2984 50.5376 13.2916L50.5111 15.8914ZM52.9383 15.7339L53.1199 15.715L52.8518 13.1289L52.6702 13.1477L52.9383 15.7339ZM53.1195 15.7151C54.1696 15.6066 54.7955 15.5429 55.2631 15.5104L55.083 12.9166C54.5615 12.9528 53.884 13.0223 52.8523 13.1289L53.1195 15.7151ZM55.263 15.5104C55.6536 15.4833 55.733 15.4945 55.6659 15.4903L55.8261 12.8953C55.7352 12.8897 55.5311 12.8856 55.0831 12.9166L55.263 15.5104ZM55.6148 15.4862C56.2658 15.5522 56.7809 16.0671 56.847 16.7184L59.4337 16.4558C59.2429 14.5763 57.7567 13.09 55.8772 12.8994L55.6148 15.4862ZM56.8428 16.6664C56.8387 16.5997 56.8498 16.6795 56.8228 17.0702L59.4166 17.2496C59.4477 16.8006 59.4434 16.5973 59.4379 16.5077L56.8428 16.6664ZM56.8229 17.069C56.7901 17.5372 56.7263 18.1639 56.618 19.2137L59.2042 19.4807C59.3108 18.4485 59.38 17.7717 59.4165 17.2507L56.8229 17.069ZM56.6181 19.2123L56.5992 19.3935L59.1852 19.6633L59.2041 19.4821L56.6181 19.2123ZM56.5991 19.3944C56.5214 20.1441 56.4332 20.9789 56.4418 21.8218L59.0416 21.7954C59.0348 21.1254 59.1048 20.439 59.1853 19.6624L56.5991 19.3944ZM56.4418 21.8218C56.4798 25.5592 57.9618 29.1369 60.5774 31.8065L62.4345 29.9869C60.2887 27.7967 59.0729 24.8615 59.0416 21.7954L56.4418 21.8218ZM60.5774 31.8065C61.1675 32.4087 61.8202 32.9364 62.4047 33.4113L64.0442 31.3934C63.438 30.9009 62.9035 30.4654 62.4345 29.9868L60.5774 31.8065ZM62.4048 33.4114L62.5465 33.5266L64.1859 31.5085L64.0441 31.3933L62.4048 33.4114ZM62.5464 33.5264C63.3656 34.1921 63.8537 34.59 64.2078 34.8977L65.9133 32.9352C65.5191 32.5926 64.9915 32.1631 64.186 31.5086L62.5464 33.5264ZM64.2065 34.8966C64.5 35.1523 64.5504 35.2178 64.5082 35.1704L66.4515 33.4431C66.3926 33.3767 66.2525 33.2308 65.9146 32.9364L64.2065 34.8966ZM64.4727 35.1286C64.8866 35.6358 64.8866 36.3642 64.4727 36.8714L66.4871 38.5152C67.6818 37.0512 67.6818 34.9488 66.4871 33.4848L64.4727 35.1286ZM64.5082 36.8297C64.5504 36.7822 64.5 36.8477 64.2065 37.1035L65.9146 39.0637C66.2525 38.7692 66.3926 38.6233 66.4515 38.557L64.5082 36.8297ZM64.2078 37.1023C63.8537 37.41 63.3656 37.8079 62.5464 38.4736L64.186 40.4914C64.9915 39.8369 65.5191 39.4074 65.9133 39.0648L64.2078 37.1023ZM62.5453 38.4745L62.4039 38.5896L64.0457 40.6057L64.1871 40.4906L62.5453 38.4745ZM62.4051 38.5887C61.8208 39.0634 61.1676 39.5913 60.5774 40.1935L62.4345 42.0132C62.9034 41.5347 63.4381 41.0994 64.0446 40.6066L62.4051 38.5887ZM60.5774 40.1936C57.9618 42.863 56.4798 46.441 56.4418 50.1782L59.0416 50.2047C59.0729 47.1386 60.2887 44.2032 62.4345 42.0132L60.5774 40.1936ZM56.4418 50.1783C56.4332 51.0211 56.5214 51.8559 56.5991 52.6054L59.1853 52.3373C59.1048 51.5609 59.0348 50.8746 59.0416 50.2047L56.4418 50.1783ZM56.5992 52.606L56.6181 52.7876L59.2041 52.5185L59.1852 52.3368L56.5992 52.606ZM56.618 52.7865C56.7263 53.8363 56.7901 54.4629 56.8229 54.9311L59.4165 54.7493C59.38 54.2284 59.3108 53.5516 59.2042 52.5196L56.618 52.7865ZM56.8228 54.9298C56.8499 55.3219 56.8386 55.4005 56.8429 55.3321L59.4378 55.4942C59.4435 55.4034 59.4476 55.1992 59.4166 54.7506L56.8228 54.9298ZM56.847 55.2818C56.7809 55.933 56.2659 56.4479 55.6151 56.5138L55.8769 59.1005C57.7567 58.9102 59.2429 57.4237 59.4337 55.5444L56.847 55.2818ZM55.6649 56.5097C55.7334 56.5054 55.6552 56.5167 55.2626 56.4896L55.0835 59.0834C55.5323 59.1144 55.7362 59.1103 55.8271 59.1046L55.6649 56.5097ZM55.263 56.4896C54.7954 56.4572 54.1694 56.3935 53.1194 56.2851L52.8524 58.8714C53.8842 58.9779 54.5616 59.0472 55.0831 59.0834L55.263 56.4896ZM53.1204 56.2852L52.9388 56.2663L52.6697 58.8524L52.8514 58.8713L53.1204 56.2852ZM52.9389 56.2663C52.1888 56.1882 51.3541 56.1 50.5111 56.1086L50.5376 58.7084C51.2073 58.7016 51.8937 58.7716 52.6696 58.8524L52.9389 56.2663ZM50.511 56.1086C46.7739 56.147 43.1962 57.6286 40.5264 60.2445L42.3461 62.1017C44.5364 59.9555 47.4715 58.74 50.5377 58.7084L50.511 56.1086ZM40.5264 60.2446C39.9245 60.8344 39.3967 61.4867 38.9214 62.0725L40.9404 63.7107C41.4318 63.1051 41.8679 62.5702 42.3461 62.1016L40.5264 60.2446ZM38.9219 62.0719L38.8067 62.2137L40.8248 63.853L40.9399 63.7113L38.9219 62.0719ZM38.807 62.2133C38.1407 63.033 37.7436 63.5205 37.436 63.8736L39.3968 65.5811C39.7403 65.1866 40.1706 64.6577 40.8245 63.8534L38.807 62.2133ZM37.4353 63.8745C37.1811 64.1669 37.1153 64.2173 37.1625 64.1754L38.8899 66.1186C38.9559 66.0599 39.1023 65.9199 39.3975 65.5803L37.4353 63.8745ZM37.2045 64.1396C36.6972 64.5534 35.9689 64.5534 35.4616 64.1396L33.8182 66.1544C35.2822 67.3485 37.384 67.3485 38.8479 66.1544L37.2045 64.1396ZM35.5036 64.1754C35.5508 64.2173 35.485 64.1669 35.2308 63.8745L33.2686 65.5803C33.5638 65.9199 33.7102 66.0599 33.7763 66.1186L35.5036 64.1754ZM35.2301 63.8736C34.9226 63.5205 34.5254 63.033 33.8591 62.2133L31.8416 63.8534C32.4955 64.6578 32.9258 65.1866 33.2693 65.5811L35.2301 63.8736ZM33.8596 62.214L33.7449 62.0726L31.7263 63.7113L31.8411 63.8527L33.8596 62.214ZM33.7448 62.0725C33.2699 61.4877 32.742 60.8343 32.1394 60.2443L30.3203 62.1019C30.7986 62.5703 31.2338 63.1048 31.7264 63.7114L33.7448 62.0725ZM32.1397 60.2445C29.4699 57.6286 25.8921 56.147 22.155 56.1086L22.1283 58.7084C25.1945 58.74 28.1298 59.9555 30.32 62.1017L32.1397 60.2445ZM22.1549 56.1086C21.3118 56.1 20.4772 56.1882 19.7271 56.2663L19.9963 58.8524C20.7723 58.7716 21.4587 58.7016 22.1284 58.7084L22.1549 56.1086ZM19.727 56.2663L19.5456 56.2852L19.8149 58.8713L19.9963 58.8524L19.727 56.2663ZM19.5467 56.2851C18.4966 56.3935 17.8706 56.4572 17.403 56.4896L17.5829 59.0834C18.1044 59.0472 18.7818 58.9779 19.8137 58.8714L19.5467 56.2851ZM17.4032 56.4896C17.0121 56.5167 16.9327 56.5055 16.9999 56.5096L16.8402 59.1047C16.9302 59.1102 17.1337 59.1145 17.5826 59.0834L17.4032 56.4896ZM17.051 56.5138C16.4002 56.4479 15.8852 55.9332 15.8192 55.2816L13.2324 55.5439C13.423 57.4236 14.9093 58.9102 16.7891 59.1005L17.051 56.5138ZM15.8236 55.3365C15.8273 55.4004 15.8165 55.3188 15.8434 54.9302L13.2497 54.7502C13.2185 55.1995 13.2229 55.4014 13.228 55.4891L15.8236 55.3365ZM15.8434 54.9302C15.8759 54.4627 15.9397 53.8367 16.0481 52.7866L13.4619 52.5195C13.3553 53.5512 13.2859 54.2286 13.2497 54.7502L15.8434 54.9302ZM16.048 52.7871L16.0669 52.6054L13.4807 52.3374L13.4619 52.519L16.048 52.7871ZM16.0668 52.6059C16.1448 51.8559 16.233 51.0212 16.2245 50.1783L13.6246 50.2047C13.6314 50.8745 13.5615 51.5609 13.4808 52.3369L16.0668 52.6059ZM16.2245 50.1782C16.1862 46.441 14.7043 42.863 12.0886 40.1935L10.2315 42.0132C12.3774 44.2032 13.5932 47.1386 13.6246 50.2048L16.2245 50.1782ZM12.0887 40.1937C11.4987 39.5913 10.8459 39.0636 10.261 38.5885L8.62193 40.6068C9.22822 41.0992 9.76271 41.5346 10.2314 42.0131L12.0887 40.1937ZM10.2612 38.5888L10.1195 38.4736L8.47993 40.4915L8.62165 40.6066L10.2612 38.5888ZM10.1197 38.4737C9.30043 37.8078 8.81247 37.4101 8.45866 37.1025L6.75273 39.0646C7.14688 39.4073 7.67483 39.837 8.47976 40.4913L10.1197 38.4737ZM8.4594 37.1032C8.1663 36.8479 8.11508 36.7816 8.15614 36.8276L6.21588 38.5583C6.27256 38.6219 6.41082 38.7669 6.75199 39.064L8.4594 37.1032ZM8.19322 36.8711C7.77962 36.3642 7.77962 35.6358 8.19322 35.129L6.1788 33.4852C4.98443 34.9488 4.98443 37.0512 6.1788 38.5149L8.19322 36.8711ZM8.15614 35.1724C8.11512 35.2184 8.16633 35.152 8.45934 34.8969L6.75205 32.936C6.41073 33.2332 6.27251 33.3782 6.21588 33.4417L8.15614 35.1724ZM8.45866 34.8975C8.81247 34.5899 9.30043 34.1922 10.1197 33.5263L8.47976 31.5087C7.67483 32.163 7.14688 32.5927 6.75273 32.9354L8.45866 34.8975ZM10.1199 33.5261L10.2615 33.411L8.62118 31.3937L8.47957 31.5089L10.1199 33.5261ZM10.2604 33.4119C10.8462 32.9366 11.4987 32.4087 12.0887 31.8064L10.2314 29.9869C9.76268 30.4654 9.22786 30.9015 8.62224 31.3929L10.2604 33.4119ZM12.0886 31.8065C14.7043 29.1369 16.1862 25.5592 16.2245 21.8219L13.6246 21.7953C13.5932 24.8615 12.3774 27.7967 10.2315 29.9869L12.0886 31.8065ZM16.2245 21.8218C16.233 20.9788 16.1448 20.1443 16.0668 19.3942L13.4808 19.6631C13.5615 20.4392 13.6314 21.1255 13.6246 21.7954L16.2245 21.8218ZM16.0669 19.3944L16.048 19.213L13.4619 19.4814L13.4808 19.6628L16.0669 19.3944ZM16.0481 19.2137C15.9397 18.1634 15.8759 17.5375 15.8434 17.0699L13.2497 17.2499C13.2859 17.7715 13.3553 18.4489 13.4619 19.4807L16.0481 19.2137ZM15.8434 17.0699C15.8165 16.6813 15.8273 16.5996 15.8236 16.6633L13.228 16.511C13.2229 16.5986 13.2185 16.8004 13.2497 17.2499L15.8434 17.0699ZM15.8192 16.7183C15.8852 16.0671 16.4002 15.5522 17.0513 15.4862L16.789 12.8994C14.9094 13.09 13.4231 14.5764 13.2324 16.456L15.8192 16.7183ZM17.0001 15.4903C16.9332 15.4945 17.0127 15.4833 17.4029 15.5104L17.5829 12.9166C17.1351 12.8856 16.9311 12.8897 16.8403 12.8953L17.0001 15.4903ZM17.4029 15.5104C17.8705 15.5429 18.4965 15.6066 19.5467 15.7151L19.8138 13.1289C18.782 13.0223 18.1045 12.9528 17.583 12.9166L17.4029 15.5104ZM7.18601 36.393C7.18601 36.393 7.18601 36.393 7.18601 36.393C7.18601 36.393 7.18601 36.393 7.18601 36.393C7.18601 36.393 7.18601 36.393 7.18601 36.393C7.18601 36.393 7.18601 36.393 7.18601 36.393C7.18601 36.393 7.18601 36.393 7.18601 36.393C7.18601 36.393 7.18601 36.393 7.18601 36.393C7.186 36.393 7.186 36.393 7.186 36.393C7.186 36.393 7.186 36.393 7.186 36.393C7.186 36.393 7.186 36.393 7.186 36.393C7.186 36.393 7.186 36.393 7.186 36.393C7.186 36.393 7.186 36.393 7.186 36.393C7.186 36.393 7.186 36.393 7.186 36.393C7.186 36.393 7.186 36.393 7.186 36.393H7.186C7.186 36.393 7.186 36.393 7.186 36.393C7.186 36.393 7.186 36.393 7.186 36.393C7.186 36.393 7.186 36.393 7.186 36.393C7.18599 36.393 7.18599 36.393 7.18599 36.393C7.18599 36.393 7.18599 36.393 7.18599 36.393H7.18599C7.18599 36.393 7.18599 36.393 7.18599 36.393C7.18599 36.393 7.18599 36.393 7.18599 36.393C7.18599 36.393 7.18599 36.393 7.18599 36.393H7.18599C7.18599 36.393 7.18599 36.393 7.18599 36.393C7.18599 36.393 7.18599 36.393 7.18599 36.393H7.18599C7.18599 36.393 7.18599 36.393 7.18599 36.393H7.18599C7.18599 36.393 7.18598 36.393 7.18598 36.393C7.18598 36.393 7.18598 36.393 7.18598 36.393H7.18598C7.18598 36.393 7.18598 36.393 7.18598 36.393H7.18598C7.18598 36.393 7.18598 36.393 7.18598 36.393H7.18598C7.18598 36.393 7.18598 36.393 7.18598 36.393H7.18598C7.18598 36.393 7.18598 36.393 7.18598 36.393C7.18598 36.393 7.18598 36.393 7.18598 36.393H7.18598C7.18598 36.393 7.18598 36.393 7.18598 36.393H7.18598H7.18598C7.18597 36.393 7.18597 36.393 7.18597 36.393H7.18597H7.18597C7.18597 36.393 7.18597 36.393 7.18597 36.393C7.18597 36.393 7.18597 36.393 7.18597 36.393H7.18597H7.18597C7.18597 36.393 7.18597 36.393 7.18597 36.393C7.18597 36.393 7.18597 36.393 7.18597 36.393C7.18597 36.393 7.18597 36.393 7.18597 36.393H7.18597H7.18597H7.18597C7.18597 36.393 7.18597 36.393 7.18597 36.393C7.18597 36.393 7.18597 36.393 7.18597 36.393C7.18597 36.393 7.18597 36.393 7.18597 36.393C7.18597 36.393 7.18597 36.393 7.18597 36.393C7.18597 36.393 7.18597 36.393 7.18596 36.393C7.18596 36.393 7.18596 36.393 7.18596 36.393C7.18596 36.393 7.18596 36.393 7.18596 36.393C7.18596 36.393 7.18596 36.393 7.18596 36.393C7.18596 36.393 7.18596 36.393 7.18596 36.393C7.18596 36.393 7.18596 36.393 7.18596 36.393C7.18596 36.393 7.18596 36.393 7.18596 36.393C7.18596 36.393 7.18596 36.393 7.18596 36.393C7.18596 36.393 7.18596 36.393 7.18596 36.393C7.18596 36.393 7.18596 36.393 7.18596 36.393H7.18596H7.18596C7.18596 36.393 7.18596 36.393 7.18596 36.393C7.18596 36.393 7.18596 36.393 7.18596 36.393C7.18596 36.393 7.18596 36.393 7.18596 36.393H7.18596C7.18596 36.393 7.18596 36.393 7.18596 36.393C7.18596 36.393 7.18596 36.393 7.18596 36.393H7.18596C7.18596 36.393 7.18596 36.393 7.18596 36.393C7.18596 36.393 7.18596 36.393 7.18596 36.393C7.18596 36.393 7.18596 36.393 7.18595 36.393C7.18595 36.393 7.18595 36.393 7.18595 36.393C7.18595 36.393 7.18595 36.393 7.18595 36.393H7.18595C7.18595 36.393 7.18595 36.393 7.18595 36.393C7.18595 36.393 7.18595 36.393 7.18595 36.393C7.18595 36.393 7.18595 36.393 7.18595 36.393C7.18595 36.393 7.18595 36.393 7.18595 36.393C7.18595 36.393 7.18595 36.393 7.18595 36.393C7.18595 36.393 7.18595 36.393 7.18595 36.393H7.18595C7.18595 36.393 7.18595 36.393 7.18595 36.393C7.18595 36.393 7.18595 36.393 7.18595 36.393C7.18595 36.393 7.18595 36.393 7.18595 36.393C7.18595 36.393 7.18595 36.393 7.18595 36.393C7.18595 36.393 7.18595 36.393 7.18595 36.393C7.18595 36.393 7.18595 36.393 7.18595 36.393C7.18595 37.693 7.18595 38.993 7.18595 38.993C7.18595 38.993 7.18595 38.993 7.18595 38.993C7.18595 38.993 7.18595 38.993 7.18595 38.993C7.18595 38.993 7.18595 38.993 7.18595 38.993C7.18595 38.993 7.18595 38.993 7.18595 38.993H7.18595C7.18595 38.993 7.18595 38.993 7.18595 38.993C7.18595 38.993 7.18595 38.993 7.18595 38.993C7.18595 38.993 7.18595 38.993 7.18595 38.993H7.18595C7.18595 38.993 7.18595 38.993 7.18595 38.993C7.18595 38.993 7.18595 38.993 7.18595 38.993H7.18595C7.18595 38.993 7.18595 38.993 7.18595 38.993C7.18595 38.993 7.18595 38.993 7.18595 38.993C7.18595 38.993 7.18595 38.993 7.18595 38.993C7.18595 38.993 7.18595 38.993 7.18595 38.993C7.18596 38.993 7.18596 38.993 7.18596 38.993C7.18596 38.993 7.18596 38.993 7.18596 38.993C7.18596 38.993 7.18596 38.993 7.18596 38.993C7.18596 38.993 7.18596 38.993 7.18596 38.993H7.18596H7.18596C7.18596 38.993 7.18596 38.993 7.18596 38.993C7.18596 38.993 7.18596 38.993 7.18596 38.993H7.18596C7.18596 38.993 7.18596 38.993 7.18596 38.993C7.18596 38.993 7.18596 38.993 7.18596 38.993H7.18596C7.18596 38.993 7.18596 38.993 7.18596 38.993H7.18596C7.18596 38.993 7.18596 38.993 7.18596 38.993C7.18596 38.993 7.18596 38.993 7.18596 38.993C7.18596 38.993 7.18596 38.993 7.18596 38.993C7.18596 38.993 7.18596 38.993 7.18596 38.993C7.18596 38.993 7.18596 38.993 7.18596 38.993C7.18596 38.993 7.18596 38.993 7.18596 38.993C7.18596 38.993 7.18596 38.993 7.18596 38.993C7.18596 38.993 7.18596 38.993 7.18597 38.993C7.18597 38.993 7.18597 38.993 7.18597 38.993H7.18597C7.18597 38.993 7.18597 38.993 7.18597 38.993H7.18597C7.18597 38.993 7.18597 38.993 7.18597 38.993C7.18597 38.993 7.18597 38.993 7.18597 38.993H7.18597C7.18597 38.993 7.18597 38.993 7.18597 38.993H7.18597C7.18597 38.993 7.18597 38.993 7.18597 38.993C7.18597 38.993 7.18597 38.993 7.18597 38.993H7.18597C7.18597 38.993 7.18597 38.993 7.18597 38.993C7.18597 38.993 7.18597 38.993 7.18597 38.993H7.18597C7.18597 38.993 7.18597 38.993 7.18597 38.993C7.18597 38.993 7.18597 38.993 7.18597 38.993H7.18597C7.18597 38.993 7.18597 38.993 7.18597 38.993C7.18597 38.993 7.18597 38.993 7.18597 38.993H7.18598H7.18598C7.18598 38.993 7.18598 38.993 7.18598 38.993C7.18598 38.993 7.18598 38.993 7.18598 38.993H7.18598C7.18598 38.993 7.18598 38.993 7.18598 38.993C7.18598 38.993 7.18598 38.993 7.18598 38.993H7.18598H7.18598C7.18598 38.993 7.18598 38.993 7.18598 38.993C7.18598 38.993 7.18598 38.993 7.18598 38.993H7.18598C7.18598 38.993 7.18598 38.993 7.18598 38.993C7.18598 38.993 7.18598 38.993 7.18598 38.993C7.18598 38.993 7.18598 38.993 7.18598 38.993H7.18598C7.18598 38.993 7.18598 38.993 7.18598 38.993C7.18598 38.993 7.18598 38.993 7.18598 38.993C7.18598 38.993 7.18598 38.993 7.18598 38.993H7.18598C7.18598 38.993 7.18598 38.993 7.18598 38.993C7.18598 38.993 7.18598 38.993 7.18599 38.993C7.18599 38.993 7.18599 38.993 7.18599 38.993H7.18599C7.18599 38.993 7.18599 38.993 7.18599 38.993C7.18599 38.993 7.18599 38.993 7.18599 38.993C7.18599 38.993 7.18599 38.993 7.18599 38.993H7.18599C7.18599 38.993 7.18599 38.993 7.18599 38.993C7.18599 38.993 7.18599 38.993 7.18599 38.993C7.18599 38.993 7.18599 38.993 7.18599 38.993H7.18599C7.18599 38.993 7.18599 38.993 7.18599 38.993C7.18599 38.993 7.18599 38.993 7.18599 38.993C7.18599 38.993 7.18599 38.993 7.18599 38.993H7.18599C7.18599 38.993 7.18599 38.993 7.18599 38.993C7.18599 38.993 7.18599 38.993 7.18599 38.993H7.18599H7.18599C7.18599 38.993 7.18599 38.993 7.18599 38.993C7.18599 38.993 7.18599 38.993 7.18599 38.993H7.186C7.186 38.993 7.186 38.993 7.186 38.993C7.186 38.993 7.186 38.993 7.186 38.993H7.186H7.186C7.186 38.993 7.186 38.993 7.186 38.993C7.186 38.993 7.186 38.993 7.186 38.993H7.186C7.186 38.993 7.186 38.993 7.186 38.993C7.186 38.993 7.186 38.993 7.186 38.993H7.186C7.186 38.993 7.186 38.993 7.186 38.993C7.186 38.993 7.186 38.993 7.186 38.993H7.186C7.186 38.993 7.186 38.993 7.186 38.993C7.186 38.993 7.186 38.993 7.186 38.993C7.186 38.993 7.186 38.993 7.186 38.993C7.186 38.993 7.186 38.993 7.186 38.993H7.186C7.186 38.993 7.186 38.993 7.186 38.993C7.186 38.993 7.186 38.993 7.186 38.993C7.186 38.993 7.186 38.993 7.18601 38.993C7.18601 38.993 7.18601 38.993 7.18601 38.993H7.18601C7.18601 38.993 7.18601 38.993 7.18601 38.993H7.18601C7.18601 38.993 7.18601 38.993 7.18601 38.993H7.18601C7.18601 38.993 7.18601 38.993 7.18601 38.993H7.18601C7.18601 38.993 7.18601 38.993 7.18601 38.993H7.18601C7.18601 38.993 7.18601 38.993 7.18601 38.993C7.18601 38.993 7.18601 38.993 7.18601 38.993H7.18601C7.18601 38.993 7.18601 38.993 7.18601 38.993C7.18601 38.993 7.18601 38.993 7.18601 38.993H7.18601C7.18601 38.993 7.18601 38.993 7.18601 38.993C7.18601 38.993 7.18601 38.993 7.18601 38.993H7.18601H7.18601C7.18602 38.993 7.18602 38.993 7.18602 38.993C7.18602 38.993 7.18602 38.993 7.18602 38.993C7.18602 38.993 7.18602 38.993 7.18602 38.993C7.18602 38.993 7.18602 38.993 7.18602 38.993C7.18602 38.993 7.18602 38.993 7.18602 38.993C7.18602 38.993 7.18602 38.993 7.18602 38.993C7.18602 38.993 7.18602 38.993 7.18602 38.993C7.18602 38.993 7.18602 38.993 7.18602 38.993H7.18602C7.18602 38.993 7.18602 38.993 7.18602 38.993H7.18602C7.18602 38.993 7.18602 38.993 7.18602 38.993C7.18602 38.993 7.18602 38.993 7.18602 38.993H7.18602H7.18602C7.18602 38.993 7.18602 38.993 7.18602 38.993C7.18602 38.993 7.18602 38.993 7.18602 38.993C7.18602 38.993 7.18602 38.993 7.18602 38.993H7.18602H7.18602C7.18602 38.993 7.18602 37.693 7.18602 36.393C7.18602 36.393 7.18602 36.393 7.18602 36.393H7.18602H7.18602H7.18602C7.18602 36.393 7.18602 36.393 7.18602 36.393C7.18602 36.393 7.18602 36.393 7.18602 36.393H7.18602C7.18602 36.393 7.18602 36.393 7.18602 36.393C7.18602 36.393 7.18602 36.393 7.18602 36.393C7.18602 36.393 7.18602 36.393 7.18602 36.393C7.18602 36.393 7.18602 36.393 7.18602 36.393C7.18602 36.393 7.18602 36.393 7.18602 36.393C7.18602 36.393 7.18602 36.393 7.18602 36.393C7.18602 36.393 7.18602 36.393 7.18602 36.393H7.18602C7.18602 36.393 7.18602 36.393 7.18602 36.393C7.18602 36.393 7.18602 36.393 7.18602 36.393C7.18602 36.393 7.18602 36.393 7.18602 36.393C7.18602 36.393 7.18602 36.393 7.18602 36.393C7.18601 36.393 7.18601 36.393 7.18601 36.393H7.18601C7.18601 36.393 7.18601 36.393 7.18601 36.393C7.18601 36.393 7.18601 36.393 7.18601 36.393H7.18601H7.18601C7.18601 36.393 7.18601 36.393 7.18601 36.393C7.18601 36.393 7.18601 36.393 7.18601 36.393V38.993C7.18601 38.993 7.18601 38.993 7.18601 38.993C7.18601 38.993 7.18601 38.993 7.18601 38.993H7.18601H7.18601C7.18601 38.993 7.18601 38.993 7.18601 38.993C7.18601 38.993 7.18601 38.993 7.18601 38.993H7.18601C7.18601 38.993 7.18601 38.993 7.18602 38.993C7.18602 38.993 7.18602 38.993 7.18602 38.993C7.18602 38.993 7.18602 38.993 7.18602 38.993C7.18602 38.993 7.18602 38.993 7.18602 38.993C7.18602 38.993 7.18602 38.993 7.18602 38.993H7.18602C7.18602 38.993 7.18602 38.993 7.18602 38.993C7.18602 38.993 7.18602 38.993 7.18602 38.993C7.18602 38.993 7.18602 38.993 7.18602 38.993C7.18602 38.993 7.18602 38.993 7.18602 38.993C7.18602 38.993 7.18602 38.993 7.18602 38.993C7.18602 38.993 7.18602 38.993 7.18602 38.993C7.18602 38.993 7.18602 38.993 7.18602 38.993H7.18602C7.18602 38.993 7.18602 38.993 7.18602 38.993C7.18602 38.993 7.18602 38.993 7.18602 38.993H7.18602H7.18602H7.18602C7.18602 38.993 7.18602 38.993 7.18602 38.993C7.18602 37.693 7.18602 36.393 7.18602 36.393H7.18602H7.18602C7.18602 36.393 7.18602 36.393 7.18602 36.393C7.18602 36.393 7.18602 36.393 7.18602 36.393C7.18602 36.393 7.18602 36.393 7.18602 36.393H7.18602H7.18602C7.18602 36.393 7.18602 36.393 7.18602 36.393C7.18602 36.393 7.18602 36.393 7.18602 36.393H7.18602C7.18602 36.393 7.18602 36.393 7.18602 36.393H7.18602C7.18602 36.393 7.18602 36.393 7.18602 36.393C7.18602 36.393 7.18602 36.393 7.18602 36.393C7.18602 36.393 7.18602 36.393 7.18602 36.393C7.18602 36.393 7.18602 36.393 7.18602 36.393C7.18602 36.393 7.18602 36.393 7.18602 36.393C7.18602 36.393 7.18602 36.393 7.18602 36.393C7.18602 36.393 7.18602 36.393 7.18602 36.393C7.18602 36.393 7.18602 36.393 7.18601 36.393H7.18601H7.18601C7.18601 36.393 7.18601 36.393 7.18601 36.393C7.18601 36.393 7.18601 36.393 7.18601 36.393H7.18601C7.18601 36.393 7.18601 36.393 7.18601 36.393C7.18601 36.393 7.18601 36.393 7.18601 36.393H7.18601C7.18601 36.393 7.18601 36.393 7.18601 36.393C7.18601 36.393 7.18601 36.393 7.18601 36.393H7.18601C7.18601 36.393 7.18601 36.393 7.18601 36.393H7.18601C7.18601 36.393 7.18601 36.393 7.18601 36.393H7.18601C7.18601 36.393 7.18601 36.393 7.18601 36.393H7.18601C7.18601 36.393 7.18601 36.393 7.18601 36.393H7.18601C7.18601 36.393 7.18601 36.393 7.18601 36.393C7.186 36.393 7.186 36.393 7.186 36.393C7.186 36.393 7.186 36.393 7.186 36.393C7.186 36.393 7.186 36.393 7.186 36.393H7.186C7.186 36.393 7.186 36.393 7.186 36.393C7.186 36.393 7.186 36.393 7.186 36.393C7.186 36.393 7.186 36.393 7.186 36.393C7.186 36.393 7.186 36.393 7.186 36.393H7.186C7.186 36.393 7.186 36.393 7.186 36.393C7.186 36.393 7.186 36.393 7.186 36.393H7.186C7.186 36.393 7.186 36.393 7.186 36.393C7.186 36.393 7.186 36.393 7.186 36.393H7.186C7.186 36.393 7.186 36.393 7.186 36.393C7.186 36.393 7.186 36.393 7.186 36.393H7.186H7.186C7.186 36.393 7.186 36.393 7.186 36.393C7.186 36.393 7.186 36.393 7.186 36.393H7.18599C7.18599 36.393 7.18599 36.393 7.18599 36.393C7.18599 36.393 7.18599 36.393 7.18599 36.393H7.18599H7.18599C7.18599 36.393 7.18599 36.393 7.18599 36.393C7.18599 36.393 7.18599 36.393 7.18599 36.393H7.18599C7.18599 36.393 7.18599 36.393 7.18599 36.393C7.18599 36.393 7.18599 36.393 7.18599 36.393C7.18599 36.393 7.18599 36.393 7.18599 36.393H7.18599C7.18599 36.393 7.18599 36.393 7.18599 36.393C7.18599 36.393 7.18599 36.393 7.18599 36.393C7.18599 36.393 7.18599 36.393 7.18599 36.393H7.18599C7.18599 36.393 7.18599 36.393 7.18599 36.393C7.18599 36.393 7.18599 36.393 7.18599 36.393C7.18599 36.393 7.18599 36.393 7.18599 36.393H7.18599C7.18599 36.393 7.18599 36.393 7.18599 36.393C7.18598 36.393 7.18598 36.393 7.18598 36.393C7.18598 36.393 7.18598 36.393 7.18598 36.393H7.18598C7.18598 36.393 7.18598 36.393 7.18598 36.393C7.18598 36.393 7.18598 36.393 7.18598 36.393C7.18598 36.393 7.18598 36.393 7.18598 36.393H7.18598C7.18598 36.393 7.18598 36.393 7.18598 36.393C7.18598 36.393 7.18598 36.393 7.18598 36.393C7.18598 36.393 7.18598 36.393 7.18598 36.393H7.18598C7.18598 36.393 7.18598 36.393 7.18598 36.393C7.18598 36.393 7.18598 36.393 7.18598 36.393H7.18598H7.18598C7.18598 36.393 7.18598 36.393 7.18598 36.393C7.18598 36.393 7.18598 36.393 7.18598 36.393H7.18598C7.18598 36.393 7.18598 36.393 7.18598 36.393C7.18598 36.393 7.18598 36.393 7.18598 36.393H7.18598H7.18597C7.18597 36.393 7.18597 36.393 7.18597 36.393C7.18597 36.393 7.18597 36.393 7.18597 36.393H7.18597C7.18597 36.393 7.18597 36.393 7.18597 36.393C7.18597 36.393 7.18597 36.393 7.18597 36.393H7.18597C7.18597 36.393 7.18597 36.393 7.18597 36.393C7.18597 36.393 7.18597 36.393 7.18597 36.393H7.18597C7.18597 36.393 7.18597 36.393 7.18597 36.393C7.18597 36.393 7.18597 36.393 7.18597 36.393H7.18597C7.18597 36.393 7.18597 36.393 7.18597 36.393H7.18597C7.18597 36.393 7.18597 36.393 7.18597 36.393C7.18597 36.393 7.18597 36.393 7.18597 36.393H7.18597C7.18597 36.393 7.18597 36.393 7.18597 36.393H7.18597C7.18597 36.393 7.18597 36.393 7.18597 36.393C7.18596 36.393 7.18596 36.393 7.18596 36.393C7.18596 36.393 7.18596 36.393 7.18596 36.393C7.18596 36.393 7.18596 36.393 7.18596 36.393C7.18596 36.393 7.18596 36.393 7.18596 36.393C7.18596 36.393 7.18596 36.393 7.18596 36.393C7.18596 36.393 7.18596 36.393 7.18596 36.393C7.18596 36.393 7.18596 36.393 7.18596 36.393C7.18596 36.393 7.18596 36.393 7.18596 36.393H7.18596C7.18596 36.393 7.18596 36.393 7.18596 36.393H7.18596C7.18596 36.393 7.18596 36.393 7.18596 36.393C7.18596 36.393 7.18596 36.393 7.18596 36.393H7.18596C7.18596 36.393 7.18596 36.393 7.18596 36.393C7.18596 36.393 7.18596 36.393 7.18596 36.393H7.18596H7.18596C7.18596 36.393 7.18596 36.393 7.18596 36.393C7.18596 36.393 7.18596 36.393 7.18596 36.393C7.18596 36.393 7.18596 36.393 7.18596 36.393C7.18596 36.393 7.18596 36.393 7.18595 36.393C7.18595 36.393 7.18595 36.393 7.18595 36.393C7.18595 36.393 7.18595 36.393 7.18595 36.393C7.18595 36.393 7.18595 36.393 7.18595 36.393C7.18595 36.393 7.18595 36.393 7.18595 36.393H7.18595C7.18595 36.393 7.18595 36.393 7.18595 36.393C7.18595 36.393 7.18595 36.393 7.18595 36.393H7.18595C7.18595 36.393 7.18595 36.393 7.18595 36.393C7.18595 36.393 7.18595 36.393 7.18595 36.393C7.18595 36.393 7.18595 36.393 7.18595 36.393H7.18595C7.18595 36.393 7.18595 36.393 7.18595 36.393C7.18595 36.393 7.18595 36.393 7.18595 36.393C7.18595 36.393 7.18595 36.393 7.18595 36.393C7.18595 36.393 7.18595 36.393 7.18595 36.393C7.18595 36.393 7.18595 37.693 7.18595 38.993C7.18595 38.993 7.18595 38.993 7.18595 38.993C7.18595 38.993 7.18595 38.993 7.18595 38.993C7.18595 38.993 7.18595 38.993 7.18595 38.993C7.18595 38.993 7.18595 38.993 7.18595 38.993C7.18595 38.993 7.18595 38.993 7.18595 38.993C7.18595 38.993 7.18595 38.993 7.18595 38.993H7.18595C7.18595 38.993 7.18595 38.993 7.18595 38.993C7.18595 38.993 7.18595 38.993 7.18595 38.993C7.18595 38.993 7.18595 38.993 7.18595 38.993C7.18595 38.993 7.18595 38.993 7.18595 38.993C7.18595 38.993 7.18595 38.993 7.18595 38.993C7.18595 38.993 7.18595 38.993 7.18595 38.993H7.18595C7.18595 38.993 7.18595 38.993 7.18595 38.993C7.18595 38.993 7.18595 38.993 7.18595 38.993C7.18596 38.993 7.18596 38.993 7.18596 38.993C7.18596 38.993 7.18596 38.993 7.18596 38.993C7.18596 38.993 7.18596 38.993 7.18596 38.993H7.18596C7.18596 38.993 7.18596 38.993 7.18596 38.993C7.18596 38.993 7.18596 38.993 7.18596 38.993H7.18596C7.18596 38.993 7.18596 38.993 7.18596 38.993C7.18596 38.993 7.18596 38.993 7.18596 38.993C7.18596 38.993 7.18596 38.993 7.18596 38.993H7.18596H7.18596C7.18596 38.993 7.18596 38.993 7.18596 38.993C7.18596 38.993 7.18596 38.993 7.18596 38.993C7.18596 38.993 7.18596 38.993 7.18596 38.993C7.18596 38.993 7.18596 38.993 7.18596 38.993C7.18596 38.993 7.18596 38.993 7.18596 38.993C7.18596 38.993 7.18596 38.993 7.18596 38.993C7.18596 38.993 7.18596 38.993 7.18596 38.993C7.18596 38.993 7.18596 38.993 7.18596 38.993C7.18596 38.993 7.18596 38.993 7.18596 38.993C7.18597 38.993 7.18597 38.993 7.18597 38.993C7.18597 38.993 7.18597 38.993 7.18597 38.993C7.18597 38.993 7.18597 38.993 7.18597 38.993C7.18597 38.993 7.18597 38.993 7.18597 38.993C7.18597 38.993 7.18597 38.993 7.18597 38.993H7.18597H7.18597H7.18597C7.18597 38.993 7.18597 38.993 7.18597 38.993C7.18597 38.993 7.18597 38.993 7.18597 38.993C7.18597 38.993 7.18597 38.993 7.18597 38.993H7.18597H7.18597C7.18597 38.993 7.18597 38.993 7.18597 38.993C7.18597 38.993 7.18597 38.993 7.18597 38.993H7.18597H7.18597C7.18597 38.993 7.18597 38.993 7.18598 38.993H7.18598H7.18598C7.18598 38.993 7.18598 38.993 7.18598 38.993H7.18598C7.18598 38.993 7.18598 38.993 7.18598 38.993C7.18598 38.993 7.18598 38.993 7.18598 38.993H7.18598C7.18598 38.993 7.18598 38.993 7.18598 38.993H7.18598C7.18598 38.993 7.18598 38.993 7.18598 38.993H7.18598C7.18598 38.993 7.18598 38.993 7.18598 38.993H7.18598C7.18598 38.993 7.18598 38.993 7.18598 38.993C7.18598 38.993 7.18599 38.993 7.18599 38.993H7.18599C7.18599 38.993 7.18599 38.993 7.18599 38.993H7.18599C7.18599 38.993 7.18599 38.993 7.18599 38.993C7.18599 38.993 7.18599 38.993 7.18599 38.993H7.18599C7.18599 38.993 7.18599 38.993 7.18599 38.993C7.18599 38.993 7.18599 38.993 7.18599 38.993C7.18599 38.993 7.18599 38.993 7.18599 38.993H7.18599C7.18599 38.993 7.18599 38.993 7.18599 38.993C7.18599 38.993 7.18599 38.993 7.186 38.993C7.186 38.993 7.186 38.993 7.186 38.993C7.186 38.993 7.186 38.993 7.186 38.993C7.186 38.993 7.186 38.993 7.186 38.993H7.186C7.186 38.993 7.186 38.993 7.186 38.993C7.186 38.993 7.186 38.993 7.186 38.993C7.186 38.993 7.186 38.993 7.186 38.993C7.186 38.993 7.186 38.993 7.186 38.993C7.186 38.993 7.186 38.993 7.186 38.993C7.186 38.993 7.186 38.993 7.186 38.993C7.186 38.993 7.186 38.993 7.18601 38.993C7.18601 38.993 7.18601 38.993 7.18601 38.993C7.18601 38.993 7.18601 38.993 7.18601 38.993C7.18601 38.993 7.18601 38.993 7.18601 38.993C7.18601 38.993 7.18601 38.993 7.18601 38.993C7.18601 38.993 7.18601 38.993 7.18601 38.993C7.18601 38.993 7.18601 38.993 7.18601 38.993V36.393ZM16.9201 56.5071C16.9201 56.5071 16.9201 56.5071 16.9201 56.5071C16.9201 56.5071 16.9201 56.5071 16.9201 56.5071C16.9201 56.5071 16.9201 56.5071 16.9201 56.5071C16.9201 56.5071 16.9201 56.5071 16.9201 56.5071C16.9201 56.5071 16.9201 56.5071 16.9201 56.5071C16.9201 56.5071 16.9201 56.5071 16.9201 56.5071C16.9201 56.5071 16.9201 56.5071 16.9201 56.5071C16.9201 56.5071 16.9201 56.5071 16.9201 56.5071C16.9201 56.5071 16.9201 56.5071 16.9201 56.5071C16.9201 56.5071 16.9201 56.5071 16.9201 56.5071C16.9201 56.5071 16.9201 56.5071 16.9201 56.5071C16.9201 56.5071 16.9201 56.5071 16.9201 56.5071C16.9201 56.5071 16.9201 56.5071 16.92 56.5071C16.92 56.5071 16.92 56.5071 16.92 56.5071C16.92 56.5071 16.92 56.5071 16.92 56.5071C16.92 56.5071 16.92 56.5071 16.92 56.5071C16.92 56.5071 16.92 56.5071 16.92 56.5071C16.92 56.5071 16.92 56.5071 16.92 56.5071C16.92 56.5071 16.92 56.5071 16.92 56.5071C16.92 56.5071 16.92 56.5071 16.92 56.5071C16.92 56.5071 16.92 56.5071 16.92 56.5071C16.92 56.5071 16.92 56.5071 16.92 56.5071C16.92 56.5071 16.92 56.5071 16.92 56.5071C16.92 56.5071 16.92 56.5071 16.92 56.5071C16.92 56.5071 16.92 56.5071 16.92 56.5071C16.92 56.5071 16.92 56.5071 16.92 56.5071C16.92 56.5071 16.92 56.5071 16.92 56.5071C16.92 56.5071 16.92 56.5071 16.92 56.5071C16.92 56.5071 16.92 56.5071 16.92 56.5071C16.92 56.5071 16.92 56.5071 16.92 56.5071C16.92 56.5071 16.92 56.5071 16.92 56.5071C16.92 56.5071 16.92 56.5071 16.92 56.5071C16.92 56.5071 16.92 56.5071 16.92 56.5071C16.92 56.5071 16.92 56.5071 16.92 56.5071C16.92 56.5071 16.92 56.5071 16.92 56.5071H16.92C16.92 56.5071 16.92 56.5071 16.92 56.5071C16.92 56.5071 16.92 56.5071 16.92 56.5071C16.92 56.5071 16.92 56.5071 16.92 56.5071C16.92 56.5071 16.92 56.5071 16.92 56.5071H16.92C16.92 56.5071 16.92 56.5071 16.92 56.5071C16.92 56.5071 16.92 56.5071 16.92 56.5071C16.92 56.5071 16.92 56.5071 16.92 56.5071H16.92C16.92 56.5071 16.92 56.5071 16.92 56.5071C16.92 56.5071 16.92 56.5071 16.92 56.5071H16.92C16.92 56.5071 16.92 56.5071 16.92 56.5071H16.92C16.92 56.5071 16.92 56.5071 16.92 56.5071H16.92C16.92 56.5071 16.92 56.5071 16.92 56.5071H16.92C16.92 56.5071 16.92 56.5071 16.92 56.5071H16.92C16.92 56.5071 16.92 56.5071 16.92 56.5071H16.92C16.92 56.5071 16.92 56.5071 16.92 56.5071H16.92C16.92 56.5071 16.92 56.5071 16.92 56.5071C16.92 56.5071 16.92 56.5071 16.92 56.5071H16.92C16.92 56.5071 16.92 56.5071 16.92 56.5071C16.92 56.5071 16.92 56.5071 16.92 56.5071H16.92C16.92 56.5071 16.92 56.5071 16.92 56.5071C16.92 56.5071 16.92 56.5071 16.92 56.5071H16.92H16.92C16.92 56.5071 16.92 56.5071 16.92 56.5071C16.92 56.5071 16.92 56.5071 16.92 56.5071C16.92 56.5071 16.92 56.5071 16.92 56.5071H16.92H16.9199H16.9199C16.9199 56.5071 16.9199 56.5071 16.9199 56.5071C16.9199 56.5071 16.9199 56.5071 16.9199 56.5071C16.9199 56.5071 16.9199 56.5071 16.9199 56.5071C16.9199 56.5071 16.9199 56.5071 16.9199 56.5071C16.9199 56.5071 16.9199 56.5071 16.9199 56.5071C16.9199 56.5071 16.9199 56.5071 16.9199 56.5071C16.9199 56.5071 16.9199 56.5071 16.9199 56.5071C16.9199 56.5071 16.9199 56.5071 16.9199 56.5071C16.9199 56.5071 16.9199 56.5071 16.9199 56.5071C16.9199 56.5071 16.9199 56.5071 16.9199 56.5071C16.9199 56.5071 16.9199 56.5071 16.9199 56.5071C16.9199 56.5071 16.9199 56.5071 16.9199 56.5071C16.9199 56.5071 16.9199 56.5071 16.9199 56.5071C16.9199 56.5071 16.9199 56.5071 16.9199 56.5071C16.9199 56.5071 16.9199 56.5071 16.9199 56.5071H16.9199H16.9199C16.9199 56.5071 16.9199 56.5071 16.9199 56.5071C16.9199 56.5071 16.9199 56.5071 16.9199 56.5071H16.9199C16.9199 56.5071 16.9199 56.5071 16.9199 56.5071C16.9199 56.5071 16.9199 56.5071 16.9199 56.5071H16.9199C16.9199 56.5071 16.9199 56.5071 16.9199 56.5071C16.9199 56.5071 16.9199 56.5071 16.9199 56.5071C16.9199 56.5071 16.9199 56.5071 16.9199 56.5071C16.9199 56.5071 16.9199 56.5071 16.9199 56.5071C16.9199 56.5071 16.9199 56.5071 16.9199 56.5071H16.9199C16.9199 56.5071 16.9199 56.5071 16.9199 56.5071C16.9199 56.5071 16.9199 56.5071 16.9199 56.5071C16.9199 56.5071 16.9199 56.5071 16.9199 56.5071C16.9199 56.5071 16.9199 56.5071 16.9199 56.5071C16.9199 56.5071 16.9199 56.5071 16.9199 56.5071H16.9199C16.9199 56.5071 16.9199 56.5071 16.9199 56.5071H16.9199H16.9199C16.9199 56.5071 16.9199 56.5071 16.9199 56.5071C16.9199 56.5071 16.9199 56.5071 16.9199 56.5071C16.9199 56.5071 16.9199 56.5071 16.9199 56.5071H16.9199C16.9199 57.8071 16.9199 59.1071 16.9199 59.1071C16.9199 59.1071 16.9199 59.1071 16.9199 59.1071C16.9199 59.1071 16.9199 59.1071 16.9199 59.1071C16.9199 59.1071 16.9199 59.1071 16.9199 59.1071C16.9199 59.1071 16.9199 59.1071 16.9199 59.1071C16.9199 59.1071 16.9199 59.1071 16.9199 59.1071H16.9199H16.9199H16.9199C16.9199 59.1071 16.9199 59.1071 16.9199 59.1071H16.9199C16.9199 59.1071 16.9199 59.1071 16.9199 59.1071C16.9199 59.1071 16.9199 59.1071 16.9199 59.1071H16.9199H16.9199C16.9199 59.1071 16.9199 59.1071 16.9199 59.1071C16.9199 59.1071 16.9199 59.1071 16.9199 59.1071H16.9199H16.9199H16.9199C16.9199 59.1071 16.9199 59.1071 16.9199 59.1071C16.9199 59.1071 16.9199 59.1071 16.9199 59.1071C16.9199 59.1071 16.9199 59.1071 16.9199 59.1071H16.9199C16.9199 59.1071 16.9199 59.1071 16.9199 59.1071C16.9199 59.1071 16.9199 59.1071 16.9199 59.1071H16.9199C16.9199 59.1071 16.9199 59.1071 16.9199 59.1071H16.9199C16.9199 59.1071 16.9199 59.1071 16.9199 59.1071H16.9199C16.9199 59.1071 16.9199 59.1071 16.9199 59.1071H16.9199C16.9199 59.1071 16.9199 59.1071 16.9199 59.1071H16.9199C16.9199 59.1071 16.9199 59.1071 16.9199 59.1071H16.9199C16.9199 59.1071 16.9199 59.1071 16.9199 59.1071C16.9199 59.1071 16.9199 59.1071 16.9199 59.1071H16.9199C16.9199 59.1071 16.9199 59.1071 16.9199 59.1071H16.9199C16.9199 59.1071 16.9199 59.1071 16.9199 59.1071C16.9199 59.1071 16.9199 59.1071 16.9199 59.1071H16.9199C16.9199 59.1071 16.9199 59.1071 16.92 59.1071C16.92 59.1071 16.92 59.1071 16.92 59.1071C16.92 59.1071 16.92 59.1071 16.92 59.1071H16.92C16.92 59.1071 16.92 59.1071 16.92 59.1071C16.92 59.1071 16.92 59.1071 16.92 59.1071H16.92C16.92 59.1071 16.92 59.1071 16.92 59.1071C16.92 59.1071 16.92 59.1071 16.92 59.1071C16.92 59.1071 16.92 59.1071 16.92 59.1071H16.92C16.92 59.1071 16.92 59.1071 16.92 59.1071C16.92 59.1071 16.92 59.1071 16.92 59.1071C16.92 59.1071 16.92 59.1071 16.92 59.1071H16.92H16.92C16.92 59.1071 16.92 59.1071 16.92 59.1071C16.92 59.1071 16.92 59.1071 16.92 59.1071C16.92 59.1071 16.92 59.1071 16.92 59.1071H16.92H16.92C16.92 59.1071 16.92 59.1071 16.92 59.1071C16.92 59.1071 16.92 59.1071 16.92 59.1071C16.92 59.1071 16.92 59.1071 16.92 59.1071C16.92 59.1071 16.92 59.1071 16.92 59.1071H16.92C16.92 59.1071 16.92 59.1071 16.92 59.1071C16.92 59.1071 16.92 59.1071 16.92 59.1071C16.92 59.1071 16.92 59.1071 16.92 59.1071C16.92 59.1071 16.92 59.1071 16.92 59.1071C16.92 59.1071 16.92 59.1071 16.92 59.1071H16.92H16.92C16.92 59.1071 16.92 59.1071 16.92 59.1071C16.92 59.1071 16.92 59.1071 16.92 59.1071C16.92 59.1071 16.92 59.1071 16.92 59.1071C16.92 59.1071 16.92 59.1071 16.92 59.1071H16.92H16.92C16.92 59.1071 16.92 59.1071 16.92 59.1071C16.92 59.1071 16.92 59.1071 16.92 59.1071C16.92 59.1071 16.92 59.1071 16.92 59.1071C16.92 59.1071 16.92 59.1071 16.92 59.1071C16.92 59.1071 16.92 59.1071 16.92 59.1071H16.92H16.92H16.92C16.92 59.1071 16.92 59.1071 16.92 59.1071C16.92 59.1071 16.92 59.1071 16.92 59.1071C16.92 59.1071 16.92 59.1071 16.92 59.1071C16.92 59.1071 16.92 59.1071 16.92 59.1071C16.92 59.1071 16.92 59.1071 16.92 59.1071H16.92H16.92C16.92 59.1071 16.92 59.1071 16.92 59.1071C16.92 59.1071 16.92 59.1071 16.92 59.1071C16.92 59.1071 16.92 59.1071 16.92 59.1071C16.92 59.1071 16.92 59.1071 16.92 59.1071C16.92 59.1071 16.92 59.1071 16.92 59.1071H16.92H16.92C16.92 59.1071 16.92 59.1071 16.92 59.1071C16.92 59.1071 16.92 59.1071 16.92 59.1071C16.92 59.1071 16.92 59.1071 16.92 59.1071C16.92 59.1071 16.92 59.1071 16.92 59.1071C16.92 59.1071 16.92 59.1071 16.92 59.1071H16.92H16.92C16.92 59.1071 16.92 59.1071 16.92 59.1071C16.92 59.1071 16.92 59.1071 16.92 59.1071C16.92 59.1071 16.92 59.1071 16.92 59.1071C16.92 59.1071 16.92 59.1071 16.92 59.1071H16.92H16.92C16.92 59.1071 16.92 59.1071 16.92 59.1071C16.92 59.1071 16.92 59.1071 16.92 59.1071C16.92 59.1071 16.92 59.1071 16.92 59.1071C16.92 59.1071 16.92 59.1071 16.92 59.1071H16.92H16.92C16.92 59.1071 16.92 59.1071 16.92 59.1071C16.92 59.1071 16.92 59.1071 16.92 59.1071C16.92 59.1071 16.92 59.1071 16.92 59.1071H16.92H16.92C16.92 59.1071 16.92 59.1071 16.92 59.1071C16.92 59.1071 16.92 59.1071 16.92 59.1071C16.92 59.1071 16.92 59.1071 16.92 59.1071H16.92C16.92 59.1071 16.92 59.1071 16.92 59.1071C16.92 59.1071 16.92 59.1071 16.92 59.1071C16.92 59.1071 16.92 59.1071 16.92 59.1071H16.92C16.92 59.1071 16.92 59.1071 16.92 59.1071C16.92 59.1071 16.92 59.1071 16.92 59.1071C16.92 59.1071 16.92 59.1071 16.92 59.1071H16.92C16.92 59.1071 16.92 59.1071 16.92 59.1071C16.92 59.1071 16.92 59.1071 16.92 59.1071H16.92C16.92 59.1071 16.92 59.1071 16.92 59.1071C16.92 59.1071 16.92 59.1071 16.92 59.1071H16.92C16.92 59.1071 16.92 59.1071 16.92 59.1071C16.92 59.1071 16.92 59.1071 16.92 59.1071H16.9201C16.9201 59.1071 16.9201 59.1071 16.9201 59.1071C16.9201 59.1071 16.9201 59.1071 16.9201 59.1071H16.9201C16.9201 59.1071 16.9201 59.1071 16.9201 59.1071H16.9201C16.9201 59.1071 16.9201 59.1071 16.9201 59.1071H16.9201C16.9201 59.1071 16.9201 59.1071 16.9201 59.1071H16.9201C16.9201 59.1071 16.9201 59.1071 16.9201 59.1071H16.9201C16.9201 59.1071 16.9201 59.1071 16.9201 59.1071H16.9201C16.9201 59.1071 16.9201 59.1071 16.9201 59.1071C16.9201 59.1071 16.9201 59.1071 16.9201 59.1071H16.9201C16.9201 59.1071 16.9201 59.1071 16.9201 59.1071C16.9201 59.1071 16.9201 59.1071 16.9201 59.1071H16.9201H16.9201C16.9201 59.1071 16.9201 59.1071 16.9201 59.1071C16.9201 59.1071 16.9201 59.1071 16.9201 59.1071C16.9201 59.1071 16.9201 59.1071 16.9201 59.1071C16.9201 59.1071 16.9201 59.1071 16.9201 59.1071C16.9201 59.1071 16.9201 59.1071 16.9201 59.1071C16.9201 59.1071 16.9201 59.1071 16.9201 59.1071C16.9201 59.1071 16.9201 59.1071 16.9201 59.1071H16.9201C16.9201 59.1071 16.9201 59.1071 16.9201 59.1071H16.9201C16.9201 59.1071 16.9201 59.1071 16.9201 59.1071C16.9201 59.1071 16.9201 59.1071 16.9201 59.1071H16.9201C16.9201 59.1071 16.9201 59.1071 16.9201 59.1071H16.9201H16.9201C16.9201 59.1071 16.9201 59.1071 16.9201 59.1071C16.9201 59.1071 16.9201 59.1071 16.9201 59.1071C16.9201 59.1071 16.9201 57.8071 16.9201 56.5071H16.9201C16.9201 56.5071 16.9201 56.5071 16.9201 56.5071C16.9201 56.5071 16.9201 56.5071 16.9201 56.5071C16.9201 56.5071 16.9201 56.5071 16.9201 56.5071C16.9201 56.5071 16.9201 56.5071 16.9201 56.5071C16.9201 56.5071 16.9201 56.5071 16.9201 56.5071H16.9201V59.1071H16.9201C16.9201 59.1071 16.9201 59.1071 16.9201 59.1071C16.9201 59.1071 16.9201 59.1071 16.9201 59.1071C16.9201 59.1071 16.9201 59.1071 16.9201 59.1071C16.9201 59.1071 16.9201 59.1071 16.9201 59.1071C16.9201 59.1071 16.9201 59.1071 16.9201 59.1071H16.9201C16.9201 57.8071 16.9201 56.5071 16.9201 56.5071C16.9201 56.5071 16.9201 56.5071 16.9201 56.5071C16.9201 56.5071 16.9201 56.5071 16.9201 56.5071H16.9201H16.9201C16.9201 56.5071 16.9201 56.5071 16.9201 56.5071H16.9201C16.9201 56.5071 16.9201 56.5071 16.9201 56.5071C16.9201 56.5071 16.9201 56.5071 16.9201 56.5071H16.9201C16.9201 56.5071 16.9201 56.5071 16.9201 56.5071H16.9201C16.9201 56.5071 16.9201 56.5071 16.9201 56.5071C16.9201 56.5071 16.9201 56.5071 16.9201 56.5071C16.9201 56.5071 16.9201 56.5071 16.9201 56.5071C16.9201 56.5071 16.9201 56.5071 16.9201 56.5071C16.9201 56.5071 16.9201 56.5071 16.9201 56.5071C16.9201 56.5071 16.9201 56.5071 16.9201 56.5071C16.9201 56.5071 16.9201 56.5071 16.9201 56.5071H16.9201H16.9201C16.9201 56.5071 16.9201 56.5071 16.9201 56.5071C16.9201 56.5071 16.9201 56.5071 16.9201 56.5071H16.9201C16.9201 56.5071 16.9201 56.5071 16.9201 56.5071C16.9201 56.5071 16.9201 56.5071 16.9201 56.5071H16.9201C16.9201 56.5071 16.9201 56.5071 16.9201 56.5071H16.9201C16.9201 56.5071 16.9201 56.5071 16.9201 56.5071H16.9201C16.9201 56.5071 16.9201 56.5071 16.9201 56.5071H16.9201C16.9201 56.5071 16.9201 56.5071 16.9201 56.5071H16.9201C16.9201 56.5071 16.9201 56.5071 16.9201 56.5071H16.9201C16.9201 56.5071 16.9201 56.5071 16.9201 56.5071C16.9201 56.5071 16.9201 56.5071 16.9201 56.5071H16.92C16.92 56.5071 16.92 56.5071 16.92 56.5071C16.92 56.5071 16.92 56.5071 16.92 56.5071H16.92C16.92 56.5071 16.92 56.5071 16.92 56.5071C16.92 56.5071 16.92 56.5071 16.92 56.5071H16.92C16.92 56.5071 16.92 56.5071 16.92 56.5071C16.92 56.5071 16.92 56.5071 16.92 56.5071H16.92C16.92 56.5071 16.92 56.5071 16.92 56.5071C16.92 56.5071 16.92 56.5071 16.92 56.5071C16.92 56.5071 16.92 56.5071 16.92 56.5071H16.92C16.92 56.5071 16.92 56.5071 16.92 56.5071C16.92 56.5071 16.92 56.5071 16.92 56.5071C16.92 56.5071 16.92 56.5071 16.92 56.5071H16.92C16.92 56.5071 16.92 56.5071 16.92 56.5071C16.92 56.5071 16.92 56.5071 16.92 56.5071C16.92 56.5071 16.92 56.5071 16.92 56.5071H16.92H16.92C16.92 56.5071 16.92 56.5071 16.92 56.5071C16.92 56.5071 16.92 56.5071 16.92 56.5071C16.92 56.5071 16.92 56.5071 16.92 56.5071H16.92H16.92C16.92 56.5071 16.92 56.5071 16.92 56.5071C16.92 56.5071 16.92 56.5071 16.92 56.5071C16.92 56.5071 16.92 56.5071 16.92 56.5071C16.92 56.5071 16.92 56.5071 16.92 56.5071H16.92H16.92C16.92 56.5071 16.92 56.5071 16.92 56.5071C16.92 56.5071 16.92 56.5071 16.92 56.5071C16.92 56.5071 16.92 56.5071 16.92 56.5071C16.92 56.5071 16.92 56.5071 16.92 56.5071H16.92H16.92C16.92 56.5071 16.92 56.5071 16.92 56.5071C16.92 56.5071 16.92 56.5071 16.92 56.5071C16.92 56.5071 16.92 56.5071 16.92 56.5071C16.92 56.5071 16.92 56.5071 16.92 56.5071C16.92 56.5071 16.92 56.5071 16.92 56.5071H16.92H16.92C16.92 56.5071 16.92 56.5071 16.92 56.5071C16.92 56.5071 16.92 56.5071 16.92 56.5071C16.92 56.5071 16.92 56.5071 16.92 56.5071C16.92 56.5071 16.92 56.5071 16.92 56.5071C16.92 56.5071 16.92 56.5071 16.92 56.5071H16.92H16.92C16.92 56.5071 16.92 56.5071 16.92 56.5071C16.92 56.5071 16.92 56.5071 16.92 56.5071C16.92 56.5071 16.92 56.5071 16.92 56.5071C16.92 56.5071 16.92 56.5071 16.92 56.5071C16.92 56.5071 16.92 56.5071 16.92 56.5071H16.92H16.92H16.92C16.92 56.5071 16.92 56.5071 16.92 56.5071C16.92 56.5071 16.92 56.5071 16.92 56.5071C16.92 56.5071 16.92 56.5071 16.92 56.5071C16.92 56.5071 16.92 56.5071 16.92 56.5071C16.92 56.5071 16.92 56.5071 16.92 56.5071H16.92H16.92C16.92 56.5071 16.92 56.5071 16.92 56.5071C16.92 56.5071 16.92 56.5071 16.92 56.5071C16.92 56.5071 16.92 56.5071 16.92 56.5071C16.92 56.5071 16.92 56.5071 16.92 56.5071H16.92H16.92C16.92 56.5071 16.92 56.5071 16.92 56.5071C16.92 56.5071 16.92 56.5071 16.92 56.5071C16.92 56.5071 16.92 56.5071 16.92 56.5071C16.92 56.5071 16.92 56.5071 16.92 56.5071C16.92 56.5071 16.92 56.5071 16.92 56.5071H16.92C16.92 56.5071 16.92 56.5071 16.92 56.5071C16.92 56.5071 16.92 56.5071 16.92 56.5071C16.92 56.5071 16.92 56.5071 16.92 56.5071C16.92 56.5071 16.92 56.5071 16.92 56.5071H16.92H16.92C16.92 56.5071 16.92 56.5071 16.92 56.5071C16.92 56.5071 16.92 56.5071 16.92 56.5071C16.92 56.5071 16.92 56.5071 16.92 56.5071H16.92H16.92C16.92 56.5071 16.92 56.5071 16.92 56.5071C16.92 56.5071 16.92 56.5071 16.92 56.5071C16.92 56.5071 16.92 56.5071 16.92 56.5071H16.92C16.92 56.5071 16.92 56.5071 16.92 56.5071C16.92 56.5071 16.92 56.5071 16.92 56.5071C16.92 56.5071 16.92 56.5071 16.92 56.5071H16.92C16.92 56.5071 16.92 56.5071 16.92 56.5071C16.92 56.5071 16.92 56.5071 16.92 56.5071H16.92C16.92 56.5071 16.92 56.5071 16.92 56.5071C16.92 56.5071 16.92 56.5071 16.92 56.5071C16.9199 56.5071 16.9199 56.5071 16.9199 56.5071H16.9199C16.9199 56.5071 16.9199 56.5071 16.9199 56.5071C16.9199 56.5071 16.9199 56.5071 16.9199 56.5071H16.9199C16.9199 56.5071 16.9199 56.5071 16.9199 56.5071H16.9199C16.9199 56.5071 16.9199 56.5071 16.9199 56.5071C16.9199 56.5071 16.9199 56.5071 16.9199 56.5071H16.9199C16.9199 56.5071 16.9199 56.5071 16.9199 56.5071H16.9199C16.9199 56.5071 16.9199 56.5071 16.9199 56.5071H16.9199C16.9199 56.5071 16.9199 56.5071 16.9199 56.5071H16.9199C16.9199 56.5071 16.9199 56.5071 16.9199 56.5071H16.9199C16.9199 56.5071 16.9199 56.5071 16.9199 56.5071H16.9199C16.9199 56.5071 16.9199 56.5071 16.9199 56.5071C16.9199 56.5071 16.9199 56.5071 16.9199 56.5071H16.9199C16.9199 56.5071 16.9199 56.5071 16.9199 56.5071C16.9199 56.5071 16.9199 56.5071 16.9199 56.5071C16.9199 56.5071 16.9199 56.5071 16.9199 56.5071H16.9199H16.9199H16.9199C16.9199 56.5071 16.9199 56.5071 16.9199 56.5071C16.9199 56.5071 16.9199 56.5071 16.9199 56.5071H16.9199H16.9199C16.9199 56.5071 16.9199 56.5071 16.9199 56.5071C16.9199 56.5071 16.9199 56.5071 16.9199 56.5071H16.9199C16.9199 56.5071 16.9199 56.5071 16.9199 56.5071H16.9199H16.9199H16.9199C16.9199 56.5071 16.9199 56.5071 16.9199 56.5071C16.9199 56.5071 16.9199 56.5071 16.9199 56.5071C16.9199 56.5071 16.9199 56.5071 16.9199 56.5071C16.9199 56.5071 16.9199 56.5071 16.9199 56.5071C16.9199 56.5071 16.9199 56.5071 16.9199 56.5071C16.9199 56.5071 16.9199 57.8071 16.9199 59.1071H16.9199C16.9199 59.1071 16.9199 59.1071 16.9199 59.1071C16.9199 59.1071 16.9199 59.1071 16.9199 59.1071C16.9199 59.1071 16.9199 59.1071 16.9199 59.1071H16.9199H16.9199C16.9199 59.1071 16.9199 59.1071 16.9199 59.1071H16.9199C16.9199 59.1071 16.9199 59.1071 16.9199 59.1071C16.9199 59.1071 16.9199 59.1071 16.9199 59.1071C16.9199 59.1071 16.9199 59.1071 16.9199 59.1071C16.9199 59.1071 16.9199 59.1071 16.9199 59.1071C16.9199 59.1071 16.9199 59.1071 16.9199 59.1071H16.9199C16.9199 59.1071 16.9199 59.1071 16.9199 59.1071C16.9199 59.1071 16.9199 59.1071 16.9199 59.1071C16.9199 59.1071 16.9199 59.1071 16.9199 59.1071C16.9199 59.1071 16.9199 59.1071 16.9199 59.1071C16.9199 59.1071 16.9199 59.1071 16.9199 59.1071H16.9199C16.9199 59.1071 16.9199 59.1071 16.9199 59.1071C16.9199 59.1071 16.9199 59.1071 16.9199 59.1071H16.9199C16.9199 59.1071 16.9199 59.1071 16.9199 59.1071C16.9199 59.1071 16.9199 59.1071 16.9199 59.1071H16.9199H16.9199C16.9199 59.1071 16.9199 59.1071 16.9199 59.1071C16.9199 59.1071 16.9199 59.1071 16.9199 59.1071C16.9199 59.1071 16.9199 59.1071 16.9199 59.1071C16.9199 59.1071 16.9199 59.1071 16.9199 59.1071C16.9199 59.1071 16.9199 59.1071 16.9199 59.1071C16.9199 59.1071 16.9199 59.1071 16.9199 59.1071C16.9199 59.1071 16.9199 59.1071 16.9199 59.1071C16.9199 59.1071 16.9199 59.1071 16.9199 59.1071C16.9199 59.1071 16.9199 59.1071 16.9199 59.1071C16.9199 59.1071 16.9199 59.1071 16.9199 59.1071C16.9199 59.1071 16.9199 59.1071 16.9199 59.1071C16.9199 59.1071 16.9199 59.1071 16.9199 59.1071C16.9199 59.1071 16.9199 59.1071 16.9199 59.1071C16.9199 59.1071 16.9199 59.1071 16.9199 59.1071C16.9199 59.1071 16.9199 59.1071 16.9199 59.1071H16.9199H16.92H16.92C16.92 59.1071 16.92 59.1071 16.92 59.1071C16.92 59.1071 16.92 59.1071 16.92 59.1071C16.92 59.1071 16.92 59.1071 16.92 59.1071H16.92H16.92C16.92 59.1071 16.92 59.1071 16.92 59.1071C16.92 59.1071 16.92 59.1071 16.92 59.1071H16.92C16.92 59.1071 16.92 59.1071 16.92 59.1071C16.92 59.1071 16.92 59.1071 16.92 59.1071H16.92C16.92 59.1071 16.92 59.1071 16.92 59.1071C16.92 59.1071 16.92 59.1071 16.92 59.1071H16.92C16.92 59.1071 16.92 59.1071 16.92 59.1071H16.92C16.92 59.1071 16.92 59.1071 16.92 59.1071H16.92C16.92 59.1071 16.92 59.1071 16.92 59.1071H16.92C16.92 59.1071 16.92 59.1071 16.92 59.1071H16.92C16.92 59.1071 16.92 59.1071 16.92 59.1071H16.92C16.92 59.1071 16.92 59.1071 16.92 59.1071H16.92C16.92 59.1071 16.92 59.1071 16.92 59.1071C16.92 59.1071 16.92 59.1071 16.92 59.1071H16.92C16.92 59.1071 16.92 59.1071 16.92 59.1071C16.92 59.1071 16.92 59.1071 16.92 59.1071C16.92 59.1071 16.92 59.1071 16.92 59.1071H16.92C16.92 59.1071 16.92 59.1071 16.92 59.1071C16.92 59.1071 16.92 59.1071 16.92 59.1071C16.92 59.1071 16.92 59.1071 16.92 59.1071C16.92 59.1071 16.92 59.1071 16.92 59.1071H16.92C16.92 59.1071 16.92 59.1071 16.92 59.1071C16.92 59.1071 16.92 59.1071 16.92 59.1071C16.92 59.1071 16.92 59.1071 16.92 59.1071C16.92 59.1071 16.92 59.1071 16.92 59.1071C16.92 59.1071 16.92 59.1071 16.92 59.1071C16.92 59.1071 16.92 59.1071 16.92 59.1071C16.92 59.1071 16.92 59.1071 16.92 59.1071C16.92 59.1071 16.92 59.1071 16.92 59.1071C16.92 59.1071 16.92 59.1071 16.92 59.1071C16.92 59.1071 16.92 59.1071 16.92 59.1071C16.92 59.1071 16.92 59.1071 16.92 59.1071C16.92 59.1071 16.92 59.1071 16.92 59.1071C16.92 59.1071 16.92 59.1071 16.92 59.1071C16.92 59.1071 16.92 59.1071 16.92 59.1071C16.92 59.1071 16.92 59.1071 16.92 59.1071C16.92 59.1071 16.92 59.1071 16.92 59.1071C16.92 59.1071 16.92 59.1071 16.92 59.1071C16.92 59.1071 16.92 59.1071 16.92 59.1071C16.92 59.1071 16.92 59.1071 16.92 59.1071C16.92 59.1071 16.92 59.1071 16.92 59.1071C16.92 59.1071 16.92 59.1071 16.92 59.1071C16.92 59.1071 16.92 59.1071 16.92 59.1071C16.9201 59.1071 16.9201 59.1071 16.9201 59.1071C16.9201 59.1071 16.9201 59.1071 16.9201 59.1071C16.9201 59.1071 16.9201 59.1071 16.9201 59.1071C16.9201 59.1071 16.9201 59.1071 16.9201 59.1071C16.9201 59.1071 16.9201 59.1071 16.9201 59.1071C16.9201 59.1071 16.9201 59.1071 16.9201 59.1071C16.9201 59.1071 16.9201 59.1071 16.9201 59.1071C16.9201 59.1071 16.9201 59.1071 16.9201 59.1071C16.9201 59.1071 16.9201 59.1071 16.9201 59.1071C16.9201 59.1071 16.9201 59.1071 16.9201 59.1071C16.9201 59.1071 16.9201 59.1071 16.9201 59.1071C16.9201 59.1071 16.9201 59.1071 16.9201 59.1071C16.9201 59.1071 16.9201 59.1071 16.9201 59.1071V56.5071ZM37.1069 64.2278C37.1069 64.2278 37.1069 64.2278 37.1069 64.2278C37.1069 64.2278 37.1069 64.2278 37.1069 64.2278C37.1069 64.2278 37.1069 64.2278 37.1069 64.2278C37.1069 64.2278 37.1069 64.2278 37.1069 64.2278C37.1069 64.2278 37.1069 64.2278 37.1069 64.2278C37.1069 64.2278 37.1069 64.2278 37.1069 64.2278L37.1069 64.2278C37.1069 64.2279 37.1069 64.2278 37.1069 64.2278C37.1069 64.2279 37.1069 64.2279 37.1069 64.2279C37.1069 64.2279 37.1069 64.2279 37.1069 64.2279C37.1069 64.2279 37.1068 64.2279 37.1068 64.2279C37.1068 64.2279 37.1068 64.2279 37.1068 64.2279C37.1068 64.2279 37.1068 64.2279 37.1068 64.2279C37.1068 64.2279 37.1068 64.2279 37.1068 64.2279C37.1067 64.228 37.1068 64.2279 37.1068 64.228C37.1067 64.228 37.1067 64.228 37.1067 64.228C37.1067 66.0664 38.9452 66.0664 38.9452 66.0664H38.9452H38.9452C38.9452 66.0664 38.9452 66.0664 38.9452 66.0664C38.9453 66.0664 38.9452 66.0665 38.9452 66.0664C38.9452 66.0664 38.9452 66.0664 38.9453 66.0664C38.9453 66.0664 38.9453 66.0664 38.9453 66.0664C38.9453 66.0664 38.9453 66.0664 38.9453 66.0664C38.9453 66.0664 38.9453 66.0664 38.9453 66.0664C38.9453 66.0664 38.9453 66.0664 38.9453 66.0664H38.9453C38.9453 66.0664 38.9453 66.0664 38.9453 66.0664C38.9453 66.0664 38.9453 66.0664 38.9453 66.0664C38.9454 66.0662 38.9453 66.0664 38.9454 66.0662C38.9456 66.0661 38.9454 66.0663 38.9455 66.0661C38.9456 66.066 38.9455 66.0661 38.9456 66.066C38.9456 66.066 38.9456 66.066 38.9456 66.066C38.9456 66.066 38.9456 66.066 38.9456 66.066C38.9456 66.066 37.1071 66.066 37.1071 64.2276C37.1071 64.2276 37.1071 64.2276 37.1071 64.2276C37.1071 64.2276 37.1071 64.2276 37.1071 64.2276C37.1071 64.2276 37.1072 64.2276 37.1071 64.2276C37.1071 64.2276 37.1071 64.2276 37.1071 64.2276C37.1071 64.2276 37.1071 64.2276 37.1071 64.2276C37.1071 64.2276 37.1071 64.2276 37.1071 64.2276C37.1071 64.2276 37.1071 64.2276 37.1071 64.2276C37.1071 64.2276 37.1071 64.2276 37.1071 64.2276C37.1071 64.2276 37.1071 64.2276 37.1071 64.2276C37.1071 64.2276 37.1071 64.2276 37.1071 64.2276C37.1071 64.2276 37.1071 64.2276 37.1071 64.2276C37.1071 64.2276 37.1071 64.2276 37.1071 64.2276C37.1071 64.2276 37.1071 64.2276 37.1071 64.2276C37.1071 64.2276 37.1071 64.2276 37.1071 64.2276C37.107 64.2277 37.1071 64.2276 37.1069 64.2278L38.9454 66.0662C38.9455 66.0661 38.9456 66.0661 38.9456 66.0661C38.9457 66.066 38.9456 66.0661 38.9456 66.0661C38.9456 66.066 38.9456 66.066 38.9456 66.066C38.9456 66.066 38.9456 66.066 38.9456 66.066C38.9456 64.2276 37.1071 64.2276 37.1071 64.2276C37.1071 64.2276 37.1071 64.2276 37.1071 64.2276C37.1071 64.2276 37.1071 64.2276 37.1071 64.2276C37.1071 64.2276 37.1071 64.2276 37.1071 64.2276C37.1071 64.2276 37.1071 64.2276 37.1071 64.2276C37.1071 64.2276 37.1072 64.2276 37.1071 64.2276C37.1071 64.2276 37.1071 64.2276 37.1071 64.2276H37.1071V64.2276C37.1071 64.2276 37.1071 64.2276 37.1071 64.2276C37.1071 64.2276 37.1071 64.2276 37.1071 64.2276C37.1071 64.2276 37.1071 64.2276 37.1071 64.2276C37.1071 64.2276 37.1071 64.2276 37.1071 64.2276C37.1071 64.2276 37.1071 64.2276 37.1071 64.2276C37.107 64.2277 37.107 64.2277 37.1069 64.2278C37.1067 64.228 37.107 64.2277 37.1068 64.2279C37.1068 64.2279 37.1068 64.2279 37.1068 64.2279C37.1068 64.2279 37.1068 64.2279 37.1068 64.2279V64.2279C37.1068 64.2279 37.1068 64.2279 37.1068 64.2279C37.1068 64.2279 37.1068 64.2279 37.1068 64.2279C37.1068 64.2279 37.1068 64.2279 37.1068 64.2279C37.1068 64.2279 37.1068 64.2279 37.1068 64.2279C37.1068 64.2279 37.1068 64.2279 37.1068 64.2279C37.1068 64.2279 37.1068 64.2279 37.1068 64.228C37.1068 64.228 37.1068 64.228 37.1068 64.228C37.1067 64.228 37.1068 64.228 37.1068 64.228C37.1067 64.228 37.1068 64.228 37.1067 64.228C37.1067 64.228 37.1067 64.228 37.1067 64.228C37.1067 64.228 37.1067 64.228 37.1067 64.228C37.1067 64.228 38.9452 64.228 38.9452 66.0664C38.9452 66.0664 38.9452 66.0664 38.9452 66.0664C38.9452 66.0664 38.9452 66.0665 38.9452 66.0664C38.9452 66.0664 38.9452 66.0664 38.9452 66.0664C38.9452 66.0664 38.9452 66.0664 38.9452 66.0664C38.9452 66.0664 38.9452 66.0664 38.9452 66.0664C38.9452 66.0664 38.9452 66.0664 38.9452 66.0664C38.9452 66.0664 38.9452 66.0664 38.9452 66.0664C38.9452 66.0664 38.9452 66.0664 38.9452 66.0664C38.9452 66.0664 38.9452 66.0664 38.9452 66.0664C38.9452 66.0664 38.9452 66.0664 38.9452 66.0664C38.9453 66.0664 38.9453 66.0663 38.9454 66.0662L37.1069 64.2278ZM55.746 15.4928C55.7551 15.4928 55.7725 15.4927 55.7944 15.4919C55.7969 15.4918 55.8702 15.4901 55.9599 15.4751C55.9862 15.4707 56.0406 15.4609 56.1077 15.4415C56.1353 15.4335 56.3363 15.3797 56.541 15.2215C56.6492 15.1379 56.8749 14.9365 56.9861 14.5834C57.1166 14.1692 57.0189 13.7803 56.8531 13.5111C56.7137 13.2847 56.541 13.1599 56.4637 13.1088C56.3737 13.0492 56.2947 13.0132 56.2496 12.9942C56.1012 12.9319 55.9731 12.9127 55.9654 12.9114C55.9258 12.9046 55.8937 12.9011 55.8755 12.8992C55.8136 12.893 55.7439 12.8906 55.6682 12.8951C55.6409 12.8968 55.5365 12.9029 55.4081 12.9375C55.3532 12.9523 55.1941 12.9973 55.0206 13.114C54.8525 13.227 54.446 13.5717 54.446 14.1928H57.046C57.046 14.8139 56.6395 15.1586 56.4714 15.2716C56.2979 15.3882 56.1389 15.4333 56.084 15.4481C55.9555 15.4827 55.8512 15.4888 55.8239 15.4904C55.7482 15.495 55.6786 15.4925 55.6168 15.4863C55.5986 15.4845 55.5665 15.4809 55.5269 15.4742C55.5192 15.4729 55.3911 15.4537 55.2428 15.3914C55.1976 15.3724 55.1186 15.3364 55.0286 15.2768C54.9513 15.2256 54.7786 15.1008 54.6392 14.8745C54.4734 14.6053 54.3757 14.2164 54.5062 13.8022C54.6174 13.4491 54.8431 13.2477 54.9513 13.1641C55.156 13.0059 55.3571 12.9521 55.3846 12.9441C55.4517 12.9246 55.5061 12.9149 55.5324 12.9105C55.6221 12.8955 55.6954 12.8938 55.6978 12.8937C55.7197 12.8929 55.737 12.8928 55.746 12.8928V15.4928ZM29.7852 6.47536C31.1042 4.85255 31.6415 4.20255 32.1367 3.79737L30.4903 1.78507C29.7374 2.40106 28.9992 3.32025 27.7676 4.8354L29.7852 6.47536ZM32.1365 3.79756C34.5781 1.80081 38.088 1.80081 40.5296 3.79756L42.1756 1.78489C38.7764 -0.994963 33.8897 -0.994963 30.4905 1.78489L32.1365 3.79756ZM40.5294 3.79737C41.0246 4.20256 41.5618 4.85247 42.881 6.47528L44.8985 4.83527C43.6669 3.32012 42.9286 2.40104 42.1758 1.78507L40.5294 3.79737ZM42.8811 6.47537C43.4618 7.18962 43.8151 7.62773 44.2007 8.00554L46.0204 6.14841C45.7648 5.89797 45.5182 5.59751 44.8984 4.83519L42.8811 6.47537ZM44.2008 8.00557C45.9024 9.67275 48.1826 10.6173 50.565 10.6417L50.5915 8.04183C48.8803 8.02433 47.2426 7.34589 46.0203 6.14838L44.2008 8.00557ZM50.565 10.6417C51.1047 10.6472 51.664 10.5875 52.5801 10.4928L52.313 7.90661C51.3363 8.00749 50.9492 8.04548 50.5915 8.04183L50.565 10.6417ZM52.5801 10.4929C54.6606 10.278 55.4997 10.1983 56.1365 10.2621L56.3957 7.67506C55.4274 7.57806 54.2554 7.70605 52.313 7.9066L52.5801 10.4929ZM56.1365 10.2621C59.2745 10.5765 61.7567 13.0586 62.0709 16.1967L64.658 15.9376C64.2204 11.5684 60.7645 8.11276 56.3957 7.67506L56.1365 10.2621ZM62.071 16.1969C62.1348 16.8335 62.055 17.6725 61.8403 19.753L64.4266 20.0199C64.627 18.078 64.7551 16.9057 64.658 15.9374L62.071 16.1969ZM61.8404 19.7526C61.7454 20.6694 61.686 21.2283 61.6914 21.7681L64.2913 21.7418C64.2877 21.3838 64.3255 20.9963 64.4265 20.0204L61.8404 19.7526ZM61.6914 21.7683C61.7159 24.1503 62.6602 26.4307 64.3277 28.1324L66.1847 26.3127C64.9872 25.0906 64.3088 23.4527 64.2913 21.7416L61.6914 21.7683ZM64.3274 28.1321C64.7052 28.5179 65.1433 28.8714 65.8576 29.452L67.4976 27.4345C66.7355 26.815 66.4352 26.5684 66.185 26.313L64.3274 28.1321ZM65.8577 29.4521C67.4805 30.771 68.1305 31.3083 68.5356 31.8037L70.5483 30.1577C69.9321 29.4043 69.0127 28.6658 67.4975 27.4344L65.8577 29.4521ZM68.5356 31.8037C70.5321 34.2449 70.5321 37.7551 68.5356 40.1964L70.5483 41.8424C73.3279 38.4435 73.3279 33.5565 70.5483 30.1577L68.5356 31.8037ZM68.5356 40.1964C68.1305 40.6917 67.4807 41.2288 65.8577 42.5476L67.4974 44.5654C69.0126 43.3342 69.9321 42.5958 70.5483 41.8424L68.5356 40.1964ZM65.8577 42.5477C65.143 43.1285 64.7051 43.482 64.3274 43.8678L66.185 45.6869C66.4352 45.4314 66.7359 45.1843 67.4975 44.5654L65.8577 42.5477ZM64.3277 43.8675C62.6601 45.5692 61.7159 47.8498 61.6914 50.2317L64.2913 50.2584C64.3088 48.5474 64.9872 46.9093 66.1847 45.6872L64.3277 43.8675ZM61.6914 50.2319C61.686 50.7719 61.7454 51.3307 61.8404 52.2476L64.4265 51.9798C64.3255 51.0039 64.2877 50.6163 64.2913 50.2582L61.6914 50.2319ZM61.8403 52.2471C62.055 54.3275 62.1348 55.1665 62.0709 55.8032L64.658 56.0626C64.7551 55.0942 64.627 53.9221 64.4266 51.9802L61.8403 52.2471ZM62.0709 55.8034C61.7567 58.9415 59.2745 61.4235 56.1364 61.7381L56.3958 64.3251C60.7645 63.8872 64.2204 60.4318 64.658 56.0624L62.0709 55.8034ZM56.1369 61.738C55.4999 61.8017 54.6602 61.7221 52.5802 61.5071L52.3129 64.0934C54.2558 64.2942 55.4272 64.4219 56.3953 64.3252L56.1369 61.738ZM52.58 61.5071C51.6643 61.4126 51.1047 61.3527 50.5651 61.3582L50.5914 63.9581C50.9492 63.9545 51.336 63.9926 52.3131 64.0934L52.58 61.5071ZM50.5649 61.3582C48.1825 61.3827 45.9024 62.3274 44.2008 63.9944L46.0203 65.8516C47.2426 64.6542 48.8804 63.9756 50.5916 63.9581L50.5649 61.3582ZM44.2005 63.9947C43.8152 64.3724 43.4622 64.8096 42.8811 65.5242L44.8983 67.1645C45.5178 66.4028 45.7647 66.1022 46.0206 65.8513L44.2005 63.9947ZM42.881 65.5244C41.5617 67.1473 41.0246 67.7974 40.5293 68.2027L42.1759 70.2149C42.9287 69.5988 43.6669 68.6795 44.8985 67.1643L42.881 65.5244ZM40.5296 68.2024C38.088 70.1993 34.5781 70.1993 32.1365 68.2024L30.4905 70.2151C33.8897 72.9951 38.7764 72.9951 42.1756 70.2151L40.5296 68.2024ZM32.1368 68.2027C31.6415 67.7974 31.1042 67.1475 29.7852 65.5247L27.7676 67.1647C28.9993 68.68 29.7374 69.5988 30.4903 70.2149L32.1368 68.2027ZM29.7851 65.5247C29.2045 64.8104 28.851 64.3725 28.4657 63.9947L26.6455 65.8513C26.9013 66.1021 27.1487 66.4034 27.7677 67.1647L29.7851 65.5247ZM28.4653 63.9944C26.7638 62.3274 24.4834 61.3827 22.1013 61.3582L22.0746 63.9581C23.7856 63.9756 25.4236 64.6542 26.6458 65.8516L28.4653 63.9944ZM22.1012 61.3582C21.5613 61.3527 21.0018 61.4126 20.086 61.5071L20.3529 64.0934C21.33 63.9926 21.7169 63.9545 22.0748 63.9581L22.1012 61.3582ZM20.0858 61.5071C18.006 61.7221 17.1663 61.8017 16.5294 61.738L16.271 64.3252C17.239 64.4219 18.4105 64.2942 20.3531 64.0934L20.0858 61.5071ZM16.5298 61.7381C13.3916 61.4235 10.9095 58.9416 10.5951 55.8033L8.0081 56.0625C8.4458 60.4317 11.9015 63.8872 16.2705 64.3251L16.5298 61.7381ZM10.5951 55.8033C10.5314 55.1665 10.6111 54.3274 10.8259 52.2472L8.23964 51.9801C8.03908 53.9222 7.91109 55.0941 8.0081 56.0625L10.5951 55.8033ZM10.8259 52.2472C10.9205 51.3311 10.9802 50.7718 10.9747 50.2318L8.37483 50.2583C8.37848 50.6164 8.34049 51.0035 8.23964 51.9802L10.8259 52.2472ZM10.9747 50.2318C10.9504 47.8498 10.0058 45.5692 8.33861 43.8675L6.48142 45.6871C7.6789 46.9094 8.35736 48.5474 8.37483 50.2583L10.9747 50.2318ZM8.33858 43.8675C7.96069 43.4818 7.52287 43.1286 6.80825 42.548L5.16865 44.5658C5.93061 45.1849 6.23108 45.4316 6.48144 45.6871L8.33858 43.8675ZM6.80832 42.548C5.1857 41.2294 4.5357 40.6918 4.13063 40.1965L2.11788 41.8423C2.73398 42.5957 3.65324 43.3343 5.16858 44.5657L6.80832 42.548ZM4.13054 40.1963C2.13383 37.7551 2.13383 34.2449 4.13054 31.8037L2.11798 30.1576C-0.661982 33.5565 -0.661982 38.4436 2.11798 41.8424L4.13054 40.1963ZM4.13063 31.8036C4.53568 31.3082 5.18541 30.7711 6.80822 29.4522L5.1684 27.4346C3.65324 28.666 2.73399 29.4043 2.11788 30.1577L4.13063 31.8036ZM6.80826 29.4522C7.52293 28.8713 7.96074 28.518 8.33858 28.1324L6.48144 26.3128C6.23096 26.5684 5.93034 26.8153 5.16836 27.4346L6.80826 29.4522ZM8.33859 28.1324C10.0058 26.4308 10.9504 24.1503 10.9747 21.7682L8.37483 21.7417C8.35736 23.4527 7.67891 25.0906 6.48143 26.3128L8.33859 28.1324ZM10.9747 21.7682C10.9802 21.2284 10.9205 20.669 10.8259 19.753L8.23964 20.02C8.34049 20.9967 8.37848 21.3838 8.37483 21.7417L10.9747 21.7682ZM10.8259 19.753C10.6111 17.6727 10.5314 16.8334 10.5951 16.1967L8.0081 15.9375C7.91109 16.9058 8.03908 18.0779 8.23964 20.02L10.8259 19.753ZM10.5951 16.1967C10.9095 13.0585 13.3916 10.5765 16.5297 10.2621L16.2706 7.67506C11.9014 8.11276 8.4458 11.5684 8.0081 15.9375L10.5951 16.1967ZM16.5297 10.2621C17.1664 10.1983 18.0056 10.278 20.0859 10.4929L20.3529 7.90661C18.4108 7.70605 17.2388 7.57806 16.2706 7.67506L16.5297 10.2621ZM20.0858 10.4928C21.002 10.5875 21.5614 10.6472 22.1013 10.6417L22.0747 8.04183C21.7168 8.04548 21.3296 8.00749 20.353 7.90661L20.0858 10.4928ZM22.1013 10.6417C24.4834 10.6173 26.7638 9.67276 28.4654 8.00555L26.6458 6.1484C25.4236 7.34588 23.7857 8.02433 22.0747 8.04183L22.1013 10.6417ZM28.4653 8.00559C28.851 7.62777 29.2043 7.18996 29.7852 6.47536L27.7676 4.83541C27.1482 5.59739 26.9014 5.89793 26.6458 6.14836L28.4653 8.00559ZM49.6089 31.7753C51.1417 30.2425 51.1417 27.7574 49.6089 26.2246L47.7704 28.0631C48.2879 28.5805 48.2879 29.4194 47.7704 29.9368L49.6089 31.7753ZM49.6089 26.2246C48.076 24.6918 45.5911 24.6918 44.0583 26.2246L45.8968 28.0631C46.4142 27.5457 47.2529 27.5457 47.7704 28.0631L49.6089 26.2246ZM44.0583 26.2246L31.9143 38.3683L33.7528 40.2068L45.8968 28.0631L44.0583 26.2246ZM33.7528 38.3683L28.6089 33.2247L26.7705 35.0632L31.9144 40.2068L33.7528 38.3683ZM28.609 33.2247C27.0762 31.6919 24.591 31.6919 23.0582 33.2247L24.8967 35.0632C25.4141 34.5457 26.253 34.5457 26.7705 35.0632L28.609 33.2247ZM23.0582 33.2247C21.5254 34.7576 21.5254 37.2425 23.0582 38.7753L24.8967 36.9369C24.3792 36.4194 24.3792 35.5807 24.8967 35.0632L23.0582 33.2247ZM23.0582 38.7753L30.0583 45.7753L31.8968 43.9368L24.8967 36.9368L23.0582 38.7753ZM30.0583 45.7753C31.5911 47.3082 34.076 47.3082 35.6089 45.7753L33.7704 43.9368C33.2529 44.4543 32.4142 44.4543 31.8968 43.9368L30.0583 45.7753ZM35.6089 45.7753L49.6089 31.7753L47.7704 29.9368L33.7704 43.9368L35.6089 45.7753Z" fill="#FFECF0" mask="url(#path-1-inside-1_2_2769)" />
</svg>